<?xml version="1.0" encoding="utf-8" standalone="no"?>
<!DOCTYPE svg PUBLIC "-//W3C//DTD SVG 1.1//EN"
  "http://www.w3.org/Graphics/SVG/1.1/DTD/svg11.dtd">
<svg xmlns:xlink="http://www.w3.org/1999/xlink" width="1461.90375pt" height="429.26pt" viewBox="0 0 1461.90375 429.26" xmlns="http://www.w3.org/2000/svg" version="1.1">
 <metadata>
  <rdf:RDF xmlns:dc="http://purl.org/dc/elements/1.1/" xmlns:cc="http://creativecommons.org/ns#" xmlns:rdf="http://www.w3.org/1999/02/22-rdf-syntax-ns#">
   <cc:Work>
    <dc:type rdf:resource="http://purl.org/dc/dcmitype/StillImage"/>
    <dc:date>2026-07-08T22:08:17.312531</dc:date>
    <dc:format>image/svg+xml</dc:format>
    <dc:creator>
     <cc:Agent>
      <dc:title>Matplotlib v3.11.0, https://matplotlib.org/</dc:title>
     </cc:Agent>
    </dc:creator>
   </cc:Work>
  </rdf:RDF>
 </metadata>
 <defs>
  <style type="text/css">*{stroke-linejoin: round; stroke-linecap: butt}</style>
 </defs>
 <g id="figure_1">
  <g id="patch_1">
   <path d="M 0 429.26 
L 1461.90375 429.26 
L 1461.90375 0 
L 0 0 
z
" style="fill: #ffffff"/>
  </g>
  <g id="axes_1">
   <g id="patch_2">
    <path d="M 83.307969 319.476484 
L 739.74375 319.476484 
L 739.74375 105.04 
L 83.307969 105.04 
z
" style="fill: #ffffff"/>
   </g>
   <g id="matplotlib.axis_1">
    <g id="xtick_1">
     <g id="line2d_1">
      <path d="M 113.145959 319.476484 
L 113.145959 105.04 
" clip-path="url(#pbf519d9b4f)" style="fill: none; stroke: #b0b0b0; stroke-opacity: 0.3; stroke-width: 0.8; stroke-linecap: square"/>
     </g>
     <g id="line2d_2">
      <defs>
       <path id="m18b91fce0e" d="M 0 0 
L 0 3.5 
" style="stroke: #000000; stroke-width: 0.8"/>
      </defs>
      <g>
       <use xlink:href="#m18b91fce0e" x="113.145959" y="319.476484" style="stroke: #000000; stroke-width: 0.8"/>
      </g>
     </g>
     <g id="text_1">
      <!-- 10 mil -->
      <g transform="translate(89.745959 337.874141) scale(0.15 -0.15)">
       <defs>
        <path id="DejaVuSans-14" d="M 794 531 
L 1825 531 
L 1825 4091 
L 703 3866 
L 703 4441 
L 1819 4666 
L 2450 4666 
L 2450 531 
L 3481 531 
L 3481 0 
L 794 0 
L 794 531 
z
" transform="scale(0.015625)"/>
        <path id="DejaVuSans-13" d="M 2034 4250 
Q 1547 4250 1301 3770 
Q 1056 3291 1056 2328 
Q 1056 1369 1301 889 
Q 1547 409 2034 409 
Q 2525 409 2770 889 
Q 3016 1369 3016 2328 
Q 3016 3291 2770 3770 
Q 2525 4250 2034 4250 
z
M 2034 4750 
Q 2819 4750 3233 4129 
Q 3647 3509 3647 2328 
Q 3647 1150 3233 529 
Q 2819 -91 2034 -91 
Q 1250 -91 836 529 
Q 422 1150 422 2328 
Q 422 3509 836 4129 
Q 1250 4750 2034 4750 
z
" transform="scale(0.015625)"/>
        <path id="DejaVuSans-3" transform="scale(0.015625)"/>
        <path id="DejaVuSans-50" d="M 3328 2828 
Q 3544 3216 3844 3400 
Q 4144 3584 4550 3584 
Q 5097 3584 5394 3201 
Q 5691 2819 5691 2113 
L 5691 0 
L 5113 0 
L 5113 2094 
Q 5113 2597 4934 2840 
Q 4756 3084 4391 3084 
Q 3944 3084 3684 2787 
Q 3425 2491 3425 1978 
L 3425 0 
L 2847 0 
L 2847 2094 
Q 2847 2600 2669 2842 
Q 2491 3084 2119 3084 
Q 1678 3084 1418 2786 
Q 1159 2488 1159 1978 
L 1159 0 
L 581 0 
L 581 3500 
L 1159 3500 
L 1159 2956 
Q 1356 3278 1631 3431 
Q 1906 3584 2284 3584 
Q 2666 3584 2933 3390 
Q 3200 3197 3328 2828 
z
" transform="scale(0.015625)"/>
        <path id="DejaVuSans-4c" d="M 603 3500 
L 1178 3500 
L 1178 0 
L 603 0 
L 603 3500 
z
M 603 4863 
L 1178 4863 
L 1178 4134 
L 603 4134 
L 603 4863 
z
" transform="scale(0.015625)"/>
        <path id="DejaVuSans-4f" d="M 603 4863 
L 1178 4863 
L 1178 0 
L 603 0 
L 603 4863 
z
" transform="scale(0.015625)"/>
       </defs>
       <use xlink:href="#DejaVuSans-14"/>
       <use xlink:href="#DejaVuSans-13" transform="translate(63.625 0)"/>
       <use xlink:href="#DejaVuSans-3" transform="translate(127.25 0)"/>
       <use xlink:href="#DejaVuSans-50" transform="translate(159.03125 0)"/>
       <use xlink:href="#DejaVuSans-4c" transform="translate(256.4375 0)"/>
       <use xlink:href="#DejaVuSans-4f" transform="translate(284.21875 0)"/>
      </g>
     </g>
    </g>
    <g id="xtick_2">
     <g id="line2d_3">
      <path d="M 198.397359 319.476484 
L 198.397359 105.04 
" clip-path="url(#pbf519d9b4f)" style="fill: none; stroke: #b0b0b0; stroke-opacity: 0.3; stroke-width: 0.8; stroke-linecap: square"/>
     </g>
     <g id="line2d_4">
      <g>
       <use xlink:href="#m18b91fce0e" x="198.397359" y="319.476484" style="stroke: #000000; stroke-width: 0.8"/>
      </g>
     </g>
     <g id="text_2">
      <!-- 12 mil -->
      <g transform="translate(174.997359 337.874141) scale(0.15 -0.15)">
       <defs>
        <path id="DejaVuSans-15" d="M 1228 531 
L 3431 531 
L 3431 0 
L 469 0 
L 469 531 
Q 828 903 1448 1529 
Q 2069 2156 2228 2338 
Q 2531 2678 2651 2914 
Q 2772 3150 2772 3378 
Q 2772 3750 2511 3984 
Q 2250 4219 1831 4219 
Q 1534 4219 1204 4116 
Q 875 4013 500 3803 
L 500 4441 
Q 881 4594 1212 4672 
Q 1544 4750 1819 4750 
Q 2544 4750 2975 4387 
Q 3406 4025 3406 3419 
Q 3406 3131 3298 2873 
Q 3191 2616 2906 2266 
Q 2828 2175 2409 1742 
Q 1991 1309 1228 531 
z
" transform="scale(0.015625)"/>
       </defs>
       <use xlink:href="#DejaVuSans-14"/>
       <use xlink:href="#DejaVuSans-15" transform="translate(63.625 0)"/>
       <use xlink:href="#DejaVuSans-3" transform="translate(127.25 0)"/>
       <use xlink:href="#DejaVuSans-50" transform="translate(159.03125 0)"/>
       <use xlink:href="#DejaVuSans-4c" transform="translate(256.4375 0)"/>
       <use xlink:href="#DejaVuSans-4f" transform="translate(284.21875 0)"/>
      </g>
     </g>
    </g>
    <g id="xtick_3">
     <g id="line2d_5">
      <path d="M 283.648759 319.476484 
L 283.648759 105.04 
" clip-path="url(#pbf519d9b4f)" style="fill: none; stroke: #b0b0b0; stroke-opacity: 0.3; stroke-width: 0.8; stroke-linecap: square"/>
     </g>
     <g id="line2d_6">
      <g>
       <use xlink:href="#m18b91fce0e" x="283.648759" y="319.476484" style="stroke: #000000; stroke-width: 0.8"/>
      </g>
     </g>
     <g id="text_3">
      <!-- 14 mil -->
      <g transform="translate(260.248759 337.874141) scale(0.15 -0.15)">
       <defs>
        <path id="DejaVuSans-17" d="M 2419 4116 
L 825 1625 
L 2419 1625 
L 2419 4116 
z
M 2253 4666 
L 3047 4666 
L 3047 1625 
L 3713 1625 
L 3713 1100 
L 3047 1100 
L 3047 0 
L 2419 0 
L 2419 1100 
L 313 1100 
L 313 1709 
L 2253 4666 
z
" transform="scale(0.015625)"/>
       </defs>
       <use xlink:href="#DejaVuSans-14"/>
       <use xlink:href="#DejaVuSans-17" transform="translate(63.625 0)"/>
       <use xlink:href="#DejaVuSans-3" transform="translate(127.25 0)"/>
       <use xlink:href="#DejaVuSans-50" transform="translate(159.03125 0)"/>
       <use xlink:href="#DejaVuSans-4c" transform="translate(256.4375 0)"/>
       <use xlink:href="#DejaVuSans-4f" transform="translate(284.21875 0)"/>
      </g>
     </g>
    </g>
    <g id="xtick_4">
     <g id="line2d_7">
      <path d="M 368.900159 319.476484 
L 368.900159 105.04 
" clip-path="url(#pbf519d9b4f)" style="fill: none; stroke: #b0b0b0; stroke-opacity: 0.3; stroke-width: 0.8; stroke-linecap: square"/>
     </g>
     <g id="line2d_8">
      <g>
       <use xlink:href="#m18b91fce0e" x="368.900159" y="319.476484" style="stroke: #000000; stroke-width: 0.8"/>
      </g>
     </g>
     <g id="text_4">
      <!-- 16 mil -->
      <g transform="translate(345.500159 337.874141) scale(0.15 -0.15)">
       <defs>
        <path id="DejaVuSans-19" d="M 2113 2584 
Q 1688 2584 1439 2293 
Q 1191 2003 1191 1497 
Q 1191 994 1439 701 
Q 1688 409 2113 409 
Q 2538 409 2786 701 
Q 3034 994 3034 1497 
Q 3034 2003 2786 2293 
Q 2538 2584 2113 2584 
z
M 3366 4563 
L 3366 3988 
Q 3128 4100 2886 4159 
Q 2644 4219 2406 4219 
Q 1781 4219 1451 3797 
Q 1122 3375 1075 2522 
Q 1259 2794 1537 2939 
Q 1816 3084 2150 3084 
Q 2853 3084 3261 2657 
Q 3669 2231 3669 1497 
Q 3669 778 3244 343 
Q 2819 -91 2113 -91 
Q 1303 -91 875 529 
Q 447 1150 447 2328 
Q 447 3434 972 4092 
Q 1497 4750 2381 4750 
Q 2619 4750 2861 4703 
Q 3103 4656 3366 4563 
z
" transform="scale(0.015625)"/>
       </defs>
       <use xlink:href="#DejaVuSans-14"/>
       <use xlink:href="#DejaVuSans-19" transform="translate(63.625 0)"/>
       <use xlink:href="#DejaVuSans-3" transform="translate(127.25 0)"/>
       <use xlink:href="#DejaVuSans-50" transform="translate(159.03125 0)"/>
       <use xlink:href="#DejaVuSans-4c" transform="translate(256.4375 0)"/>
       <use xlink:href="#DejaVuSans-4f" transform="translate(284.21875 0)"/>
      </g>
     </g>
    </g>
    <g id="xtick_5">
     <g id="line2d_9">
      <path d="M 454.151559 319.476484 
L 454.151559 105.04 
" clip-path="url(#pbf519d9b4f)" style="fill: none; stroke: #b0b0b0; stroke-opacity: 0.3; stroke-width: 0.8; stroke-linecap: square"/>
     </g>
     <g id="line2d_10">
      <g>
       <use xlink:href="#m18b91fce0e" x="454.151559" y="319.476484" style="stroke: #000000; stroke-width: 0.8"/>
      </g>
     </g>
     <g id="text_5">
      <!-- 18 mil -->
      <g transform="translate(430.751559 337.874141) scale(0.15 -0.15)">
       <defs>
        <path id="DejaVuSans-1b" d="M 2034 2216 
Q 1584 2216 1326 1975 
Q 1069 1734 1069 1313 
Q 1069 891 1326 650 
Q 1584 409 2034 409 
Q 2484 409 2743 651 
Q 3003 894 3003 1313 
Q 3003 1734 2745 1975 
Q 2488 2216 2034 2216 
z
M 1403 2484 
Q 997 2584 770 2862 
Q 544 3141 544 3541 
Q 544 4100 942 4425 
Q 1341 4750 2034 4750 
Q 2731 4750 3128 4425 
Q 3525 4100 3525 3541 
Q 3525 3141 3298 2862 
Q 3072 2584 2669 2484 
Q 3125 2378 3379 2068 
Q 3634 1759 3634 1313 
Q 3634 634 3220 271 
Q 2806 -91 2034 -91 
Q 1263 -91 848 271 
Q 434 634 434 1313 
Q 434 1759 690 2068 
Q 947 2378 1403 2484 
z
M 1172 3481 
Q 1172 3119 1398 2916 
Q 1625 2713 2034 2713 
Q 2441 2713 2670 2916 
Q 2900 3119 2900 3481 
Q 2900 3844 2670 4047 
Q 2441 4250 2034 4250 
Q 1625 4250 1398 4047 
Q 1172 3844 1172 3481 
z
" transform="scale(0.015625)"/>
       </defs>
       <use xlink:href="#DejaVuSans-14"/>
       <use xlink:href="#DejaVuSans-1b" transform="translate(63.625 0)"/>
       <use xlink:href="#DejaVuSans-3" transform="translate(127.25 0)"/>
       <use xlink:href="#DejaVuSans-50" transform="translate(159.03125 0)"/>
       <use xlink:href="#DejaVuSans-4c" transform="translate(256.4375 0)"/>
       <use xlink:href="#DejaVuSans-4f" transform="translate(284.21875 0)"/>
      </g>
     </g>
    </g>
    <g id="xtick_6">
     <g id="line2d_11">
      <path d="M 539.40296 319.476484 
L 539.40296 105.04 
" clip-path="url(#pbf519d9b4f)" style="fill: none; stroke: #b0b0b0; stroke-opacity: 0.3; stroke-width: 0.8; stroke-linecap: square"/>
     </g>
     <g id="line2d_12">
      <g>
       <use xlink:href="#m18b91fce0e" x="539.40296" y="319.476484" style="stroke: #000000; stroke-width: 0.8"/>
      </g>
     </g>
     <g id="text_6">
      <!-- 20 mil -->
      <g transform="translate(516.00296 337.874141) scale(0.15 -0.15)">
       <use xlink:href="#DejaVuSans-15"/>
       <use xlink:href="#DejaVuSans-13" transform="translate(63.625 0)"/>
       <use xlink:href="#DejaVuSans-3" transform="translate(127.25 0)"/>
       <use xlink:href="#DejaVuSans-50" transform="translate(159.03125 0)"/>
       <use xlink:href="#DejaVuSans-4c" transform="translate(256.4375 0)"/>
       <use xlink:href="#DejaVuSans-4f" transform="translate(284.21875 0)"/>
      </g>
     </g>
    </g>
    <g id="xtick_7">
     <g id="line2d_13">
      <path d="M 624.65436 319.476484 
L 624.65436 105.04 
" clip-path="url(#pbf519d9b4f)" style="fill: none; stroke: #b0b0b0; stroke-opacity: 0.3; stroke-width: 0.8; stroke-linecap: square"/>
     </g>
     <g id="line2d_14">
      <g>
       <use xlink:href="#m18b91fce0e" x="624.65436" y="319.476484" style="stroke: #000000; stroke-width: 0.8"/>
      </g>
     </g>
     <g id="text_7">
      <!-- 22 mil -->
      <g transform="translate(601.25436 337.874141) scale(0.15 -0.15)">
       <use xlink:href="#DejaVuSans-15"/>
       <use xlink:href="#DejaVuSans-15" transform="translate(63.625 0)"/>
       <use xlink:href="#DejaVuSans-3" transform="translate(127.25 0)"/>
       <use xlink:href="#DejaVuSans-50" transform="translate(159.03125 0)"/>
       <use xlink:href="#DejaVuSans-4c" transform="translate(256.4375 0)"/>
       <use xlink:href="#DejaVuSans-4f" transform="translate(284.21875 0)"/>
      </g>
     </g>
    </g>
    <g id="xtick_8">
     <g id="line2d_15">
      <path d="M 709.90576 319.476484 
L 709.90576 105.04 
" clip-path="url(#pbf519d9b4f)" style="fill: none; stroke: #b0b0b0; stroke-opacity: 0.3; stroke-width: 0.8; stroke-linecap: square"/>
     </g>
     <g id="line2d_16">
      <g>
       <use xlink:href="#m18b91fce0e" x="709.90576" y="319.476484" style="stroke: #000000; stroke-width: 0.8"/>
      </g>
     </g>
     <g id="text_8">
      <!-- 24 mil -->
      <g transform="translate(686.50576 337.874141) scale(0.15 -0.15)">
       <use xlink:href="#DejaVuSans-15"/>
       <use xlink:href="#DejaVuSans-17" transform="translate(63.625 0)"/>
       <use xlink:href="#DejaVuSans-3" transform="translate(127.25 0)"/>
       <use xlink:href="#DejaVuSans-50" transform="translate(159.03125 0)"/>
       <use xlink:href="#DejaVuSans-4c" transform="translate(256.4375 0)"/>
       <use xlink:href="#DejaVuSans-4f" transform="translate(284.21875 0)"/>
      </g>
     </g>
    </g>
    <g id="text_9">
     <!-- n -->
     <g transform="translate(405.822109 359.153437) scale(0.18 -0.18)">
      <defs>
       <path id="DejaVuSans-51" d="M 3513 2113 
L 3513 0 
L 2938 0 
L 2938 2094 
Q 2938 2591 2744 2837 
Q 2550 3084 2163 3084 
Q 1697 3084 1428 2787 
Q 1159 2491 1159 1978 
L 1159 0 
L 581 0 
L 581 3500 
L 1159 3500 
L 1159 2956 
Q 1366 3272 1645 3428 
Q 1925 3584 2291 3584 
Q 2894 3584 3203 3211 
Q 3513 2838 3513 2113 
z
" transform="scale(0.015625)"/>
      </defs>
      <use xlink:href="#DejaVuSans-51"/>
     </g>
    </g>
   </g>
   <g id="matplotlib.axis_2">
    <g id="ytick_1">
     <g id="line2d_17">
      <path d="M 83.307969 319.476484 
L 739.74375 319.476484 
" clip-path="url(#pbf519d9b4f)" style="fill: none; stroke: #b0b0b0; stroke-opacity: 0.3; stroke-width: 0.8; stroke-linecap: square"/>
     </g>
     <g id="line2d_18">
      <defs>
       <path id="me608567731" d="M 0 0 
L -3.5 0 
" style="stroke: #000000; stroke-width: 0.8"/>
      </defs>
      <g>
       <use xlink:href="#me608567731" x="83.307969" y="319.476484" style="stroke: #000000; stroke-width: 0.8"/>
      </g>
     </g>
     <g id="text_10">
      <!-- 0 -->
      <g transform="translate(66.764219 325.174727) scale(0.15 -0.15)">
       <use xlink:href="#DejaVuSans-13"/>
      </g>
     </g>
    </g>
    <g id="ytick_2">
     <g id="line2d_19">
      <path d="M 83.307969 285.901798 
L 739.74375 285.901798 
" clip-path="url(#pbf519d9b4f)" style="fill: none; stroke: #b0b0b0; stroke-opacity: 0.3; stroke-width: 0.8; stroke-linecap: square"/>
     </g>
     <g id="line2d_20">
      <g>
       <use xlink:href="#me608567731" x="83.307969" y="285.901798" style="stroke: #000000; stroke-width: 0.8"/>
      </g>
     </g>
     <g id="text_11">
      <!-- 2 mil -->
      <g transform="translate(39.051719 291.600626) scale(0.15 -0.15)">
       <use xlink:href="#DejaVuSans-15"/>
       <use xlink:href="#DejaVuSans-3" transform="translate(63.625 0)"/>
       <use xlink:href="#DejaVuSans-50" transform="translate(95.40625 0)"/>
       <use xlink:href="#DejaVuSans-4c" transform="translate(192.8125 0)"/>
       <use xlink:href="#DejaVuSans-4f" transform="translate(220.59375 0)"/>
      </g>
     </g>
    </g>
    <g id="ytick_3">
     <g id="line2d_21">
      <path d="M 83.307969 252.327112 
L 739.74375 252.327112 
" clip-path="url(#pbf519d9b4f)" style="fill: none; stroke: #b0b0b0; stroke-opacity: 0.3; stroke-width: 0.8; stroke-linecap: square"/>
     </g>
     <g id="line2d_22">
      <g>
       <use xlink:href="#me608567731" x="83.307969" y="252.327112" style="stroke: #000000; stroke-width: 0.8"/>
      </g>
     </g>
     <g id="text_12">
      <!-- 4 mil -->
      <g transform="translate(39.051719 258.02594) scale(0.15 -0.15)">
       <use xlink:href="#DejaVuSans-17"/>
       <use xlink:href="#DejaVuSans-3" transform="translate(63.625 0)"/>
       <use xlink:href="#DejaVuSans-50" transform="translate(95.40625 0)"/>
       <use xlink:href="#DejaVuSans-4c" transform="translate(192.8125 0)"/>
       <use xlink:href="#DejaVuSans-4f" transform="translate(220.59375 0)"/>
      </g>
     </g>
    </g>
    <g id="ytick_4">
     <g id="line2d_23">
      <path d="M 83.307969 218.752426 
L 739.74375 218.752426 
" clip-path="url(#pbf519d9b4f)" style="fill: none; stroke: #b0b0b0; stroke-opacity: 0.3; stroke-width: 0.8; stroke-linecap: square"/>
     </g>
     <g id="line2d_24">
      <g>
       <use xlink:href="#me608567731" x="83.307969" y="218.752426" style="stroke: #000000; stroke-width: 0.8"/>
      </g>
     </g>
     <g id="text_13">
      <!-- 6 mil -->
      <g transform="translate(39.051719 224.451254) scale(0.15 -0.15)">
       <use xlink:href="#DejaVuSans-19"/>
       <use xlink:href="#DejaVuSans-3" transform="translate(63.625 0)"/>
       <use xlink:href="#DejaVuSans-50" transform="translate(95.40625 0)"/>
       <use xlink:href="#DejaVuSans-4c" transform="translate(192.8125 0)"/>
       <use xlink:href="#DejaVuSans-4f" transform="translate(220.59375 0)"/>
      </g>
     </g>
    </g>
    <g id="ytick_5">
     <g id="line2d_25">
      <path d="M 83.307969 185.17774 
L 739.74375 185.17774 
" clip-path="url(#pbf519d9b4f)" style="fill: none; stroke: #b0b0b0; stroke-opacity: 0.3; stroke-width: 0.8; stroke-linecap: square"/>
     </g>
     <g id="line2d_26">
      <g>
       <use xlink:href="#me608567731" x="83.307969" y="185.17774" style="stroke: #000000; stroke-width: 0.8"/>
      </g>
     </g>
     <g id="text_14">
      <!-- 8 mil -->
      <g transform="translate(39.051719 190.876568) scale(0.15 -0.15)">
       <use xlink:href="#DejaVuSans-1b"/>
       <use xlink:href="#DejaVuSans-3" transform="translate(63.625 0)"/>
       <use xlink:href="#DejaVuSans-50" transform="translate(95.40625 0)"/>
       <use xlink:href="#DejaVuSans-4c" transform="translate(192.8125 0)"/>
       <use xlink:href="#DejaVuSans-4f" transform="translate(220.59375 0)"/>
      </g>
     </g>
    </g>
    <g id="ytick_6">
     <g id="line2d_27">
      <path d="M 83.307969 151.603054 
L 739.74375 151.603054 
" clip-path="url(#pbf519d9b4f)" style="fill: none; stroke: #b0b0b0; stroke-opacity: 0.3; stroke-width: 0.8; stroke-linecap: square"/>
     </g>
     <g id="line2d_28">
      <g>
       <use xlink:href="#me608567731" x="83.307969" y="151.603054" style="stroke: #000000; stroke-width: 0.8"/>
      </g>
     </g>
     <g id="text_15">
      <!-- 10 mil -->
      <g transform="translate(29.507969 157.301882) scale(0.15 -0.15)">
       <use xlink:href="#DejaVuSans-14"/>
       <use xlink:href="#DejaVuSans-13" transform="translate(63.625 0)"/>
       <use xlink:href="#DejaVuSans-3" transform="translate(127.25 0)"/>
       <use xlink:href="#DejaVuSans-50" transform="translate(159.03125 0)"/>
       <use xlink:href="#DejaVuSans-4c" transform="translate(256.4375 0)"/>
       <use xlink:href="#DejaVuSans-4f" transform="translate(284.21875 0)"/>
      </g>
     </g>
    </g>
    <g id="ytick_7">
     <g id="line2d_29">
      <path d="M 83.307969 118.028367 
L 739.74375 118.028367 
" clip-path="url(#pbf519d9b4f)" style="fill: none; stroke: #b0b0b0; stroke-opacity: 0.3; stroke-width: 0.8; stroke-linecap: square"/>
     </g>
     <g id="line2d_30">
      <g>
       <use xlink:href="#me608567731" x="83.307969" y="118.028367" style="stroke: #000000; stroke-width: 0.8"/>
      </g>
     </g>
     <g id="text_16">
      <!-- 12 mil -->
      <g transform="translate(29.507969 123.727195) scale(0.15 -0.15)">
       <use xlink:href="#DejaVuSans-14"/>
       <use xlink:href="#DejaVuSans-15" transform="translate(63.625 0)"/>
       <use xlink:href="#DejaVuSans-3" transform="translate(127.25 0)"/>
       <use xlink:href="#DejaVuSans-50" transform="translate(159.03125 0)"/>
       <use xlink:href="#DejaVuSans-4c" transform="translate(256.4375 0)"/>
       <use xlink:href="#DejaVuSans-4f" transform="translate(284.21875 0)"/>
      </g>
     </g>
    </g>
    <g id="text_17">
     <!-- Comparações -->
     <g transform="translate(21.18375 273.941992) rotate(-90) scale(0.18 -0.18)">
      <defs>
       <path id="DejaVuSans-26" d="M 4122 4306 
L 4122 3641 
Q 3803 3938 3442 4084 
Q 3081 4231 2675 4231 
Q 1875 4231 1450 3742 
Q 1025 3253 1025 2328 
Q 1025 1406 1450 917 
Q 1875 428 2675 428 
Q 3081 428 3442 575 
Q 3803 722 4122 1019 
L 4122 359 
Q 3791 134 3420 21 
Q 3050 -91 2638 -91 
Q 1578 -91 968 557 
Q 359 1206 359 2328 
Q 359 3453 968 4101 
Q 1578 4750 2638 4750 
Q 3056 4750 3426 4639 
Q 3797 4528 4122 4306 
z
" transform="scale(0.015625)"/>
       <path id="DejaVuSans-52" d="M 1959 3097 
Q 1497 3097 1228 2736 
Q 959 2375 959 1747 
Q 959 1119 1226 758 
Q 1494 397 1959 397 
Q 2419 397 2687 759 
Q 2956 1122 2956 1747 
Q 2956 2369 2687 2733 
Q 2419 3097 1959 3097 
z
M 1959 3584 
Q 2709 3584 3137 3096 
Q 3566 2609 3566 1747 
Q 3566 888 3137 398 
Q 2709 -91 1959 -91 
Q 1206 -91 779 398 
Q 353 888 353 1747 
Q 353 2609 779 3096 
Q 1206 3584 1959 3584 
z
" transform="scale(0.015625)"/>
       <path id="DejaVuSans-53" d="M 1159 525 
L 1159 -1331 
L 581 -1331 
L 581 3500 
L 1159 3500 
L 1159 2969 
Q 1341 3281 1617 3432 
Q 1894 3584 2278 3584 
Q 2916 3584 3314 3078 
Q 3713 2572 3713 1747 
Q 3713 922 3314 415 
Q 2916 -91 2278 -91 
Q 1894 -91 1617 61 
Q 1341 213 1159 525 
z
M 3116 1747 
Q 3116 2381 2855 2742 
Q 2594 3103 2138 3103 
Q 1681 3103 1420 2742 
Q 1159 2381 1159 1747 
Q 1159 1113 1420 752 
Q 1681 391 2138 391 
Q 2594 391 2855 752 
Q 3116 1113 3116 1747 
z
" transform="scale(0.015625)"/>
       <path id="DejaVuSans-44" d="M 2194 1759 
Q 1497 1759 1228 1600 
Q 959 1441 959 1056 
Q 959 750 1161 570 
Q 1363 391 1709 391 
Q 2188 391 2477 730 
Q 2766 1069 2766 1631 
L 2766 1759 
L 2194 1759 
z
M 3341 1997 
L 3341 0 
L 2766 0 
L 2766 531 
Q 2569 213 2275 61 
Q 1981 -91 1556 -91 
Q 1019 -91 701 211 
Q 384 513 384 1019 
Q 384 1609 779 1909 
Q 1175 2209 1959 2209 
L 2766 2209 
L 2766 2266 
Q 2766 2663 2505 2880 
Q 2244 3097 1772 3097 
Q 1472 3097 1187 3025 
Q 903 2953 641 2809 
L 641 3341 
Q 956 3463 1253 3523 
Q 1550 3584 1831 3584 
Q 2591 3584 2966 3190 
Q 3341 2797 3341 1997 
z
" transform="scale(0.015625)"/>
       <path id="DejaVuSans-55" d="M 2631 2963 
Q 2534 3019 2420 3045 
Q 2306 3072 2169 3072 
Q 1681 3072 1420 2755 
Q 1159 2438 1159 1844 
L 1159 0 
L 581 0 
L 581 3500 
L 1159 3500 
L 1159 2956 
Q 1341 3275 1631 3429 
Q 1922 3584 2338 3584 
Q 2397 3584 2469 3576 
Q 2541 3569 2628 3553 
L 2631 2963 
z
" transform="scale(0.015625)"/>
       <path id="DejaVuSans-a9" d="M 3122 3366 
L 3122 2828 
Q 2878 2963 2633 3030 
Q 2388 3097 2138 3097 
Q 1578 3097 1268 2742 
Q 959 2388 959 1747 
Q 959 1106 1268 751 
Q 1578 397 2138 397 
Q 2388 397 2633 464 
Q 2878 531 3122 666 
L 3122 134 
Q 2881 22 2623 -34 
Q 2366 -91 2075 -91 
Q 1284 -91 818 406 
Q 353 903 353 1747 
Q 353 2603 823 3093 
Q 1294 3584 2113 3584 
Q 2378 3584 2631 3529 
Q 2884 3475 3122 3366 
z
M 2310 0 
Q 2481 -194 2565 -358 
Q 2650 -522 2650 -672 
Q 2650 -950 2462 -1092 
Q 2275 -1234 1906 -1234 
Q 1763 -1234 1627 -1215 
Q 1491 -1197 1356 -1159 
L 1356 -750 
Q 1463 -803 1578 -826 
Q 1694 -850 1841 -850 
Q 2025 -850 2119 -775 
Q 2213 -700 2213 -556 
Q 2213 -463 2145 -327 
Q 2078 -191 1938 0 
L 2310 0 
z
" transform="scale(0.015625)"/>
       <path id="DejaVuSans-b7" d="M 1959 3097 
Q 1497 3097 1228 2736 
Q 959 2375 959 1747 
Q 959 1119 1226 758 
Q 1494 397 1959 397 
Q 2419 397 2687 759 
Q 2956 1122 2956 1747 
Q 2956 2369 2687 2733 
Q 2419 3097 1959 3097 
z
M 1959 3584 
Q 2709 3584 3137 3096 
Q 3566 2609 3566 1747 
Q 3566 888 3137 398 
Q 2709 -91 1959 -91 
Q 1206 -91 779 398 
Q 353 888 353 1747 
Q 353 2609 779 3096 
Q 1206 3584 1959 3584 
z
M 1947 4281 
L 1768 4453 
Q 1700 4516 1648 4545 
Q 1597 4575 1556 4575 
Q 1437 4575 1381 4461 
Q 1325 4347 1318 4091 
L 928 4091 
Q 934 4513 1093 4742 
Q 1253 4972 1537 4972 
Q 1656 4972 1756 4928 
Q 1856 4884 1972 4781 
L 2150 4609 
Q 2218 4547 2270 4517 
Q 2322 4488 2362 4488 
Q 2481 4488 2537 4602 
Q 2593 4716 2600 4972 
L 2990 4972 
Q 2984 4550 2824 4320 
Q 2665 4091 2381 4091 
Q 2262 4091 2162 4134 
Q 2062 4178 1947 4281 
z
" transform="scale(0.015625)"/>
       <path id="DejaVuSans-48" d="M 3597 1894 
L 3597 1613 
L 953 1613 
Q 991 1019 1311 708 
Q 1631 397 2203 397 
Q 2534 397 2845 478 
Q 3156 559 3463 722 
L 3463 178 
Q 3153 47 2828 -22 
Q 2503 -91 2169 -91 
Q 1331 -91 842 396 
Q 353 884 353 1716 
Q 353 2575 817 3079 
Q 1281 3584 2069 3584 
Q 2775 3584 3186 3129 
Q 3597 2675 3597 1894 
z
M 3022 2063 
Q 3016 2534 2758 2815 
Q 2500 3097 2075 3097 
Q 1594 3097 1305 2825 
Q 1016 2553 972 2059 
L 3022 2063 
z
" transform="scale(0.015625)"/>
       <path id="DejaVuSans-56" d="M 2834 3397 
L 2834 2853 
Q 2591 2978 2328 3040 
Q 2066 3103 1784 3103 
Q 1356 3103 1142 2972 
Q 928 2841 928 2578 
Q 928 2378 1081 2264 
Q 1234 2150 1697 2047 
L 1894 2003 
Q 2506 1872 2764 1633 
Q 3022 1394 3022 966 
Q 3022 478 2636 193 
Q 2250 -91 1575 -91 
Q 1294 -91 989 -36 
Q 684 19 347 128 
L 347 722 
Q 666 556 975 473 
Q 1284 391 1588 391 
Q 1994 391 2212 530 
Q 2431 669 2431 922 
Q 2431 1156 2273 1281 
Q 2116 1406 1581 1522 
L 1381 1569 
Q 847 1681 609 1914 
Q 372 2147 372 2553 
Q 372 3047 722 3315 
Q 1072 3584 1716 3584 
Q 2034 3584 2315 3537 
Q 2597 3491 2834 3397 
z
" transform="scale(0.015625)"/>
      </defs>
      <use xlink:href="#DejaVuSans-26"/>
      <use xlink:href="#DejaVuSans-52" transform="translate(69.828125 0)"/>
      <use xlink:href="#DejaVuSans-50" transform="translate(131.015625 0)"/>
      <use xlink:href="#DejaVuSans-53" transform="translate(228.421875 0)"/>
      <use xlink:href="#DejaVuSans-44" transform="translate(291.90625 0)"/>
      <use xlink:href="#DejaVuSans-55" transform="translate(353.1875 0)"/>
      <use xlink:href="#DejaVuSans-44" transform="translate(394.296875 0)"/>
      <use xlink:href="#DejaVuSans-a9" transform="translate(455.578125 0)"/>
      <use xlink:href="#DejaVuSans-b7" transform="translate(510.5625 0)"/>
      <use xlink:href="#DejaVuSans-48" transform="translate(571.75 0)"/>
      <use xlink:href="#DejaVuSans-56" transform="translate(633.28125 0)"/>
     </g>
    </g>
   </g>
   <g id="line2d_31">
    <path d="M 113.145959 319.275036 
L 539.40296 319.258249 
" clip-path="url(#pbf519d9b4f)" style="fill: none; stroke: #ffa500; stroke-width: 2.5; stroke-linecap: square"/>
    <defs>
     <path id="m5614891a56" d="M 0 1.25 
C 0.331504 1.25 0.649475 1.118292 0.883883 0.883883 
C 1.118292 0.649475 1.25 0.331504 1.25 0 
C 1.25 -0.331504 1.118292 -0.649475 0.883883 -0.883883 
C 0.649475 -1.118292 0.331504 -1.25 0 -1.25 
C -0.331504 -1.25 -0.649475 -1.118292 -0.883883 -0.883883 
C -1.118292 -0.649475 -1.25 -0.331504 -1.25 0 
C -1.25 0.331504 -1.118292 0.649475 -0.883883 0.883883 
C -0.649475 1.118292 -0.331504 1.25 0 1.25 
z
" style="stroke: #ffa500"/>
    </defs>
    <g clip-path="url(#pbf519d9b4f)">
     <use xlink:href="#m5614891a56" x="113.145959" y="319.275036" style="fill: #ffa500; stroke: #ffa500"/>
     <use xlink:href="#m5614891a56" x="539.40296" y="319.258249" style="fill: #ffa500; stroke: #ffa500"/>
    </g>
   </g>
   <g id="line2d_32">
    <path d="M 113.145959 234.347868 
L 539.40296 153.735046 
L 582.02866 141.480286 
L 624.65436 131.961862 
L 667.28006 126.35489 
L 709.90576 115.241668 
" clip-path="url(#pbf519d9b4f)" style="fill: none; stroke: #800080; stroke-width: 2.5; stroke-linecap: square"/>
    <defs>
     <path id="ma0e64f211c" d="M 0 1.25 
C 0.331504 1.25 0.649475 1.118292 0.883883 0.883883 
C 1.118292 0.649475 1.25 0.331504 1.25 0 
C 1.25 -0.331504 1.118292 -0.649475 0.883883 -0.883883 
C 0.649475 -1.118292 0.331504 -1.25 0 -1.25 
C -0.331504 -1.25 -0.649475 -1.118292 -0.883883 -0.883883 
C -1.118292 -0.649475 -1.25 -0.331504 -1.25 0 
C -1.25 0.331504 -1.118292 0.649475 -0.883883 0.883883 
C -0.649475 1.118292 -0.331504 1.25 0 1.25 
z
" style="stroke: #800080"/>
    </defs>
    <g clip-path="url(#pbf519d9b4f)">
     <use xlink:href="#ma0e64f211c" x="113.145959" y="234.347868" style="fill: #800080; stroke: #800080"/>
     <use xlink:href="#ma0e64f211c" x="539.40296" y="153.735046" style="fill: #800080; stroke: #800080"/>
     <use xlink:href="#ma0e64f211c" x="582.02866" y="141.480286" style="fill: #800080; stroke: #800080"/>
     <use xlink:href="#ma0e64f211c" x="624.65436" y="131.961862" style="fill: #800080; stroke: #800080"/>
     <use xlink:href="#ma0e64f211c" x="667.28006" y="126.35489" style="fill: #800080; stroke: #800080"/>
     <use xlink:href="#ma0e64f211c" x="709.90576" y="115.241668" style="fill: #800080; stroke: #800080"/>
    </g>
   </g>
   <g id="line2d_33">
    <path d="M 113.145959 236.73167 
L 539.40296 149.471061 
L 582.02866 144.938478 
L 624.65436 137.669559 
L 667.28006 126.489188 
L 709.90576 120.815066 
" clip-path="url(#pbf519d9b4f)" style="fill: none; stroke: #a52a2a; stroke-width: 2.5; stroke-linecap: square"/>
    <defs>
     <path id="m97eee31d2c" d="M 0 1.25 
C 0.331504 1.25 0.649475 1.118292 0.883883 0.883883 
C 1.118292 0.649475 1.25 0.331504 1.25 0 
C 1.25 -0.331504 1.118292 -0.649475 0.883883 -0.883883 
C 0.649475 -1.118292 0.331504 -1.25 0 -1.25 
C -0.331504 -1.25 -0.649475 -1.118292 -0.883883 -0.883883 
C -1.118292 -0.649475 -1.25 -0.331504 -1.25 0 
C -1.25 0.331504 -1.118292 0.649475 -0.883883 0.883883 
C -0.649475 1.118292 -0.331504 1.25 0 1.25 
z
" style="stroke: #a52a2a"/>
    </defs>
    <g clip-path="url(#pbf519d9b4f)">
     <use xlink:href="#m97eee31d2c" x="113.145959" y="236.73167" style="fill: #a52a2a; stroke: #a52a2a"/>
     <use xlink:href="#m97eee31d2c" x="539.40296" y="149.471061" style="fill: #a52a2a; stroke: #a52a2a"/>
     <use xlink:href="#m97eee31d2c" x="582.02866" y="144.938478" style="fill: #a52a2a; stroke: #a52a2a"/>
     <use xlink:href="#m97eee31d2c" x="624.65436" y="137.669559" style="fill: #a52a2a; stroke: #a52a2a"/>
     <use xlink:href="#m97eee31d2c" x="667.28006" y="126.489188" style="fill: #a52a2a; stroke: #a52a2a"/>
     <use xlink:href="#m97eee31d2c" x="709.90576" y="120.815066" style="fill: #a52a2a; stroke: #a52a2a"/>
    </g>
   </g>
   <g id="patch_3">
    <path d="M 83.307969 319.476484 
L 83.307969 105.04 
" style="fill: none; stroke: #000000; stroke-width: 0.8; stroke-linejoin: miter; stroke-linecap: square"/>
   </g>
   <g id="patch_4">
    <path d="M 739.74375 319.476484 
L 739.74375 105.04 
" style="fill: none; stroke: #000000; stroke-width: 0.8; stroke-linejoin: miter; stroke-linecap: square"/>
   </g>
   <g id="patch_5">
    <path d="M 83.307969 319.476484 
L 739.74375 319.476484 
" style="fill: none; stroke: #000000; stroke-width: 0.8; stroke-linejoin: miter; stroke-linecap: square"/>
   </g>
   <g id="patch_6">
    <path d="M 83.307969 105.04 
L 739.74375 105.04 
" style="fill: none; stroke: #000000; stroke-width: 0.8; stroke-linejoin: miter; stroke-linecap: square"/>
   </g>
   <g id="text_18">
    <!-- Comparações -->
    <g transform="translate(349.842109 99.04) scale(0.18 -0.18)">
     <use xlink:href="#DejaVuSans-26"/>
     <use xlink:href="#DejaVuSans-52" transform="translate(69.828125 0)"/>
     <use xlink:href="#DejaVuSans-50" transform="translate(131.015625 0)"/>
     <use xlink:href="#DejaVuSans-53" transform="translate(228.421875 0)"/>
     <use xlink:href="#DejaVuSans-44" transform="translate(291.90625 0)"/>
     <use xlink:href="#DejaVuSans-55" transform="translate(353.1875 0)"/>
     <use xlink:href="#DejaVuSans-44" transform="translate(394.296875 0)"/>
     <use xlink:href="#DejaVuSans-a9" transform="translate(455.578125 0)"/>
     <use xlink:href="#DejaVuSans-b7" transform="translate(510.5625 0)"/>
     <use xlink:href="#DejaVuSans-48" transform="translate(571.75 0)"/>
     <use xlink:href="#DejaVuSans-56" transform="translate(633.28125 0)"/>
    </g>
   </g>
  </g>
  <g id="axes_2">
   <g id="patch_7">
    <path d="M 798.267969 319.476484 
L 1454.70375 319.476484 
L 1454.70375 105.04 
L 798.267969 105.04 
z
" style="fill: #ffffff"/>
   </g>
   <g id="matplotlib.axis_3">
    <g id="xtick_9">
     <g id="line2d_34">
      <path d="M 828.105959 319.476484 
L 828.105959 105.04 
" clip-path="url(#pd44c535481)" style="fill: none; stroke: #b0b0b0; stroke-opacity: 0.3; stroke-width: 0.8; stroke-linecap: square"/>
     </g>
     <g id="line2d_35">
      <g>
       <use xlink:href="#m18b91fce0e" x="828.105959" y="319.476484" style="stroke: #000000; stroke-width: 0.8"/>
      </g>
     </g>
     <g id="text_19">
      <!-- 10 mil -->
      <g transform="translate(804.705959 337.874141) scale(0.15 -0.15)">
       <use xlink:href="#DejaVuSans-14"/>
       <use xlink:href="#DejaVuSans-13" transform="translate(63.625 0)"/>
       <use xlink:href="#DejaVuSans-3" transform="translate(127.25 0)"/>
       <use xlink:href="#DejaVuSans-50" transform="translate(159.03125 0)"/>
       <use xlink:href="#DejaVuSans-4c" transform="translate(256.4375 0)"/>
       <use xlink:href="#DejaVuSans-4f" transform="translate(284.21875 0)"/>
      </g>
     </g>
    </g>
    <g id="xtick_10">
     <g id="line2d_36">
      <path d="M 913.357359 319.476484 
L 913.357359 105.04 
" clip-path="url(#pd44c535481)" style="fill: none; stroke: #b0b0b0; stroke-opacity: 0.3; stroke-width: 0.8; stroke-linecap: square"/>
     </g>
     <g id="line2d_37">
      <g>
       <use xlink:href="#m18b91fce0e" x="913.357359" y="319.476484" style="stroke: #000000; stroke-width: 0.8"/>
      </g>
     </g>
     <g id="text_20">
      <!-- 12 mil -->
      <g transform="translate(889.957359 337.874141) scale(0.15 -0.15)">
       <use xlink:href="#DejaVuSans-14"/>
       <use xlink:href="#DejaVuSans-15" transform="translate(63.625 0)"/>
       <use xlink:href="#DejaVuSans-3" transform="translate(127.25 0)"/>
       <use xlink:href="#DejaVuSans-50" transform="translate(159.03125 0)"/>
       <use xlink:href="#DejaVuSans-4c" transform="translate(256.4375 0)"/>
       <use xlink:href="#DejaVuSans-4f" transform="translate(284.21875 0)"/>
      </g>
     </g>
    </g>
    <g id="xtick_11">
     <g id="line2d_38">
      <path d="M 998.608759 319.476484 
L 998.608759 105.04 
" clip-path="url(#pd44c535481)" style="fill: none; stroke: #b0b0b0; stroke-opacity: 0.3; stroke-width: 0.8; stroke-linecap: square"/>
     </g>
     <g id="line2d_39">
      <g>
       <use xlink:href="#m18b91fce0e" x="998.608759" y="319.476484" style="stroke: #000000; stroke-width: 0.8"/>
      </g>
     </g>
     <g id="text_21">
      <!-- 14 mil -->
      <g transform="translate(975.208759 337.874141) scale(0.15 -0.15)">
       <use xlink:href="#DejaVuSans-14"/>
       <use xlink:href="#DejaVuSans-17" transform="translate(63.625 0)"/>
       <use xlink:href="#DejaVuSans-3" transform="translate(127.25 0)"/>
       <use xlink:href="#DejaVuSans-50" transform="translate(159.03125 0)"/>
       <use xlink:href="#DejaVuSans-4c" transform="translate(256.4375 0)"/>
       <use xlink:href="#DejaVuSans-4f" transform="translate(284.21875 0)"/>
      </g>
     </g>
    </g>
    <g id="xtick_12">
     <g id="line2d_40">
      <path d="M 1083.860159 319.476484 
L 1083.860159 105.04 
" clip-path="url(#pd44c535481)" style="fill: none; stroke: #b0b0b0; stroke-opacity: 0.3; stroke-width: 0.8; stroke-linecap: square"/>
     </g>
     <g id="line2d_41">
      <g>
       <use xlink:href="#m18b91fce0e" x="1083.860159" y="319.476484" style="stroke: #000000; stroke-width: 0.8"/>
      </g>
     </g>
     <g id="text_22">
      <!-- 16 mil -->
      <g transform="translate(1060.460159 337.874141) scale(0.15 -0.15)">
       <use xlink:href="#DejaVuSans-14"/>
       <use xlink:href="#DejaVuSans-19" transform="translate(63.625 0)"/>
       <use xlink:href="#DejaVuSans-3" transform="translate(127.25 0)"/>
       <use xlink:href="#DejaVuSans-50" transform="translate(159.03125 0)"/>
       <use xlink:href="#DejaVuSans-4c" transform="translate(256.4375 0)"/>
       <use xlink:href="#DejaVuSans-4f" transform="translate(284.21875 0)"/>
      </g>
     </g>
    </g>
    <g id="xtick_13">
     <g id="line2d_42">
      <path d="M 1169.111559 319.476484 
L 1169.111559 105.04 
" clip-path="url(#pd44c535481)" style="fill: none; stroke: #b0b0b0; stroke-opacity: 0.3; stroke-width: 0.8; stroke-linecap: square"/>
     </g>
     <g id="line2d_43">
      <g>
       <use xlink:href="#m18b91fce0e" x="1169.111559" y="319.476484" style="stroke: #000000; stroke-width: 0.8"/>
      </g>
     </g>
     <g id="text_23">
      <!-- 18 mil -->
      <g transform="translate(1145.711559 337.874141) scale(0.15 -0.15)">
       <use xlink:href="#DejaVuSans-14"/>
       <use xlink:href="#DejaVuSans-1b" transform="translate(63.625 0)"/>
       <use xlink:href="#DejaVuSans-3" transform="translate(127.25 0)"/>
       <use xlink:href="#DejaVuSans-50" transform="translate(159.03125 0)"/>
       <use xlink:href="#DejaVuSans-4c" transform="translate(256.4375 0)"/>
       <use xlink:href="#DejaVuSans-4f" transform="translate(284.21875 0)"/>
      </g>
     </g>
    </g>
    <g id="xtick_14">
     <g id="line2d_44">
      <path d="M 1254.36296 319.476484 
L 1254.36296 105.04 
" clip-path="url(#pd44c535481)" style="fill: none; stroke: #b0b0b0; stroke-opacity: 0.3; stroke-width: 0.8; stroke-linecap: square"/>
     </g>
     <g id="line2d_45">
      <g>
       <use xlink:href="#m18b91fce0e" x="1254.36296" y="319.476484" style="stroke: #000000; stroke-width: 0.8"/>
      </g>
     </g>
     <g id="text_24">
      <!-- 20 mil -->
      <g transform="translate(1230.96296 337.874141) scale(0.15 -0.15)">
       <use xlink:href="#DejaVuSans-15"/>
       <use xlink:href="#DejaVuSans-13" transform="translate(63.625 0)"/>
       <use xlink:href="#DejaVuSans-3" transform="translate(127.25 0)"/>
       <use xlink:href="#DejaVuSans-50" transform="translate(159.03125 0)"/>
       <use xlink:href="#DejaVuSans-4c" transform="translate(256.4375 0)"/>
       <use xlink:href="#DejaVuSans-4f" transform="translate(284.21875 0)"/>
      </g>
     </g>
    </g>
    <g id="xtick_15">
     <g id="line2d_46">
      <path d="M 1339.61436 319.476484 
L 1339.61436 105.04 
" clip-path="url(#pd44c535481)" style="fill: none; stroke: #b0b0b0; stroke-opacity: 0.3; stroke-width: 0.8; stroke-linecap: square"/>
     </g>
     <g id="line2d_47">
      <g>
       <use xlink:href="#m18b91fce0e" x="1339.61436" y="319.476484" style="stroke: #000000; stroke-width: 0.8"/>
      </g>
     </g>
     <g id="text_25">
      <!-- 22 mil -->
      <g transform="translate(1316.21436 337.874141) scale(0.15 -0.15)">
       <use xlink:href="#DejaVuSans-15"/>
       <use xlink:href="#DejaVuSans-15" transform="translate(63.625 0)"/>
       <use xlink:href="#DejaVuSans-3" transform="translate(127.25 0)"/>
       <use xlink:href="#DejaVuSans-50" transform="translate(159.03125 0)"/>
       <use xlink:href="#DejaVuSans-4c" transform="translate(256.4375 0)"/>
       <use xlink:href="#DejaVuSans-4f" transform="translate(284.21875 0)"/>
      </g>
     </g>
    </g>
    <g id="xtick_16">
     <g id="line2d_48">
      <path d="M 1424.86576 319.476484 
L 1424.86576 105.04 
" clip-path="url(#pd44c535481)" style="fill: none; stroke: #b0b0b0; stroke-opacity: 0.3; stroke-width: 0.8; stroke-linecap: square"/>
     </g>
     <g id="line2d_49">
      <g>
       <use xlink:href="#m18b91fce0e" x="1424.86576" y="319.476484" style="stroke: #000000; stroke-width: 0.8"/>
      </g>
     </g>
     <g id="text_26">
      <!-- 24 mil -->
      <g transform="translate(1401.46576 337.874141) scale(0.15 -0.15)">
       <use xlink:href="#DejaVuSans-15"/>
       <use xlink:href="#DejaVuSans-17" transform="translate(63.625 0)"/>
       <use xlink:href="#DejaVuSans-3" transform="translate(127.25 0)"/>
       <use xlink:href="#DejaVuSans-50" transform="translate(159.03125 0)"/>
       <use xlink:href="#DejaVuSans-4c" transform="translate(256.4375 0)"/>
       <use xlink:href="#DejaVuSans-4f" transform="translate(284.21875 0)"/>
      </g>
     </g>
    </g>
    <g id="text_27">
     <!-- n -->
     <g transform="translate(1120.782109 359.153437) scale(0.18 -0.18)">
      <use xlink:href="#DejaVuSans-51"/>
     </g>
    </g>
   </g>
   <g id="matplotlib.axis_4">
    <g id="ytick_8">
     <g id="line2d_50">
      <path d="M 798.267969 319.476484 
L 1454.70375 319.476484 
" clip-path="url(#pd44c535481)" style="fill: none; stroke: #b0b0b0; stroke-opacity: 0.3; stroke-width: 0.8; stroke-linecap: square"/>
     </g>
     <g id="line2d_51">
      <g>
       <use xlink:href="#me608567731" x="798.267969" y="319.476484" style="stroke: #000000; stroke-width: 0.8"/>
      </g>
     </g>
     <g id="text_28">
      <!-- 0 -->
      <g transform="translate(781.724219 325.174727) scale(0.15 -0.15)">
       <use xlink:href="#DejaVuSans-13"/>
      </g>
     </g>
    </g>
    <g id="ytick_9">
     <g id="line2d_52">
      <path d="M 798.267969 273.447169 
L 1454.70375 273.447169 
" clip-path="url(#pd44c535481)" style="fill: none; stroke: #b0b0b0; stroke-opacity: 0.3; stroke-width: 0.8; stroke-linecap: square"/>
     </g>
     <g id="line2d_53">
      <g>
       <use xlink:href="#me608567731" x="798.267969" y="273.447169" style="stroke: #000000; stroke-width: 0.8"/>
      </g>
     </g>
     <g id="text_29">
      <!-- 20 -->
      <g transform="translate(772.180469 279.145411) scale(0.15 -0.15)">
       <use xlink:href="#DejaVuSans-15"/>
       <use xlink:href="#DejaVuSans-13" transform="translate(63.625 0)"/>
      </g>
     </g>
    </g>
    <g id="ytick_10">
     <g id="line2d_54">
      <path d="M 798.267969 227.417853 
L 1454.70375 227.417853 
" clip-path="url(#pd44c535481)" style="fill: none; stroke: #b0b0b0; stroke-opacity: 0.3; stroke-width: 0.8; stroke-linecap: square"/>
     </g>
     <g id="line2d_55">
      <g>
       <use xlink:href="#me608567731" x="798.267969" y="227.417853" style="stroke: #000000; stroke-width: 0.8"/>
      </g>
     </g>
     <g id="text_30">
      <!-- 40 -->
      <g transform="translate(772.180469 233.116096) scale(0.15 -0.15)">
       <use xlink:href="#DejaVuSans-17"/>
       <use xlink:href="#DejaVuSans-13" transform="translate(63.625 0)"/>
      </g>
     </g>
    </g>
    <g id="ytick_11">
     <g id="line2d_56">
      <path d="M 798.267969 181.388538 
L 1454.70375 181.388538 
" clip-path="url(#pd44c535481)" style="fill: none; stroke: #b0b0b0; stroke-opacity: 0.3; stroke-width: 0.8; stroke-linecap: square"/>
     </g>
     <g id="line2d_57">
      <g>
       <use xlink:href="#me608567731" x="798.267969" y="181.388538" style="stroke: #000000; stroke-width: 0.8"/>
      </g>
     </g>
     <g id="text_31">
      <!-- 60 -->
      <g transform="translate(772.180469 187.08678) scale(0.15 -0.15)">
       <use xlink:href="#DejaVuSans-19"/>
       <use xlink:href="#DejaVuSans-13" transform="translate(63.625 0)"/>
      </g>
     </g>
    </g>
    <g id="ytick_12">
     <g id="line2d_58">
      <path d="M 798.267969 135.359222 
L 1454.70375 135.359222 
" clip-path="url(#pd44c535481)" style="fill: none; stroke: #b0b0b0; stroke-opacity: 0.3; stroke-width: 0.8; stroke-linecap: square"/>
     </g>
     <g id="line2d_59">
      <g>
       <use xlink:href="#me608567731" x="798.267969" y="135.359222" style="stroke: #000000; stroke-width: 0.8"/>
      </g>
     </g>
     <g id="text_32">
      <!-- 80 -->
      <g transform="translate(772.180469 141.057465) scale(0.15 -0.15)">
       <use xlink:href="#DejaVuSans-1b"/>
       <use xlink:href="#DejaVuSans-13" transform="translate(63.625 0)"/>
      </g>
     </g>
    </g>
    <g id="text_33">
     <!-- Tempo (µs) -->
     <g transform="translate(763.85625 262.049336) rotate(-90) scale(0.18 -0.18)">
      <defs>
       <path id="DejaVuSans-37" d="M -19 4666 
L 3928 4666 
L 3928 4134 
L 2272 4134 
L 2272 0 
L 1638 0 
L 1638 4134 
L -19 4134 
L -19 4666 
z
" transform="scale(0.015625)"/>
       <path id="DejaVuSans-b" d="M 1984 4856 
Q 1566 4138 1362 3434 
Q 1159 2731 1159 2009 
Q 1159 1288 1364 580 
Q 1569 -128 1984 -844 
L 1484 -844 
Q 1016 -109 783 600 
Q 550 1309 550 2009 
Q 550 2706 781 3412 
Q 1013 4119 1484 4856 
L 1984 4856 
z
" transform="scale(0.015625)"/>
       <path id="DejaVuSans-77" d="M 544 -1331 
L 544 3500 
L 1119 3500 
L 1119 1325 
Q 1119 872 1334 640 
Q 1550 409 1972 409 
Q 2434 409 2667 671 
Q 2900 934 2900 1459 
L 2900 3500 
L 3475 3500 
L 3475 806 
Q 3475 619 3529 530 
Q 3584 441 3700 441 
Q 3728 441 3778 458 
Q 3828 475 3916 513 
L 3916 50 
Q 3788 -22 3673 -56 
Q 3559 -91 3450 -91 
Q 3234 -91 3106 31 
Q 2978 153 2931 403 
Q 2775 156 2548 32 
Q 2322 -91 2016 -91 
Q 1697 -91 1473 31 
Q 1250 153 1119 397 
L 1119 -1331 
L 544 -1331 
z
" transform="scale(0.015625)"/>
       <path id="DejaVuSans-c" d="M 513 4856 
L 1013 4856 
Q 1481 4119 1714 3412 
Q 1947 2706 1947 2009 
Q 1947 1309 1714 600 
Q 1481 -109 1013 -844 
L 513 -844 
Q 928 -128 1133 580 
Q 1338 1288 1338 2009 
Q 1338 2731 1133 3434 
Q 928 4138 513 4856 
z
" transform="scale(0.015625)"/>
      </defs>
      <use xlink:href="#DejaVuSans-37"/>
      <use xlink:href="#DejaVuSans-48" transform="translate(44.09375 0)"/>
      <use xlink:href="#DejaVuSans-50" transform="translate(105.625 0)"/>
      <use xlink:href="#DejaVuSans-53" transform="translate(203.03125 0)"/>
      <use xlink:href="#DejaVuSans-52" transform="translate(266.515625 0)"/>
      <use xlink:href="#DejaVuSans-3" transform="translate(327.703125 0)"/>
      <use xlink:href="#DejaVuSans-b" transform="translate(359.484375 0)"/>
      <use xlink:href="#DejaVuSans-77" transform="translate(398.5 0)"/>
      <use xlink:href="#DejaVuSans-56" transform="translate(462.125 0)"/>
      <use xlink:href="#DejaVuSans-c" transform="translate(514.21875 0)"/>
     </g>
    </g>
   </g>
   <g id="line2d_60">
    <path d="M 828.105959 319.036904 
L 1254.36296 319.042658 
" clip-path="url(#pd44c535481)" style="fill: none; stroke: #ffa500; stroke-width: 2.5; stroke-linecap: square"/>
    <g clip-path="url(#pd44c535481)">
     <use xlink:href="#m5614891a56" x="828.105959" y="319.036904" style="fill: #ffa500; stroke: #ffa500"/>
     <use xlink:href="#m5614891a56" x="1254.36296" y="319.042658" style="fill: #ffa500; stroke: #ffa500"/>
    </g>
   </g>
   <g id="line2d_61">
    <path d="M 828.105959 227.215324 
L 1254.36296 150.505169 
L 1296.98866 148.521305 
L 1339.61436 115.230603 
L 1382.24006 117.170738 
L 1424.86576 128.128017 
" clip-path="url(#pd44c535481)" style="fill: none; stroke: #800080; stroke-width: 2.5; stroke-linecap: square"/>
    <g clip-path="url(#pd44c535481)">
     <use xlink:href="#ma0e64f211c" x="828.105959" y="227.215324" style="fill: #800080; stroke: #800080"/>
     <use xlink:href="#ma0e64f211c" x="1254.36296" y="150.505169" style="fill: #800080; stroke: #800080"/>
     <use xlink:href="#ma0e64f211c" x="1296.98866" y="148.521305" style="fill: #800080; stroke: #800080"/>
     <use xlink:href="#ma0e64f211c" x="1339.61436" y="115.230603" style="fill: #800080; stroke: #800080"/>
     <use xlink:href="#ma0e64f211c" x="1382.24006" y="117.170738" style="fill: #800080; stroke: #800080"/>
     <use xlink:href="#ma0e64f211c" x="1424.86576" y="128.128017" style="fill: #800080; stroke: #800080"/>
    </g>
   </g>
   <g id="line2d_62">
    <path d="M 828.105959 247.521157 
L 1254.36296 160.152913 
L 1296.98866 140.100242 
L 1339.61436 121.614869 
L 1382.24006 139.379883 
L 1424.86576 129.941572 
" clip-path="url(#pd44c535481)" style="fill: none; stroke: #a52a2a; stroke-width: 2.5; stroke-linecap: square"/>
    <g clip-path="url(#pd44c535481)">
     <use xlink:href="#m97eee31d2c" x="828.105959" y="247.521157" style="fill: #a52a2a; stroke: #a52a2a"/>
     <use xlink:href="#m97eee31d2c" x="1254.36296" y="160.152913" style="fill: #a52a2a; stroke: #a52a2a"/>
     <use xlink:href="#m97eee31d2c" x="1296.98866" y="140.100242" style="fill: #a52a2a; stroke: #a52a2a"/>
     <use xlink:href="#m97eee31d2c" x="1339.61436" y="121.614869" style="fill: #a52a2a; stroke: #a52a2a"/>
     <use xlink:href="#m97eee31d2c" x="1382.24006" y="139.379883" style="fill: #a52a2a; stroke: #a52a2a"/>
     <use xlink:href="#m97eee31d2c" x="1424.86576" y="129.941572" style="fill: #a52a2a; stroke: #a52a2a"/>
    </g>
   </g>
   <g id="patch_8">
    <path d="M 798.267969 319.476484 
L 798.267969 105.04 
" style="fill: none; stroke: #000000; stroke-width: 0.8; stroke-linejoin: miter; stroke-linecap: square"/>
   </g>
   <g id="patch_9">
    <path d="M 1454.70375 319.476484 
L 1454.70375 105.04 
" style="fill: none; stroke: #000000; stroke-width: 0.8; stroke-linejoin: miter; stroke-linecap: square"/>
   </g>
   <g id="patch_10">
    <path d="M 798.267969 319.476484 
L 1454.70375 319.476484 
" style="fill: none; stroke: #000000; stroke-width: 0.8; stroke-linejoin: miter; stroke-linecap: square"/>
   </g>
   <g id="patch_11">
    <path d="M 798.267969 105.04 
L 1454.70375 105.04 
" style="fill: none; stroke: #000000; stroke-width: 0.8; stroke-linejoin: miter; stroke-linecap: square"/>
   </g>
   <g id="text_34">
    <!-- Tempo (µs) -->
    <g transform="translate(1076.694766 99.04) scale(0.18 -0.18)">
     <use xlink:href="#DejaVuSans-37"/>
     <use xlink:href="#DejaVuSans-48" transform="translate(44.09375 0)"/>
     <use xlink:href="#DejaVuSans-50" transform="translate(105.625 0)"/>
     <use xlink:href="#DejaVuSans-53" transform="translate(203.03125 0)"/>
     <use xlink:href="#DejaVuSans-52" transform="translate(266.515625 0)"/>
     <use xlink:href="#DejaVuSans-3" transform="translate(327.703125 0)"/>
     <use xlink:href="#DejaVuSans-b" transform="translate(359.484375 0)"/>
     <use xlink:href="#DejaVuSans-77" transform="translate(398.5 0)"/>
     <use xlink:href="#DejaVuSans-56" transform="translate(462.125 0)"/>
     <use xlink:href="#DejaVuSans-c" transform="translate(514.21875 0)"/>
    </g>
   </g>
  </g>
  <g id="text_35">
   <!-- ABB -->
   <g transform="translate(705.822656 23.914844) scale(0.22 -0.22)">
    <defs>
     <path id="DejaVuSans-Bold-24" d="M 3419 850 
L 1538 850 
L 1241 0 
L 31 0 
L 1759 4666 
L 3194 4666 
L 4922 0 
L 3713 0 
L 3419 850 
z
M 1838 1716 
L 3116 1716 
L 2478 3572 
L 1838 1716 
z
" transform="scale(0.015625)"/>
     <path id="DejaVuSans-Bold-25" d="M 2456 2859 
Q 2741 2859 2887 2984 
Q 3034 3109 3034 3353 
Q 3034 3594 2887 3720 
Q 2741 3847 2456 3847 
L 1791 3847 
L 1791 2859 
L 2456 2859 
z
M 2497 819 
Q 2859 819 3042 972 
Q 3225 1125 3225 1434 
Q 3225 1738 3044 1889 
Q 2863 2041 2497 2041 
L 1791 2041 
L 1791 819 
L 2497 819 
z
M 3616 2497 
Q 4003 2384 4215 2081 
Q 4428 1778 4428 1338 
Q 4428 663 3972 331 
Q 3516 0 2584 0 
L 588 0 
L 588 4666 
L 2394 4666 
Q 3366 4666 3802 4372 
Q 4238 4078 4238 3431 
Q 4238 3091 4078 2852 
Q 3919 2613 3616 2497 
z
" transform="scale(0.015625)"/>
    </defs>
    <use xlink:href="#DejaVuSans-Bold-24"/>
    <use xlink:href="#DejaVuSans-Bold-25" transform="translate(77.390625 0)"/>
    <use xlink:href="#DejaVuSans-Bold-25" transform="translate(153.609375 0)"/>
   </g>
  </g>
  <g id="legend_1">
   <g id="patch_12">
    <path d="M 488.401719 420.76 
L 973.502031 420.76 
Q 976.902031 420.76 976.902031 417.36 
L 976.902031 379.278672 
Q 976.902031 375.878672 973.502031 375.878672 
L 488.401719 375.878672 
Q 485.001719 375.878672 485.001719 379.278672 
L 485.001719 417.36 
Q 485.001719 420.76 488.401719 420.76 
z
" style="fill: #ffffff; opacity: 0.95; stroke: #808080; stroke-linejoin: miter"/>
   </g>
   <g id="line2d_63">
    <path d="M 498.601719 397.126016 
L 519.851719 397.126016 
L 541.101719 397.126016 
" style="fill: none; stroke: #ffa500; stroke-width: 2.5; stroke-linecap: square"/>
    <defs>
     <path id="mbd72b82eee" d="M 0 1.75 
C 0.464105 1.75 0.909265 1.565609 1.237437 1.237437 
C 1.565609 0.909265 1.75 0.464105 1.75 0 
C 1.75 -0.464105 1.565609 -0.909265 1.237437 -1.237437 
C 0.909265 -1.565609 0.464105 -1.75 0 -1.75 
C -0.464105 -1.75 -0.909265 -1.565609 -1.237437 -1.237437 
C -1.565609 -0.909265 -1.75 -0.464105 -1.75 0 
C -1.75 0.464105 -1.565609 0.909265 -1.237437 1.237437 
C -0.909265 1.565609 -0.464105 1.75 0 1.75 
z
" style="stroke: #ffa500"/>
    </defs>
    <g>
     <use xlink:href="#mbd72b82eee" x="519.851719" y="397.126016" style="fill: #ffa500; stroke: #ffa500"/>
    </g>
   </g>
   <g id="text_36">
    <!-- Aleatório -->
    <g transform="translate(554.701719 403.076016) scale(0.17 -0.17)">
     <defs>
      <path id="DejaVuSans-24" d="M 2188 4044 
L 1331 1722 
L 3047 1722 
L 2188 4044 
z
M 1831 4666 
L 2547 4666 
L 4325 0 
L 3669 0 
L 3244 1197 
L 1141 1197 
L 716 0 
L 50 0 
L 1831 4666 
z
" transform="scale(0.015625)"/>
      <path id="DejaVuSans-57" d="M 1172 4494 
L 1172 3500 
L 2356 3500 
L 2356 3053 
L 1172 3053 
L 1172 1153 
Q 1172 725 1289 603 
Q 1406 481 1766 481 
L 2356 481 
L 2356 0 
L 1766 0 
Q 1100 0 847 248 
Q 594 497 594 1153 
L 594 3053 
L 172 3053 
L 172 3500 
L 594 3500 
L 594 4494 
L 1172 4494 
z
" transform="scale(0.015625)"/>
      <path id="DejaVuSans-b5" d="M 1959 3097 
Q 1497 3097 1228 2736 
Q 959 2375 959 1747 
Q 959 1119 1226 758 
Q 1494 397 1959 397 
Q 2419 397 2687 759 
Q 2956 1122 2956 1747 
Q 2956 2369 2687 2733 
Q 2419 3097 1959 3097 
z
M 1959 3584 
Q 2709 3584 3137 3096 
Q 3566 2609 3566 1747 
Q 3566 888 3137 398 
Q 2709 -91 1959 -91 
Q 1206 -91 779 398 
Q 353 888 353 1747 
Q 353 2609 779 3096 
Q 1206 3584 1959 3584 
z
M 2393 5119 
L 3015 5119 
L 1997 3944 
L 1518 3944 
L 2393 5119 
z
" transform="scale(0.015625)"/>
     </defs>
     <use xlink:href="#DejaVuSans-24"/>
     <use xlink:href="#DejaVuSans-4f" transform="translate(68.40625 0)"/>
     <use xlink:href="#DejaVuSans-48" transform="translate(96.1875 0)"/>
     <use xlink:href="#DejaVuSans-44" transform="translate(157.71875 0)"/>
     <use xlink:href="#DejaVuSans-57" transform="translate(219 0)"/>
     <use xlink:href="#DejaVuSans-b5" transform="translate(258.203125 0)"/>
     <use xlink:href="#DejaVuSans-55" transform="translate(319.390625 0)"/>
     <use xlink:href="#DejaVuSans-4c" transform="translate(360.5 0)"/>
     <use xlink:href="#DejaVuSans-52" transform="translate(388.28125 0)"/>
    </g>
   </g>
   <g id="line2d_64">
    <path d="M 665.111406 397.126016 
L 686.361406 397.126016 
L 707.611406 397.126016 
" style="fill: none; stroke: #800080; stroke-width: 2.5; stroke-linecap: square"/>
    <defs>
     <path id="m6a75d35ed2" d="M 0 1.75 
C 0.464105 1.75 0.909265 1.565609 1.237437 1.237437 
C 1.565609 0.909265 1.75 0.464105 1.75 0 
C 1.75 -0.464105 1.565609 -0.909265 1.237437 -1.237437 
C 0.909265 -1.565609 0.464105 -1.75 0 -1.75 
C -0.464105 -1.75 -0.909265 -1.565609 -1.237437 -1.237437 
C -1.565609 -0.909265 -1.75 -0.464105 -1.75 0 
C -1.75 0.464105 -1.565609 0.909265 -1.237437 1.237437 
C -0.909265 1.565609 -0.464105 1.75 0 1.75 
z
" style="stroke: #800080"/>
    </defs>
    <g>
     <use xlink:href="#m6a75d35ed2" x="686.361406" y="397.126016" style="fill: #800080; stroke: #800080"/>
    </g>
   </g>
   <g id="text_37">
    <!-- Ordenado -->
    <g transform="translate(721.211406 403.076016) scale(0.17 -0.17)">
     <defs>
      <path id="DejaVuSans-32" d="M 2522 4238 
Q 1834 4238 1429 3725 
Q 1025 3213 1025 2328 
Q 1025 1447 1429 934 
Q 1834 422 2522 422 
Q 3209 422 3611 934 
Q 4013 1447 4013 2328 
Q 4013 3213 3611 3725 
Q 3209 4238 2522 4238 
z
M 2522 4750 
Q 3503 4750 4090 4092 
Q 4678 3434 4678 2328 
Q 4678 1225 4090 567 
Q 3503 -91 2522 -91 
Q 1538 -91 948 565 
Q 359 1222 359 2328 
Q 359 3434 948 4092 
Q 1538 4750 2522 4750 
z
" transform="scale(0.015625)"/>
      <path id="DejaVuSans-47" d="M 2906 2969 
L 2906 4863 
L 3481 4863 
L 3481 0 
L 2906 0 
L 2906 525 
Q 2725 213 2448 61 
Q 2172 -91 1784 -91 
Q 1150 -91 751 415 
Q 353 922 353 1747 
Q 353 2572 751 3078 
Q 1150 3584 1784 3584 
Q 2172 3584 2448 3432 
Q 2725 3281 2906 2969 
z
M 947 1747 
Q 947 1113 1208 752 
Q 1469 391 1925 391 
Q 2381 391 2643 752 
Q 2906 1113 2906 1747 
Q 2906 2381 2643 2742 
Q 2381 3103 1925 3103 
Q 1469 3103 1208 2742 
Q 947 2381 947 1747 
z
" transform="scale(0.015625)"/>
     </defs>
     <use xlink:href="#DejaVuSans-32"/>
     <use xlink:href="#DejaVuSans-55" transform="translate(78.71875 0)"/>
     <use xlink:href="#DejaVuSans-47" transform="translate(118.078125 0)"/>
     <use xlink:href="#DejaVuSans-48" transform="translate(181.5625 0)"/>
     <use xlink:href="#DejaVuSans-51" transform="translate(243.09375 0)"/>
     <use xlink:href="#DejaVuSans-44" transform="translate(306.46875 0)"/>
     <use xlink:href="#DejaVuSans-47" transform="translate(367.75 0)"/>
     <use xlink:href="#DejaVuSans-52" transform="translate(431.234375 0)"/>
    </g>
   </g>
   <g id="line2d_65">
    <path d="M 838.923125 397.126016 
L 860.173125 397.126016 
L 881.423125 397.126016 
" style="fill: none; stroke: #a52a2a; stroke-width: 2.5; stroke-linecap: square"/>
    <defs>
     <path id="md37d17bc7a" d="M 0 1.75 
C 0.464105 1.75 0.909265 1.565609 1.237437 1.237437 
C 1.565609 0.909265 1.75 0.464105 1.75 0 
C 1.75 -0.464105 1.565609 -0.909265 1.237437 -1.237437 
C 0.909265 -1.565609 0.464105 -1.75 0 -1.75 
C -0.464105 -1.75 -0.909265 -1.565609 -1.237437 -1.237437 
C -1.565609 -0.909265 -1.75 -0.464105 -1.75 0 
C -1.75 0.464105 -1.565609 0.909265 -1.237437 1.237437 
C -0.909265 1.565609 -0.464105 1.75 0 1.75 
z
" style="stroke: #a52a2a"/>
    </defs>
    <g>
     <use xlink:href="#md37d17bc7a" x="860.173125" y="397.126016" style="fill: #a52a2a; stroke: #a52a2a"/>
    </g>
   </g>
   <g id="text_38">
    <!-- Reverso -->
    <g transform="translate(895.023125 403.076016) scale(0.17 -0.17)">
     <defs>
      <path id="DejaVuSans-35" d="M 2841 2188 
Q 3044 2119 3236 1894 
Q 3428 1669 3622 1275 
L 4263 0 
L 3584 0 
L 2988 1197 
Q 2756 1666 2539 1819 
Q 2322 1972 1947 1972 
L 1259 1972 
L 1259 0 
L 628 0 
L 628 4666 
L 2053 4666 
Q 2853 4666 3247 4331 
Q 3641 3997 3641 3322 
Q 3641 2881 3436 2590 
Q 3231 2300 2841 2188 
z
M 1259 4147 
L 1259 2491 
L 2053 2491 
Q 2509 2491 2742 2702 
Q 2975 2913 2975 3322 
Q 2975 3731 2742 3939 
Q 2509 4147 2053 4147 
L 1259 4147 
z
" transform="scale(0.015625)"/>
      <path id="DejaVuSans-59" d="M 191 3500 
L 800 3500 
L 1894 563 
L 2988 3500 
L 3597 3500 
L 2284 0 
L 1503 0 
L 191 3500 
z
" transform="scale(0.015625)"/>
     </defs>
     <use xlink:href="#DejaVuSans-35"/>
     <use xlink:href="#DejaVuSans-48" transform="translate(65 0)"/>
     <use xlink:href="#DejaVuSans-59" transform="translate(126.53125 0)"/>
     <use xlink:href="#DejaVuSans-48" transform="translate(185.71875 0)"/>
     <use xlink:href="#DejaVuSans-55" transform="translate(247.25 0)"/>
     <use xlink:href="#DejaVuSans-56" transform="translate(288.359375 0)"/>
     <use xlink:href="#DejaVuSans-52" transform="translate(340.453125 0)"/>
    </g>
   </g>
  </g>
 </g>
 <defs>
  <clipPath id="pbf519d9b4f">
   <rect x="83.307969" y="105.04" width="656.435781" height="214.436484"/>
  </clipPath>
  <clipPath id="pd44c535481">
   <rect x="798.267969" y="105.04" width="656.435781" height="214.436484"/>
  </clipPath>
 </defs>
</svg>
