<?xml version="1.0" encoding="utf-8" standalone="no"?>
<!DOCTYPE svg PUBLIC "-//W3C//DTD SVG 1.1//EN"
  "http://www.w3.org/Graphics/SVG/1.1/DTD/svg11.dtd">
<svg xmlns:xlink="http://www.w3.org/1999/xlink" width="1476.582188pt" height="429.26pt" viewBox="0 0 1476.582188 429.26" xmlns="http://www.w3.org/2000/svg" version="1.1">
 <metadata>
  <rdf:RDF xmlns:dc="http://purl.org/dc/elements/1.1/" xmlns:cc="http://creativecommons.org/ns#" xmlns:rdf="http://www.w3.org/1999/02/22-rdf-syntax-ns#">
   <cc:Work>
    <dc:type rdf:resource="http://purl.org/dc/dcmitype/StillImage"/>
    <dc:date>2026-07-08T22:55:50.394489</dc:date>
    <dc:format>image/svg+xml</dc:format>
    <dc:creator>
     <cc:Agent>
      <dc:title>Matplotlib v3.11.0, https://matplotlib.org/</dc:title>
     </cc:Agent>
    </dc:creator>
   </cc:Work>
  </rdf:RDF>
 </metadata>
 <defs>
  <style type="text/css">*{stroke-linejoin: round; stroke-linecap: butt}</style>
 </defs>
 <g id="figure_1">
  <g id="patch_1">
   <path d="M 0 429.26 
L 1476.582188 429.26 
L 1476.582188 0 
L 0 0 
z
" style="fill: #ffffff"/>
  </g>
  <g id="axes_1">
   <g id="patch_2">
    <path d="M 69.906406 319.476484 
L 737.862188 319.476484 
L 737.862188 106.325156 
L 69.906406 106.325156 
z
" style="fill: #ffffff"/>
   </g>
   <g id="matplotlib.axis_1">
    <g id="xtick_1">
     <g id="line2d_1">
      <path d="M 100.234834 319.476484 
L 100.234834 106.325156 
" clip-path="url(#pfaf389c60a)" style="fill: none; stroke: #b0b0b0; stroke-opacity: 0.3; stroke-width: 0.8; stroke-linecap: square"/>
     </g>
     <g id="line2d_2">
      <defs>
       <path id="m381cb08d8f" d="M 0 0 
L 0 3.5 
" style="stroke: #000000; stroke-width: 0.8"/>
      </defs>
      <g>
       <use xlink:href="#m381cb08d8f" x="100.234834" y="319.476484" style="stroke: #000000; stroke-width: 0.8"/>
      </g>
     </g>
     <g id="text_1">
      <!-- 0 -->
      <g transform="translate(95.462959 337.872969) scale(0.15 -0.15)">
       <defs>
        <path id="DejaVuSans-13" d="M 2034 4250 
Q 1547 4250 1301 3770 
Q 1056 3291 1056 2328 
Q 1056 1369 1301 889 
Q 1547 409 2034 409 
Q 2525 409 2770 889 
Q 3016 1369 3016 2328 
Q 3016 3291 2770 3770 
Q 2525 4250 2034 4250 
z
M 2034 4750 
Q 2819 4750 3233 4129 
Q 3647 3509 3647 2328 
Q 3647 1150 3233 529 
Q 2819 -91 2034 -91 
Q 1250 -91 836 529 
Q 422 1150 422 2328 
Q 422 3509 836 4129 
Q 1250 4750 2034 4750 
z
" transform="scale(0.015625)"/>
       </defs>
       <use xlink:href="#DejaVuSans-13"/>
      </g>
     </g>
    </g>
    <g id="xtick_2">
     <g id="line2d_3">
      <path d="M 183.231369 319.476484 
L 183.231369 106.325156 
" clip-path="url(#pfaf389c60a)" style="fill: none; stroke: #b0b0b0; stroke-opacity: 0.3; stroke-width: 0.8; stroke-linecap: square"/>
     </g>
     <g id="line2d_4">
      <g>
       <use xlink:href="#m381cb08d8f" x="183.231369" y="319.476484" style="stroke: #000000; stroke-width: 0.8"/>
      </g>
     </g>
     <g id="text_2">
      <!-- 25 mil -->
      <g transform="translate(159.831369 337.874141) scale(0.15 -0.15)">
       <defs>
        <path id="DejaVuSans-15" d="M 1228 531 
L 3431 531 
L 3431 0 
L 469 0 
L 469 531 
Q 828 903 1448 1529 
Q 2069 2156 2228 2338 
Q 2531 2678 2651 2914 
Q 2772 3150 2772 3378 
Q 2772 3750 2511 3984 
Q 2250 4219 1831 4219 
Q 1534 4219 1204 4116 
Q 875 4013 500 3803 
L 500 4441 
Q 881 4594 1212 4672 
Q 1544 4750 1819 4750 
Q 2544 4750 2975 4387 
Q 3406 4025 3406 3419 
Q 3406 3131 3298 2873 
Q 3191 2616 2906 2266 
Q 2828 2175 2409 1742 
Q 1991 1309 1228 531 
z
" transform="scale(0.015625)"/>
        <path id="DejaVuSans-18" d="M 691 4666 
L 3169 4666 
L 3169 4134 
L 1269 4134 
L 1269 2991 
Q 1406 3038 1543 3061 
Q 1681 3084 1819 3084 
Q 2600 3084 3056 2656 
Q 3513 2228 3513 1497 
Q 3513 744 3044 326 
Q 2575 -91 1722 -91 
Q 1428 -91 1123 -41 
Q 819 9 494 109 
L 494 744 
Q 775 591 1075 516 
Q 1375 441 1709 441 
Q 2250 441 2565 725 
Q 2881 1009 2881 1497 
Q 2881 1984 2565 2268 
Q 2250 2553 1709 2553 
Q 1456 2553 1204 2497 
Q 953 2441 691 2322 
L 691 4666 
z
" transform="scale(0.015625)"/>
        <path id="DejaVuSans-3" transform="scale(0.015625)"/>
        <path id="DejaVuSans-50" d="M 3328 2828 
Q 3544 3216 3844 3400 
Q 4144 3584 4550 3584 
Q 5097 3584 5394 3201 
Q 5691 2819 5691 2113 
L 5691 0 
L 5113 0 
L 5113 2094 
Q 5113 2597 4934 2840 
Q 4756 3084 4391 3084 
Q 3944 3084 3684 2787 
Q 3425 2491 3425 1978 
L 3425 0 
L 2847 0 
L 2847 2094 
Q 2847 2600 2669 2842 
Q 2491 3084 2119 3084 
Q 1678 3084 1418 2786 
Q 1159 2488 1159 1978 
L 1159 0 
L 581 0 
L 581 3500 
L 1159 3500 
L 1159 2956 
Q 1356 3278 1631 3431 
Q 1906 3584 2284 3584 
Q 2666 3584 2933 3390 
Q 3200 3197 3328 2828 
z
" transform="scale(0.015625)"/>
        <path id="DejaVuSans-4c" d="M 603 3500 
L 1178 3500 
L 1178 0 
L 603 0 
L 603 3500 
z
M 603 4863 
L 1178 4863 
L 1178 4134 
L 603 4134 
L 603 4863 
z
" transform="scale(0.015625)"/>
        <path id="DejaVuSans-4f" d="M 603 4863 
L 1178 4863 
L 1178 0 
L 603 0 
L 603 4863 
z
" transform="scale(0.015625)"/>
       </defs>
       <use xlink:href="#DejaVuSans-15"/>
       <use xlink:href="#DejaVuSans-18" transform="translate(63.625 0)"/>
       <use xlink:href="#DejaVuSans-3" transform="translate(127.25 0)"/>
       <use xlink:href="#DejaVuSans-50" transform="translate(159.03125 0)"/>
       <use xlink:href="#DejaVuSans-4c" transform="translate(256.4375 0)"/>
       <use xlink:href="#DejaVuSans-4f" transform="translate(284.21875 0)"/>
      </g>
     </g>
    </g>
    <g id="xtick_3">
     <g id="line2d_5">
      <path d="M 266.227904 319.476484 
L 266.227904 106.325156 
" clip-path="url(#pfaf389c60a)" style="fill: none; stroke: #b0b0b0; stroke-opacity: 0.3; stroke-width: 0.8; stroke-linecap: square"/>
     </g>
     <g id="line2d_6">
      <g>
       <use xlink:href="#m381cb08d8f" x="266.227904" y="319.476484" style="stroke: #000000; stroke-width: 0.8"/>
      </g>
     </g>
     <g id="text_3">
      <!-- 50 mil -->
      <g transform="translate(242.827904 337.874141) scale(0.15 -0.15)">
       <use xlink:href="#DejaVuSans-18"/>
       <use xlink:href="#DejaVuSans-13" transform="translate(63.625 0)"/>
       <use xlink:href="#DejaVuSans-3" transform="translate(127.25 0)"/>
       <use xlink:href="#DejaVuSans-50" transform="translate(159.03125 0)"/>
       <use xlink:href="#DejaVuSans-4c" transform="translate(256.4375 0)"/>
       <use xlink:href="#DejaVuSans-4f" transform="translate(284.21875 0)"/>
      </g>
     </g>
    </g>
    <g id="xtick_4">
     <g id="line2d_7">
      <path d="M 349.224439 319.476484 
L 349.224439 106.325156 
" clip-path="url(#pfaf389c60a)" style="fill: none; stroke: #b0b0b0; stroke-opacity: 0.3; stroke-width: 0.8; stroke-linecap: square"/>
     </g>
     <g id="line2d_8">
      <g>
       <use xlink:href="#m381cb08d8f" x="349.224439" y="319.476484" style="stroke: #000000; stroke-width: 0.8"/>
      </g>
     </g>
     <g id="text_4">
      <!-- 75 mil -->
      <g transform="translate(325.824439 337.874141) scale(0.15 -0.15)">
       <defs>
        <path id="DejaVuSans-1a" d="M 525 4666 
L 3525 4666 
L 3525 4397 
L 1831 0 
L 1172 0 
L 2766 4134 
L 525 4134 
L 525 4666 
z
" transform="scale(0.015625)"/>
       </defs>
       <use xlink:href="#DejaVuSans-1a"/>
       <use xlink:href="#DejaVuSans-18" transform="translate(63.625 0)"/>
       <use xlink:href="#DejaVuSans-3" transform="translate(127.25 0)"/>
       <use xlink:href="#DejaVuSans-50" transform="translate(159.03125 0)"/>
       <use xlink:href="#DejaVuSans-4c" transform="translate(256.4375 0)"/>
       <use xlink:href="#DejaVuSans-4f" transform="translate(284.21875 0)"/>
      </g>
     </g>
    </g>
    <g id="xtick_5">
     <g id="line2d_9">
      <path d="M 432.220974 319.476484 
L 432.220974 106.325156 
" clip-path="url(#pfaf389c60a)" style="fill: none; stroke: #b0b0b0; stroke-opacity: 0.3; stroke-width: 0.8; stroke-linecap: square"/>
     </g>
     <g id="line2d_10">
      <g>
       <use xlink:href="#m381cb08d8f" x="432.220974" y="319.476484" style="stroke: #000000; stroke-width: 0.8"/>
      </g>
     </g>
     <g id="text_5">
      <!-- 100 mil -->
      <g transform="translate(404.049099 337.874141) scale(0.15 -0.15)">
       <defs>
        <path id="DejaVuSans-14" d="M 794 531 
L 1825 531 
L 1825 4091 
L 703 3866 
L 703 4441 
L 1819 4666 
L 2450 4666 
L 2450 531 
L 3481 531 
L 3481 0 
L 794 0 
L 794 531 
z
" transform="scale(0.015625)"/>
       </defs>
       <use xlink:href="#DejaVuSans-14"/>
       <use xlink:href="#DejaVuSans-13" transform="translate(63.625 0)"/>
       <use xlink:href="#DejaVuSans-13" transform="translate(127.25 0)"/>
       <use xlink:href="#DejaVuSans-3" transform="translate(190.875 0)"/>
       <use xlink:href="#DejaVuSans-50" transform="translate(222.65625 0)"/>
       <use xlink:href="#DejaVuSans-4c" transform="translate(320.0625 0)"/>
       <use xlink:href="#DejaVuSans-4f" transform="translate(347.84375 0)"/>
      </g>
     </g>
    </g>
    <g id="xtick_6">
     <g id="line2d_11">
      <path d="M 515.217509 319.476484 
L 515.217509 106.325156 
" clip-path="url(#pfaf389c60a)" style="fill: none; stroke: #b0b0b0; stroke-opacity: 0.3; stroke-width: 0.8; stroke-linecap: square"/>
     </g>
     <g id="line2d_12">
      <g>
       <use xlink:href="#m381cb08d8f" x="515.217509" y="319.476484" style="stroke: #000000; stroke-width: 0.8"/>
      </g>
     </g>
     <g id="text_6">
      <!-- 125 mil -->
      <g transform="translate(487.045634 337.874141) scale(0.15 -0.15)">
       <use xlink:href="#DejaVuSans-14"/>
       <use xlink:href="#DejaVuSans-15" transform="translate(63.625 0)"/>
       <use xlink:href="#DejaVuSans-18" transform="translate(127.25 0)"/>
       <use xlink:href="#DejaVuSans-3" transform="translate(190.875 0)"/>
       <use xlink:href="#DejaVuSans-50" transform="translate(222.65625 0)"/>
       <use xlink:href="#DejaVuSans-4c" transform="translate(320.0625 0)"/>
       <use xlink:href="#DejaVuSans-4f" transform="translate(347.84375 0)"/>
      </g>
     </g>
    </g>
    <g id="xtick_7">
     <g id="line2d_13">
      <path d="M 598.214044 319.476484 
L 598.214044 106.325156 
" clip-path="url(#pfaf389c60a)" style="fill: none; stroke: #b0b0b0; stroke-opacity: 0.3; stroke-width: 0.8; stroke-linecap: square"/>
     </g>
     <g id="line2d_14">
      <g>
       <use xlink:href="#m381cb08d8f" x="598.214044" y="319.476484" style="stroke: #000000; stroke-width: 0.8"/>
      </g>
     </g>
     <g id="text_7">
      <!-- 150 mil -->
      <g transform="translate(570.042169 337.874141) scale(0.15 -0.15)">
       <use xlink:href="#DejaVuSans-14"/>
       <use xlink:href="#DejaVuSans-18" transform="translate(63.625 0)"/>
       <use xlink:href="#DejaVuSans-13" transform="translate(127.25 0)"/>
       <use xlink:href="#DejaVuSans-3" transform="translate(190.875 0)"/>
       <use xlink:href="#DejaVuSans-50" transform="translate(222.65625 0)"/>
       <use xlink:href="#DejaVuSans-4c" transform="translate(320.0625 0)"/>
       <use xlink:href="#DejaVuSans-4f" transform="translate(347.84375 0)"/>
      </g>
     </g>
    </g>
    <g id="xtick_8">
     <g id="line2d_15">
      <path d="M 681.210579 319.476484 
L 681.210579 106.325156 
" clip-path="url(#pfaf389c60a)" style="fill: none; stroke: #b0b0b0; stroke-opacity: 0.3; stroke-width: 0.8; stroke-linecap: square"/>
     </g>
     <g id="line2d_16">
      <g>
       <use xlink:href="#m381cb08d8f" x="681.210579" y="319.476484" style="stroke: #000000; stroke-width: 0.8"/>
      </g>
     </g>
     <g id="text_8">
      <!-- 175 mil -->
      <g transform="translate(653.038704 337.874141) scale(0.15 -0.15)">
       <use xlink:href="#DejaVuSans-14"/>
       <use xlink:href="#DejaVuSans-1a" transform="translate(63.625 0)"/>
       <use xlink:href="#DejaVuSans-18" transform="translate(127.25 0)"/>
       <use xlink:href="#DejaVuSans-3" transform="translate(190.875 0)"/>
       <use xlink:href="#DejaVuSans-50" transform="translate(222.65625 0)"/>
       <use xlink:href="#DejaVuSans-4c" transform="translate(320.0625 0)"/>
       <use xlink:href="#DejaVuSans-4f" transform="translate(347.84375 0)"/>
      </g>
     </g>
    </g>
    <g id="text_9">
     <!-- n -->
     <g transform="translate(398.180547 359.153437) scale(0.18 -0.18)">
      <defs>
       <path id="DejaVuSans-51" d="M 3513 2113 
L 3513 0 
L 2938 0 
L 2938 2094 
Q 2938 2591 2744 2837 
Q 2550 3084 2163 3084 
Q 1697 3084 1428 2787 
Q 1159 2491 1159 1978 
L 1159 0 
L 581 0 
L 581 3500 
L 1159 3500 
L 1159 2956 
Q 1366 3272 1645 3428 
Q 1925 3584 2291 3584 
Q 2894 3584 3203 3211 
Q 3513 2838 3513 2113 
z
" transform="scale(0.015625)"/>
      </defs>
      <use xlink:href="#DejaVuSans-51"/>
     </g>
    </g>
   </g>
   <g id="matplotlib.axis_2">
    <g id="ytick_1">
     <g id="line2d_17">
      <path d="M 69.906406 319.476484 
L 737.862188 319.476484 
" clip-path="url(#pfaf389c60a)" style="fill: none; stroke: #b0b0b0; stroke-opacity: 0.3; stroke-width: 0.8; stroke-linecap: square"/>
     </g>
     <g id="line2d_18">
      <defs>
       <path id="m19e6b5158b" d="M 0 0 
L -3.5 0 
" style="stroke: #000000; stroke-width: 0.8"/>
      </defs>
      <g>
       <use xlink:href="#m19e6b5158b" x="69.906406" y="319.476484" style="stroke: #000000; stroke-width: 0.8"/>
      </g>
     </g>
     <g id="text_10">
      <!-- 0 -->
      <g transform="translate(53.362656 325.174727) scale(0.15 -0.15)">
       <use xlink:href="#DejaVuSans-13"/>
      </g>
     </g>
    </g>
    <g id="ytick_2">
     <g id="line2d_19">
      <path d="M 69.906406 287.567603 
L 737.862188 287.567603 
" clip-path="url(#pfaf389c60a)" style="fill: none; stroke: #b0b0b0; stroke-opacity: 0.3; stroke-width: 0.8; stroke-linecap: square"/>
     </g>
     <g id="line2d_20">
      <g>
       <use xlink:href="#m19e6b5158b" x="69.906406" y="287.567603" style="stroke: #000000; stroke-width: 0.8"/>
      </g>
     </g>
     <g id="text_11">
      <!-- 2,5 -->
      <g transform="translate(39.051719 293.265845) scale(0.15 -0.15)">
       <defs>
        <path id="DejaVuSans-f" d="M 750 794 
L 1409 794 
L 1409 256 
L 897 -744 
L 494 -744 
L 750 256 
L 750 794 
z
" transform="scale(0.015625)"/>
       </defs>
       <use xlink:href="#DejaVuSans-15"/>
       <use xlink:href="#DejaVuSans-f" transform="translate(63.625 0)"/>
       <use xlink:href="#DejaVuSans-18" transform="translate(95.40625 0)"/>
      </g>
     </g>
    </g>
    <g id="ytick_3">
     <g id="line2d_21">
      <path d="M 69.906406 255.658721 
L 737.862188 255.658721 
" clip-path="url(#pfaf389c60a)" style="fill: none; stroke: #b0b0b0; stroke-opacity: 0.3; stroke-width: 0.8; stroke-linecap: square"/>
     </g>
     <g id="line2d_22">
      <g>
       <use xlink:href="#m19e6b5158b" x="69.906406" y="255.658721" style="stroke: #000000; stroke-width: 0.8"/>
      </g>
     </g>
     <g id="text_12">
      <!-- 5 -->
      <g transform="translate(53.362656 261.356964) scale(0.15 -0.15)">
       <use xlink:href="#DejaVuSans-18"/>
      </g>
     </g>
    </g>
    <g id="ytick_4">
     <g id="line2d_23">
      <path d="M 69.906406 223.74984 
L 737.862188 223.74984 
" clip-path="url(#pfaf389c60a)" style="fill: none; stroke: #b0b0b0; stroke-opacity: 0.3; stroke-width: 0.8; stroke-linecap: square"/>
     </g>
     <g id="line2d_24">
      <g>
       <use xlink:href="#m19e6b5158b" x="69.906406" y="223.74984" style="stroke: #000000; stroke-width: 0.8"/>
      </g>
     </g>
     <g id="text_13">
      <!-- 7,5 -->
      <g transform="translate(39.051719 229.448082) scale(0.15 -0.15)">
       <use xlink:href="#DejaVuSans-1a"/>
       <use xlink:href="#DejaVuSans-f" transform="translate(63.625 0)"/>
       <use xlink:href="#DejaVuSans-18" transform="translate(95.40625 0)"/>
      </g>
     </g>
    </g>
    <g id="ytick_5">
     <g id="line2d_25">
      <path d="M 69.906406 191.840959 
L 737.862188 191.840959 
" clip-path="url(#pfaf389c60a)" style="fill: none; stroke: #b0b0b0; stroke-opacity: 0.3; stroke-width: 0.8; stroke-linecap: square"/>
     </g>
     <g id="line2d_26">
      <g>
       <use xlink:href="#m19e6b5158b" x="69.906406" y="191.840959" style="stroke: #000000; stroke-width: 0.8"/>
      </g>
     </g>
     <g id="text_14">
      <!-- 10 -->
      <g transform="translate(43.818906 197.539201) scale(0.15 -0.15)">
       <use xlink:href="#DejaVuSans-14"/>
       <use xlink:href="#DejaVuSans-13" transform="translate(63.625 0)"/>
      </g>
     </g>
    </g>
    <g id="ytick_6">
     <g id="line2d_27">
      <path d="M 69.906406 159.932077 
L 737.862188 159.932077 
" clip-path="url(#pfaf389c60a)" style="fill: none; stroke: #b0b0b0; stroke-opacity: 0.3; stroke-width: 0.8; stroke-linecap: square"/>
     </g>
     <g id="line2d_28">
      <g>
       <use xlink:href="#m19e6b5158b" x="69.906406" y="159.932077" style="stroke: #000000; stroke-width: 0.8"/>
      </g>
     </g>
     <g id="text_15">
      <!-- 12,5 -->
      <g transform="translate(29.507969 165.630319) scale(0.15 -0.15)">
       <use xlink:href="#DejaVuSans-14"/>
       <use xlink:href="#DejaVuSans-15" transform="translate(63.625 0)"/>
       <use xlink:href="#DejaVuSans-f" transform="translate(127.25 0)"/>
       <use xlink:href="#DejaVuSans-18" transform="translate(159.03125 0)"/>
      </g>
     </g>
    </g>
    <g id="ytick_7">
     <g id="line2d_29">
      <path d="M 69.906406 128.023196 
L 737.862188 128.023196 
" clip-path="url(#pfaf389c60a)" style="fill: none; stroke: #b0b0b0; stroke-opacity: 0.3; stroke-width: 0.8; stroke-linecap: square"/>
     </g>
     <g id="line2d_30">
      <g>
       <use xlink:href="#m19e6b5158b" x="69.906406" y="128.023196" style="stroke: #000000; stroke-width: 0.8"/>
      </g>
     </g>
     <g id="text_16">
      <!-- 15 -->
      <g transform="translate(43.818906 133.721438) scale(0.15 -0.15)">
       <use xlink:href="#DejaVuSans-14"/>
       <use xlink:href="#DejaVuSans-18" transform="translate(63.625 0)"/>
      </g>
     </g>
    </g>
    <g id="text_17">
     <!-- Comparações -->
     <g transform="translate(21.18375 274.58457) rotate(-90) scale(0.18 -0.18)">
      <defs>
       <path id="DejaVuSans-26" d="M 4122 4306 
L 4122 3641 
Q 3803 3938 3442 4084 
Q 3081 4231 2675 4231 
Q 1875 4231 1450 3742 
Q 1025 3253 1025 2328 
Q 1025 1406 1450 917 
Q 1875 428 2675 428 
Q 3081 428 3442 575 
Q 3803 722 4122 1019 
L 4122 359 
Q 3791 134 3420 21 
Q 3050 -91 2638 -91 
Q 1578 -91 968 557 
Q 359 1206 359 2328 
Q 359 3453 968 4101 
Q 1578 4750 2638 4750 
Q 3056 4750 3426 4639 
Q 3797 4528 4122 4306 
z
" transform="scale(0.015625)"/>
       <path id="DejaVuSans-52" d="M 1959 3097 
Q 1497 3097 1228 2736 
Q 959 2375 959 1747 
Q 959 1119 1226 758 
Q 1494 397 1959 397 
Q 2419 397 2687 759 
Q 2956 1122 2956 1747 
Q 2956 2369 2687 2733 
Q 2419 3097 1959 3097 
z
M 1959 3584 
Q 2709 3584 3137 3096 
Q 3566 2609 3566 1747 
Q 3566 888 3137 398 
Q 2709 -91 1959 -91 
Q 1206 -91 779 398 
Q 353 888 353 1747 
Q 353 2609 779 3096 
Q 1206 3584 1959 3584 
z
" transform="scale(0.015625)"/>
       <path id="DejaVuSans-53" d="M 1159 525 
L 1159 -1331 
L 581 -1331 
L 581 3500 
L 1159 3500 
L 1159 2969 
Q 1341 3281 1617 3432 
Q 1894 3584 2278 3584 
Q 2916 3584 3314 3078 
Q 3713 2572 3713 1747 
Q 3713 922 3314 415 
Q 2916 -91 2278 -91 
Q 1894 -91 1617 61 
Q 1341 213 1159 525 
z
M 3116 1747 
Q 3116 2381 2855 2742 
Q 2594 3103 2138 3103 
Q 1681 3103 1420 2742 
Q 1159 2381 1159 1747 
Q 1159 1113 1420 752 
Q 1681 391 2138 391 
Q 2594 391 2855 752 
Q 3116 1113 3116 1747 
z
" transform="scale(0.015625)"/>
       <path id="DejaVuSans-44" d="M 2194 1759 
Q 1497 1759 1228 1600 
Q 959 1441 959 1056 
Q 959 750 1161 570 
Q 1363 391 1709 391 
Q 2188 391 2477 730 
Q 2766 1069 2766 1631 
L 2766 1759 
L 2194 1759 
z
M 3341 1997 
L 3341 0 
L 2766 0 
L 2766 531 
Q 2569 213 2275 61 
Q 1981 -91 1556 -91 
Q 1019 -91 701 211 
Q 384 513 384 1019 
Q 384 1609 779 1909 
Q 1175 2209 1959 2209 
L 2766 2209 
L 2766 2266 
Q 2766 2663 2505 2880 
Q 2244 3097 1772 3097 
Q 1472 3097 1187 3025 
Q 903 2953 641 2809 
L 641 3341 
Q 956 3463 1253 3523 
Q 1550 3584 1831 3584 
Q 2591 3584 2966 3190 
Q 3341 2797 3341 1997 
z
" transform="scale(0.015625)"/>
       <path id="DejaVuSans-55" d="M 2631 2963 
Q 2534 3019 2420 3045 
Q 2306 3072 2169 3072 
Q 1681 3072 1420 2755 
Q 1159 2438 1159 1844 
L 1159 0 
L 581 0 
L 581 3500 
L 1159 3500 
L 1159 2956 
Q 1341 3275 1631 3429 
Q 1922 3584 2338 3584 
Q 2397 3584 2469 3576 
Q 2541 3569 2628 3553 
L 2631 2963 
z
" transform="scale(0.015625)"/>
       <path id="DejaVuSans-a9" d="M 3122 3366 
L 3122 2828 
Q 2878 2963 2633 3030 
Q 2388 3097 2138 3097 
Q 1578 3097 1268 2742 
Q 959 2388 959 1747 
Q 959 1106 1268 751 
Q 1578 397 2138 397 
Q 2388 397 2633 464 
Q 2878 531 3122 666 
L 3122 134 
Q 2881 22 2623 -34 
Q 2366 -91 2075 -91 
Q 1284 -91 818 406 
Q 353 903 353 1747 
Q 353 2603 823 3093 
Q 1294 3584 2113 3584 
Q 2378 3584 2631 3529 
Q 2884 3475 3122 3366 
z
M 2310 0 
Q 2481 -194 2565 -358 
Q 2650 -522 2650 -672 
Q 2650 -950 2462 -1092 
Q 2275 -1234 1906 -1234 
Q 1763 -1234 1627 -1215 
Q 1491 -1197 1356 -1159 
L 1356 -750 
Q 1463 -803 1578 -826 
Q 1694 -850 1841 -850 
Q 2025 -850 2119 -775 
Q 2213 -700 2213 -556 
Q 2213 -463 2145 -327 
Q 2078 -191 1938 0 
L 2310 0 
z
" transform="scale(0.015625)"/>
       <path id="DejaVuSans-b7" d="M 1959 3097 
Q 1497 3097 1228 2736 
Q 959 2375 959 1747 
Q 959 1119 1226 758 
Q 1494 397 1959 397 
Q 2419 397 2687 759 
Q 2956 1122 2956 1747 
Q 2956 2369 2687 2733 
Q 2419 3097 1959 3097 
z
M 1959 3584 
Q 2709 3584 3137 3096 
Q 3566 2609 3566 1747 
Q 3566 888 3137 398 
Q 2709 -91 1959 -91 
Q 1206 -91 779 398 
Q 353 888 353 1747 
Q 353 2609 779 3096 
Q 1206 3584 1959 3584 
z
M 1947 4281 
L 1768 4453 
Q 1700 4516 1648 4545 
Q 1597 4575 1556 4575 
Q 1437 4575 1381 4461 
Q 1325 4347 1318 4091 
L 928 4091 
Q 934 4513 1093 4742 
Q 1253 4972 1537 4972 
Q 1656 4972 1756 4928 
Q 1856 4884 1972 4781 
L 2150 4609 
Q 2218 4547 2270 4517 
Q 2322 4488 2362 4488 
Q 2481 4488 2537 4602 
Q 2593 4716 2600 4972 
L 2990 4972 
Q 2984 4550 2824 4320 
Q 2665 4091 2381 4091 
Q 2262 4091 2162 4134 
Q 2062 4178 1947 4281 
z
" transform="scale(0.015625)"/>
       <path id="DejaVuSans-48" d="M 3597 1894 
L 3597 1613 
L 953 1613 
Q 991 1019 1311 708 
Q 1631 397 2203 397 
Q 2534 397 2845 478 
Q 3156 559 3463 722 
L 3463 178 
Q 3153 47 2828 -22 
Q 2503 -91 2169 -91 
Q 1331 -91 842 396 
Q 353 884 353 1716 
Q 353 2575 817 3079 
Q 1281 3584 2069 3584 
Q 2775 3584 3186 3129 
Q 3597 2675 3597 1894 
z
M 3022 2063 
Q 3016 2534 2758 2815 
Q 2500 3097 2075 3097 
Q 1594 3097 1305 2825 
Q 1016 2553 972 2059 
L 3022 2063 
z
" transform="scale(0.015625)"/>
       <path id="DejaVuSans-56" d="M 2834 3397 
L 2834 2853 
Q 2591 2978 2328 3040 
Q 2066 3103 1784 3103 
Q 1356 3103 1142 2972 
Q 928 2841 928 2578 
Q 928 2378 1081 2264 
Q 1234 2150 1697 2047 
L 1894 2003 
Q 2506 1872 2764 1633 
Q 3022 1394 3022 966 
Q 3022 478 2636 193 
Q 2250 -91 1575 -91 
Q 1294 -91 989 -36 
Q 684 19 347 128 
L 347 722 
Q 666 556 975 473 
Q 1284 391 1588 391 
Q 1994 391 2212 530 
Q 2431 669 2431 922 
Q 2431 1156 2273 1281 
Q 2116 1406 1581 1522 
L 1381 1569 
Q 847 1681 609 1914 
Q 372 2147 372 2553 
Q 372 3047 722 3315 
Q 1072 3584 1716 3584 
Q 2034 3584 2315 3537 
Q 2597 3491 2834 3397 
z
" transform="scale(0.015625)"/>
      </defs>
      <use xlink:href="#DejaVuSans-26"/>
      <use xlink:href="#DejaVuSans-52" transform="translate(69.828125 0)"/>
      <use xlink:href="#DejaVuSans-50" transform="translate(131.015625 0)"/>
      <use xlink:href="#DejaVuSans-53" transform="translate(228.421875 0)"/>
      <use xlink:href="#DejaVuSans-44" transform="translate(291.90625 0)"/>
      <use xlink:href="#DejaVuSans-55" transform="translate(353.1875 0)"/>
      <use xlink:href="#DejaVuSans-44" transform="translate(394.296875 0)"/>
      <use xlink:href="#DejaVuSans-a9" transform="translate(455.578125 0)"/>
      <use xlink:href="#DejaVuSans-b7" transform="translate(510.5625 0)"/>
      <use xlink:href="#DejaVuSans-48" transform="translate(571.75 0)"/>
      <use xlink:href="#DejaVuSans-56" transform="translate(633.28125 0)"/>
     </g>
    </g>
   </g>
   <g id="line2d_31">
    <path d="M 100.268033 293.949379 
L 100.271353 281.185827 
L 100.274672 281.185827 
L 100.277992 281.185827 
L 100.281312 281.185827 
L 100.284632 281.185827 
L 100.291272 281.185827 
L 100.297911 281.185827 
L 100.304551 281.185827 
L 100.311191 281.185827 
L 100.317831 281.185827 
L 100.32779 268.422274 
L 100.33775 268.422274 
L 100.347709 268.422274 
L 100.357669 268.422274 
L 100.370948 268.422274 
L 100.384228 268.422274 
L 100.400827 268.422274 
L 100.417426 268.422274 
L 100.437346 255.658721 
L 100.457265 255.658721 
L 100.480504 255.658721 
L 100.503743 255.658721 
L 100.530302 255.658721 
L 100.56018 255.658721 
L 100.593379 255.658721 
L 100.629898 255.658721 
L 100.669736 242.895169 
L 100.712894 242.895169 
L 100.759372 242.895169 
L 100.81249 242.895169 
L 100.868928 242.895169 
L 100.932005 242.895169 
L 101.001722 242.895169 
L 101.078079 230.131616 
L 101.161075 230.131616 
L 101.254032 230.131616 
L 101.356947 230.131616 
L 101.469822 230.131616 
L 101.592657 230.131616 
L 101.728772 230.131616 
L 101.878165 230.131616 
L 102.044159 217.368064 
L 102.226751 217.368064 
L 102.425943 217.368064 
L 102.645053 217.368064 
L 102.887403 217.368064 
L 103.152992 217.368064 
L 103.44514 217.368064 
L 103.767167 204.604511 
L 104.119072 204.604511 
L 104.507496 204.604511 
L 104.935758 204.604511 
L 105.407178 204.604511 
L 105.925076 204.604511 
L 106.492773 204.604511 
L 107.120227 191.840959 
L 107.807438 191.840959 
L 108.564366 191.840959 
L 109.397652 191.840959 
L 110.313933 191.840959 
L 111.323171 191.840959 
L 112.432005 191.840959 
L 113.650394 179.077406 
L 114.991618 179.077406 
L 116.468956 179.077406 
L 118.092369 179.077406 
L 119.878454 179.077406 
L 121.843812 179.077406 
L 124.005042 179.077406 
L 126.382062 179.077406 
L 128.998113 166.313853 
L 131.873113 166.313853 
L 135.036941 166.313853 
L 138.516156 166.313853 
L 142.343956 166.313853 
L 146.55354 166.313853 
L 151.184747 166.313853 
L 156.280734 153.550301 
L 161.88466 153.550301 
L 168.049643 153.550301 
L 174.83212 153.550301 
L 182.291848 153.550301 
L 190.498546 153.550301 
L 199.525249 153.550301 
L 209.454954 140.786748 
L 220.377298 140.786748 
L 232.391877 140.786748 
L 245.608245 140.786748 
L 260.145918 140.786748 
L 276.13769 140.786748 
L 293.729636 140.786748 
L 313.077788 128.023196 
L 334.361419 128.023196 
L 357.773082 128.023196 
L 383.528567 128.023196 
L 411.856944 128.023196 
L 443.020483 128.023196 
L 477.298052 128.023196 
L 515.005038 128.023196 
L 556.483386 115.259643 
L 602.108241 115.259643 
L 652.294586 115.259643 
L 707.500561 115.259643 
" clip-path="url(#pfaf389c60a)" style="fill: none; stroke: #0000ff; stroke-width: 2.5; stroke-linecap: square"/>
    <defs>
     <path id="mc62806d6d0" d="M 0 1.25 
C 0.331504 1.25 0.649475 1.118292 0.883883 0.883883 
C 1.118292 0.649475 1.25 0.331504 1.25 0 
C 1.25 -0.331504 1.118292 -0.649475 0.883883 -0.883883 
C 0.649475 -1.118292 0.331504 -1.25 0 -1.25 
C -0.331504 -1.25 -0.649475 -1.118292 -0.883883 -0.883883 
C -1.118292 -0.649475 -1.25 -0.331504 -1.25 0 
C -1.25 0.331504 -1.118292 0.649475 -0.883883 0.883883 
C -0.649475 1.118292 -0.331504 1.25 0 1.25 
z
" style="stroke: #0000ff"/>
    </defs>
    <g clip-path="url(#pfaf389c60a)">
     <use xlink:href="#mc62806d6d0" x="100.268033" y="293.949379" style="fill: #0000ff; stroke: #0000ff"/>
     <use xlink:href="#mc62806d6d0" x="100.271353" y="281.185827" style="fill: #0000ff; stroke: #0000ff"/>
     <use xlink:href="#mc62806d6d0" x="100.274672" y="281.185827" style="fill: #0000ff; stroke: #0000ff"/>
     <use xlink:href="#mc62806d6d0" x="100.277992" y="281.185827" style="fill: #0000ff; stroke: #0000ff"/>
     <use xlink:href="#mc62806d6d0" x="100.281312" y="281.185827" style="fill: #0000ff; stroke: #0000ff"/>
     <use xlink:href="#mc62806d6d0" x="100.284632" y="281.185827" style="fill: #0000ff; stroke: #0000ff"/>
     <use xlink:href="#mc62806d6d0" x="100.291272" y="281.185827" style="fill: #0000ff; stroke: #0000ff"/>
     <use xlink:href="#mc62806d6d0" x="100.297911" y="281.185827" style="fill: #0000ff; stroke: #0000ff"/>
     <use xlink:href="#mc62806d6d0" x="100.304551" y="281.185827" style="fill: #0000ff; stroke: #0000ff"/>
     <use xlink:href="#mc62806d6d0" x="100.311191" y="281.185827" style="fill: #0000ff; stroke: #0000ff"/>
     <use xlink:href="#mc62806d6d0" x="100.317831" y="281.185827" style="fill: #0000ff; stroke: #0000ff"/>
     <use xlink:href="#mc62806d6d0" x="100.32779" y="268.422274" style="fill: #0000ff; stroke: #0000ff"/>
     <use xlink:href="#mc62806d6d0" x="100.33775" y="268.422274" style="fill: #0000ff; stroke: #0000ff"/>
     <use xlink:href="#mc62806d6d0" x="100.347709" y="268.422274" style="fill: #0000ff; stroke: #0000ff"/>
     <use xlink:href="#mc62806d6d0" x="100.357669" y="268.422274" style="fill: #0000ff; stroke: #0000ff"/>
     <use xlink:href="#mc62806d6d0" x="100.370948" y="268.422274" style="fill: #0000ff; stroke: #0000ff"/>
     <use xlink:href="#mc62806d6d0" x="100.384228" y="268.422274" style="fill: #0000ff; stroke: #0000ff"/>
     <use xlink:href="#mc62806d6d0" x="100.400827" y="268.422274" style="fill: #0000ff; stroke: #0000ff"/>
     <use xlink:href="#mc62806d6d0" x="100.417426" y="268.422274" style="fill: #0000ff; stroke: #0000ff"/>
     <use xlink:href="#mc62806d6d0" x="100.437346" y="255.658721" style="fill: #0000ff; stroke: #0000ff"/>
     <use xlink:href="#mc62806d6d0" x="100.457265" y="255.658721" style="fill: #0000ff; stroke: #0000ff"/>
     <use xlink:href="#mc62806d6d0" x="100.480504" y="255.658721" style="fill: #0000ff; stroke: #0000ff"/>
     <use xlink:href="#mc62806d6d0" x="100.503743" y="255.658721" style="fill: #0000ff; stroke: #0000ff"/>
     <use xlink:href="#mc62806d6d0" x="100.530302" y="255.658721" style="fill: #0000ff; stroke: #0000ff"/>
     <use xlink:href="#mc62806d6d0" x="100.56018" y="255.658721" style="fill: #0000ff; stroke: #0000ff"/>
     <use xlink:href="#mc62806d6d0" x="100.593379" y="255.658721" style="fill: #0000ff; stroke: #0000ff"/>
     <use xlink:href="#mc62806d6d0" x="100.629898" y="255.658721" style="fill: #0000ff; stroke: #0000ff"/>
     <use xlink:href="#mc62806d6d0" x="100.669736" y="242.895169" style="fill: #0000ff; stroke: #0000ff"/>
     <use xlink:href="#mc62806d6d0" x="100.712894" y="242.895169" style="fill: #0000ff; stroke: #0000ff"/>
     <use xlink:href="#mc62806d6d0" x="100.759372" y="242.895169" style="fill: #0000ff; stroke: #0000ff"/>
     <use xlink:href="#mc62806d6d0" x="100.81249" y="242.895169" style="fill: #0000ff; stroke: #0000ff"/>
     <use xlink:href="#mc62806d6d0" x="100.868928" y="242.895169" style="fill: #0000ff; stroke: #0000ff"/>
     <use xlink:href="#mc62806d6d0" x="100.932005" y="242.895169" style="fill: #0000ff; stroke: #0000ff"/>
     <use xlink:href="#mc62806d6d0" x="101.001722" y="242.895169" style="fill: #0000ff; stroke: #0000ff"/>
     <use xlink:href="#mc62806d6d0" x="101.078079" y="230.131616" style="fill: #0000ff; stroke: #0000ff"/>
     <use xlink:href="#mc62806d6d0" x="101.161075" y="230.131616" style="fill: #0000ff; stroke: #0000ff"/>
     <use xlink:href="#mc62806d6d0" x="101.254032" y="230.131616" style="fill: #0000ff; stroke: #0000ff"/>
     <use xlink:href="#mc62806d6d0" x="101.356947" y="230.131616" style="fill: #0000ff; stroke: #0000ff"/>
     <use xlink:href="#mc62806d6d0" x="101.469822" y="230.131616" style="fill: #0000ff; stroke: #0000ff"/>
     <use xlink:href="#mc62806d6d0" x="101.592657" y="230.131616" style="fill: #0000ff; stroke: #0000ff"/>
     <use xlink:href="#mc62806d6d0" x="101.728772" y="230.131616" style="fill: #0000ff; stroke: #0000ff"/>
     <use xlink:href="#mc62806d6d0" x="101.878165" y="230.131616" style="fill: #0000ff; stroke: #0000ff"/>
     <use xlink:href="#mc62806d6d0" x="102.044159" y="217.368064" style="fill: #0000ff; stroke: #0000ff"/>
     <use xlink:href="#mc62806d6d0" x="102.226751" y="217.368064" style="fill: #0000ff; stroke: #0000ff"/>
     <use xlink:href="#mc62806d6d0" x="102.425943" y="217.368064" style="fill: #0000ff; stroke: #0000ff"/>
     <use xlink:href="#mc62806d6d0" x="102.645053" y="217.368064" style="fill: #0000ff; stroke: #0000ff"/>
     <use xlink:href="#mc62806d6d0" x="102.887403" y="217.368064" style="fill: #0000ff; stroke: #0000ff"/>
     <use xlink:href="#mc62806d6d0" x="103.152992" y="217.368064" style="fill: #0000ff; stroke: #0000ff"/>
     <use xlink:href="#mc62806d6d0" x="103.44514" y="217.368064" style="fill: #0000ff; stroke: #0000ff"/>
     <use xlink:href="#mc62806d6d0" x="103.767167" y="204.604511" style="fill: #0000ff; stroke: #0000ff"/>
     <use xlink:href="#mc62806d6d0" x="104.119072" y="204.604511" style="fill: #0000ff; stroke: #0000ff"/>
     <use xlink:href="#mc62806d6d0" x="104.507496" y="204.604511" style="fill: #0000ff; stroke: #0000ff"/>
     <use xlink:href="#mc62806d6d0" x="104.935758" y="204.604511" style="fill: #0000ff; stroke: #0000ff"/>
     <use xlink:href="#mc62806d6d0" x="105.407178" y="204.604511" style="fill: #0000ff; stroke: #0000ff"/>
     <use xlink:href="#mc62806d6d0" x="105.925076" y="204.604511" style="fill: #0000ff; stroke: #0000ff"/>
     <use xlink:href="#mc62806d6d0" x="106.492773" y="204.604511" style="fill: #0000ff; stroke: #0000ff"/>
     <use xlink:href="#mc62806d6d0" x="107.120227" y="191.840959" style="fill: #0000ff; stroke: #0000ff"/>
     <use xlink:href="#mc62806d6d0" x="107.807438" y="191.840959" style="fill: #0000ff; stroke: #0000ff"/>
     <use xlink:href="#mc62806d6d0" x="108.564366" y="191.840959" style="fill: #0000ff; stroke: #0000ff"/>
     <use xlink:href="#mc62806d6d0" x="109.397652" y="191.840959" style="fill: #0000ff; stroke: #0000ff"/>
     <use xlink:href="#mc62806d6d0" x="110.313933" y="191.840959" style="fill: #0000ff; stroke: #0000ff"/>
     <use xlink:href="#mc62806d6d0" x="111.323171" y="191.840959" style="fill: #0000ff; stroke: #0000ff"/>
     <use xlink:href="#mc62806d6d0" x="112.432005" y="191.840959" style="fill: #0000ff; stroke: #0000ff"/>
     <use xlink:href="#mc62806d6d0" x="113.650394" y="179.077406" style="fill: #0000ff; stroke: #0000ff"/>
     <use xlink:href="#mc62806d6d0" x="114.991618" y="179.077406" style="fill: #0000ff; stroke: #0000ff"/>
     <use xlink:href="#mc62806d6d0" x="116.468956" y="179.077406" style="fill: #0000ff; stroke: #0000ff"/>
     <use xlink:href="#mc62806d6d0" x="118.092369" y="179.077406" style="fill: #0000ff; stroke: #0000ff"/>
     <use xlink:href="#mc62806d6d0" x="119.878454" y="179.077406" style="fill: #0000ff; stroke: #0000ff"/>
     <use xlink:href="#mc62806d6d0" x="121.843812" y="179.077406" style="fill: #0000ff; stroke: #0000ff"/>
     <use xlink:href="#mc62806d6d0" x="124.005042" y="179.077406" style="fill: #0000ff; stroke: #0000ff"/>
     <use xlink:href="#mc62806d6d0" x="126.382062" y="179.077406" style="fill: #0000ff; stroke: #0000ff"/>
     <use xlink:href="#mc62806d6d0" x="128.998113" y="166.313853" style="fill: #0000ff; stroke: #0000ff"/>
     <use xlink:href="#mc62806d6d0" x="131.873113" y="166.313853" style="fill: #0000ff; stroke: #0000ff"/>
     <use xlink:href="#mc62806d6d0" x="135.036941" y="166.313853" style="fill: #0000ff; stroke: #0000ff"/>
     <use xlink:href="#mc62806d6d0" x="138.516156" y="166.313853" style="fill: #0000ff; stroke: #0000ff"/>
     <use xlink:href="#mc62806d6d0" x="142.343956" y="166.313853" style="fill: #0000ff; stroke: #0000ff"/>
     <use xlink:href="#mc62806d6d0" x="146.55354" y="166.313853" style="fill: #0000ff; stroke: #0000ff"/>
     <use xlink:href="#mc62806d6d0" x="151.184747" y="166.313853" style="fill: #0000ff; stroke: #0000ff"/>
     <use xlink:href="#mc62806d6d0" x="156.280734" y="153.550301" style="fill: #0000ff; stroke: #0000ff"/>
     <use xlink:href="#mc62806d6d0" x="161.88466" y="153.550301" style="fill: #0000ff; stroke: #0000ff"/>
     <use xlink:href="#mc62806d6d0" x="168.049643" y="153.550301" style="fill: #0000ff; stroke: #0000ff"/>
     <use xlink:href="#mc62806d6d0" x="174.83212" y="153.550301" style="fill: #0000ff; stroke: #0000ff"/>
     <use xlink:href="#mc62806d6d0" x="182.291848" y="153.550301" style="fill: #0000ff; stroke: #0000ff"/>
     <use xlink:href="#mc62806d6d0" x="190.498546" y="153.550301" style="fill: #0000ff; stroke: #0000ff"/>
     <use xlink:href="#mc62806d6d0" x="199.525249" y="153.550301" style="fill: #0000ff; stroke: #0000ff"/>
     <use xlink:href="#mc62806d6d0" x="209.454954" y="140.786748" style="fill: #0000ff; stroke: #0000ff"/>
     <use xlink:href="#mc62806d6d0" x="220.377298" y="140.786748" style="fill: #0000ff; stroke: #0000ff"/>
     <use xlink:href="#mc62806d6d0" x="232.391877" y="140.786748" style="fill: #0000ff; stroke: #0000ff"/>
     <use xlink:href="#mc62806d6d0" x="245.608245" y="140.786748" style="fill: #0000ff; stroke: #0000ff"/>
     <use xlink:href="#mc62806d6d0" x="260.145918" y="140.786748" style="fill: #0000ff; stroke: #0000ff"/>
     <use xlink:href="#mc62806d6d0" x="276.13769" y="140.786748" style="fill: #0000ff; stroke: #0000ff"/>
     <use xlink:href="#mc62806d6d0" x="293.729636" y="140.786748" style="fill: #0000ff; stroke: #0000ff"/>
     <use xlink:href="#mc62806d6d0" x="313.077788" y="128.023196" style="fill: #0000ff; stroke: #0000ff"/>
     <use xlink:href="#mc62806d6d0" x="334.361419" y="128.023196" style="fill: #0000ff; stroke: #0000ff"/>
     <use xlink:href="#mc62806d6d0" x="357.773082" y="128.023196" style="fill: #0000ff; stroke: #0000ff"/>
     <use xlink:href="#mc62806d6d0" x="383.528567" y="128.023196" style="fill: #0000ff; stroke: #0000ff"/>
     <use xlink:href="#mc62806d6d0" x="411.856944" y="128.023196" style="fill: #0000ff; stroke: #0000ff"/>
     <use xlink:href="#mc62806d6d0" x="443.020483" y="128.023196" style="fill: #0000ff; stroke: #0000ff"/>
     <use xlink:href="#mc62806d6d0" x="477.298052" y="128.023196" style="fill: #0000ff; stroke: #0000ff"/>
     <use xlink:href="#mc62806d6d0" x="515.005038" y="128.023196" style="fill: #0000ff; stroke: #0000ff"/>
     <use xlink:href="#mc62806d6d0" x="556.483386" y="115.259643" style="fill: #0000ff; stroke: #0000ff"/>
     <use xlink:href="#mc62806d6d0" x="602.108241" y="115.259643" style="fill: #0000ff; stroke: #0000ff"/>
     <use xlink:href="#mc62806d6d0" x="652.294586" y="115.259643" style="fill: #0000ff; stroke: #0000ff"/>
     <use xlink:href="#mc62806d6d0" x="707.500561" y="115.259643" style="fill: #0000ff; stroke: #0000ff"/>
    </g>
   </g>
   <g id="patch_3">
    <path d="M 69.906406 319.476484 
L 69.906406 106.325156 
" style="fill: none; stroke: #000000; stroke-width: 0.8; stroke-linejoin: miter; stroke-linecap: square"/>
   </g>
   <g id="patch_4">
    <path d="M 737.862188 319.476484 
L 737.862188 106.325156 
" style="fill: none; stroke: #000000; stroke-width: 0.8; stroke-linejoin: miter; stroke-linecap: square"/>
   </g>
   <g id="patch_5">
    <path d="M 69.906406 319.476484 
L 737.862188 319.476484 
" style="fill: none; stroke: #000000; stroke-width: 0.8; stroke-linejoin: miter; stroke-linecap: square"/>
   </g>
   <g id="patch_6">
    <path d="M 69.906406 106.325156 
L 737.862188 106.325156 
" style="fill: none; stroke: #000000; stroke-width: 0.8; stroke-linejoin: miter; stroke-linecap: square"/>
   </g>
   <g id="text_18">
    <!-- Comparações -->
    <g transform="translate(342.200547 100.325156) scale(0.18 -0.18)">
     <use xlink:href="#DejaVuSans-26"/>
     <use xlink:href="#DejaVuSans-52" transform="translate(69.828125 0)"/>
     <use xlink:href="#DejaVuSans-50" transform="translate(131.015625 0)"/>
     <use xlink:href="#DejaVuSans-53" transform="translate(228.421875 0)"/>
     <use xlink:href="#DejaVuSans-44" transform="translate(291.90625 0)"/>
     <use xlink:href="#DejaVuSans-55" transform="translate(353.1875 0)"/>
     <use xlink:href="#DejaVuSans-44" transform="translate(394.296875 0)"/>
     <use xlink:href="#DejaVuSans-a9" transform="translate(455.578125 0)"/>
     <use xlink:href="#DejaVuSans-b7" transform="translate(510.5625 0)"/>
     <use xlink:href="#DejaVuSans-48" transform="translate(571.75 0)"/>
     <use xlink:href="#DejaVuSans-56" transform="translate(633.28125 0)"/>
    </g>
   </g>
  </g>
  <g id="axes_2">
   <g id="patch_7">
    <path d="M 801.426406 319.476484 
L 1469.382188 319.476484 
L 1469.382188 106.325156 
L 801.426406 106.325156 
z
" style="fill: #ffffff"/>
   </g>
   <g id="matplotlib.axis_3">
    <g id="xtick_9">
     <g id="line2d_32">
      <path d="M 831.754834 319.476484 
L 831.754834 106.325156 
" clip-path="url(#p7b182c6871)" style="fill: none; stroke: #b0b0b0; stroke-opacity: 0.3; stroke-width: 0.8; stroke-linecap: square"/>
     </g>
     <g id="line2d_33">
      <g>
       <use xlink:href="#m381cb08d8f" x="831.754834" y="319.476484" style="stroke: #000000; stroke-width: 0.8"/>
      </g>
     </g>
     <g id="text_19">
      <!-- 0 -->
      <g transform="translate(826.982959 337.872969) scale(0.15 -0.15)">
       <use xlink:href="#DejaVuSans-13"/>
      </g>
     </g>
    </g>
    <g id="xtick_10">
     <g id="line2d_34">
      <path d="M 914.751369 319.476484 
L 914.751369 106.325156 
" clip-path="url(#p7b182c6871)" style="fill: none; stroke: #b0b0b0; stroke-opacity: 0.3; stroke-width: 0.8; stroke-linecap: square"/>
     </g>
     <g id="line2d_35">
      <g>
       <use xlink:href="#m381cb08d8f" x="914.751369" y="319.476484" style="stroke: #000000; stroke-width: 0.8"/>
      </g>
     </g>
     <g id="text_20">
      <!-- 25 mil -->
      <g transform="translate(891.351369 337.874141) scale(0.15 -0.15)">
       <use xlink:href="#DejaVuSans-15"/>
       <use xlink:href="#DejaVuSans-18" transform="translate(63.625 0)"/>
       <use xlink:href="#DejaVuSans-3" transform="translate(127.25 0)"/>
       <use xlink:href="#DejaVuSans-50" transform="translate(159.03125 0)"/>
       <use xlink:href="#DejaVuSans-4c" transform="translate(256.4375 0)"/>
       <use xlink:href="#DejaVuSans-4f" transform="translate(284.21875 0)"/>
      </g>
     </g>
    </g>
    <g id="xtick_11">
     <g id="line2d_36">
      <path d="M 997.747904 319.476484 
L 997.747904 106.325156 
" clip-path="url(#p7b182c6871)" style="fill: none; stroke: #b0b0b0; stroke-opacity: 0.3; stroke-width: 0.8; stroke-linecap: square"/>
     </g>
     <g id="line2d_37">
      <g>
       <use xlink:href="#m381cb08d8f" x="997.747904" y="319.476484" style="stroke: #000000; stroke-width: 0.8"/>
      </g>
     </g>
     <g id="text_21">
      <!-- 50 mil -->
      <g transform="translate(974.347904 337.874141) scale(0.15 -0.15)">
       <use xlink:href="#DejaVuSans-18"/>
       <use xlink:href="#DejaVuSans-13" transform="translate(63.625 0)"/>
       <use xlink:href="#DejaVuSans-3" transform="translate(127.25 0)"/>
       <use xlink:href="#DejaVuSans-50" transform="translate(159.03125 0)"/>
       <use xlink:href="#DejaVuSans-4c" transform="translate(256.4375 0)"/>
       <use xlink:href="#DejaVuSans-4f" transform="translate(284.21875 0)"/>
      </g>
     </g>
    </g>
    <g id="xtick_12">
     <g id="line2d_38">
      <path d="M 1080.744439 319.476484 
L 1080.744439 106.325156 
" clip-path="url(#p7b182c6871)" style="fill: none; stroke: #b0b0b0; stroke-opacity: 0.3; stroke-width: 0.8; stroke-linecap: square"/>
     </g>
     <g id="line2d_39">
      <g>
       <use xlink:href="#m381cb08d8f" x="1080.744439" y="319.476484" style="stroke: #000000; stroke-width: 0.8"/>
      </g>
     </g>
     <g id="text_22">
      <!-- 75 mil -->
      <g transform="translate(1057.344439 337.874141) scale(0.15 -0.15)">
       <use xlink:href="#DejaVuSans-1a"/>
       <use xlink:href="#DejaVuSans-18" transform="translate(63.625 0)"/>
       <use xlink:href="#DejaVuSans-3" transform="translate(127.25 0)"/>
       <use xlink:href="#DejaVuSans-50" transform="translate(159.03125 0)"/>
       <use xlink:href="#DejaVuSans-4c" transform="translate(256.4375 0)"/>
       <use xlink:href="#DejaVuSans-4f" transform="translate(284.21875 0)"/>
      </g>
     </g>
    </g>
    <g id="xtick_13">
     <g id="line2d_40">
      <path d="M 1163.740974 319.476484 
L 1163.740974 106.325156 
" clip-path="url(#p7b182c6871)" style="fill: none; stroke: #b0b0b0; stroke-opacity: 0.3; stroke-width: 0.8; stroke-linecap: square"/>
     </g>
     <g id="line2d_41">
      <g>
       <use xlink:href="#m381cb08d8f" x="1163.740974" y="319.476484" style="stroke: #000000; stroke-width: 0.8"/>
      </g>
     </g>
     <g id="text_23">
      <!-- 100 mil -->
      <g transform="translate(1135.569099 337.874141) scale(0.15 -0.15)">
       <use xlink:href="#DejaVuSans-14"/>
       <use xlink:href="#DejaVuSans-13" transform="translate(63.625 0)"/>
       <use xlink:href="#DejaVuSans-13" transform="translate(127.25 0)"/>
       <use xlink:href="#DejaVuSans-3" transform="translate(190.875 0)"/>
       <use xlink:href="#DejaVuSans-50" transform="translate(222.65625 0)"/>
       <use xlink:href="#DejaVuSans-4c" transform="translate(320.0625 0)"/>
       <use xlink:href="#DejaVuSans-4f" transform="translate(347.84375 0)"/>
      </g>
     </g>
    </g>
    <g id="xtick_14">
     <g id="line2d_42">
      <path d="M 1246.737509 319.476484 
L 1246.737509 106.325156 
" clip-path="url(#p7b182c6871)" style="fill: none; stroke: #b0b0b0; stroke-opacity: 0.3; stroke-width: 0.8; stroke-linecap: square"/>
     </g>
     <g id="line2d_43">
      <g>
       <use xlink:href="#m381cb08d8f" x="1246.737509" y="319.476484" style="stroke: #000000; stroke-width: 0.8"/>
      </g>
     </g>
     <g id="text_24">
      <!-- 125 mil -->
      <g transform="translate(1218.565634 337.874141) scale(0.15 -0.15)">
       <use xlink:href="#DejaVuSans-14"/>
       <use xlink:href="#DejaVuSans-15" transform="translate(63.625 0)"/>
       <use xlink:href="#DejaVuSans-18" transform="translate(127.25 0)"/>
       <use xlink:href="#DejaVuSans-3" transform="translate(190.875 0)"/>
       <use xlink:href="#DejaVuSans-50" transform="translate(222.65625 0)"/>
       <use xlink:href="#DejaVuSans-4c" transform="translate(320.0625 0)"/>
       <use xlink:href="#DejaVuSans-4f" transform="translate(347.84375 0)"/>
      </g>
     </g>
    </g>
    <g id="xtick_15">
     <g id="line2d_44">
      <path d="M 1329.734044 319.476484 
L 1329.734044 106.325156 
" clip-path="url(#p7b182c6871)" style="fill: none; stroke: #b0b0b0; stroke-opacity: 0.3; stroke-width: 0.8; stroke-linecap: square"/>
     </g>
     <g id="line2d_45">
      <g>
       <use xlink:href="#m381cb08d8f" x="1329.734044" y="319.476484" style="stroke: #000000; stroke-width: 0.8"/>
      </g>
     </g>
     <g id="text_25">
      <!-- 150 mil -->
      <g transform="translate(1301.562169 337.874141) scale(0.15 -0.15)">
       <use xlink:href="#DejaVuSans-14"/>
       <use xlink:href="#DejaVuSans-18" transform="translate(63.625 0)"/>
       <use xlink:href="#DejaVuSans-13" transform="translate(127.25 0)"/>
       <use xlink:href="#DejaVuSans-3" transform="translate(190.875 0)"/>
       <use xlink:href="#DejaVuSans-50" transform="translate(222.65625 0)"/>
       <use xlink:href="#DejaVuSans-4c" transform="translate(320.0625 0)"/>
       <use xlink:href="#DejaVuSans-4f" transform="translate(347.84375 0)"/>
      </g>
     </g>
    </g>
    <g id="xtick_16">
     <g id="line2d_46">
      <path d="M 1412.730579 319.476484 
L 1412.730579 106.325156 
" clip-path="url(#p7b182c6871)" style="fill: none; stroke: #b0b0b0; stroke-opacity: 0.3; stroke-width: 0.8; stroke-linecap: square"/>
     </g>
     <g id="line2d_47">
      <g>
       <use xlink:href="#m381cb08d8f" x="1412.730579" y="319.476484" style="stroke: #000000; stroke-width: 0.8"/>
      </g>
     </g>
     <g id="text_26">
      <!-- 175 mil -->
      <g transform="translate(1384.558704 337.874141) scale(0.15 -0.15)">
       <use xlink:href="#DejaVuSans-14"/>
       <use xlink:href="#DejaVuSans-1a" transform="translate(63.625 0)"/>
       <use xlink:href="#DejaVuSans-18" transform="translate(127.25 0)"/>
       <use xlink:href="#DejaVuSans-3" transform="translate(190.875 0)"/>
       <use xlink:href="#DejaVuSans-50" transform="translate(222.65625 0)"/>
       <use xlink:href="#DejaVuSans-4c" transform="translate(320.0625 0)"/>
       <use xlink:href="#DejaVuSans-4f" transform="translate(347.84375 0)"/>
      </g>
     </g>
    </g>
    <g id="text_27">
     <!-- n -->
     <g transform="translate(1129.700547 359.153437) scale(0.18 -0.18)">
      <use xlink:href="#DejaVuSans-51"/>
     </g>
    </g>
   </g>
   <g id="matplotlib.axis_4">
    <g id="ytick_8">
     <g id="line2d_48">
      <path d="M 801.426406 319.476484 
L 1469.382188 319.476484 
" clip-path="url(#p7b182c6871)" style="fill: none; stroke: #b0b0b0; stroke-opacity: 0.3; stroke-width: 0.8; stroke-linecap: square"/>
     </g>
     <g id="line2d_49">
      <g>
       <use xlink:href="#m19e6b5158b" x="801.426406" y="319.476484" style="stroke: #000000; stroke-width: 0.8"/>
      </g>
     </g>
     <g id="text_28">
      <!-- 0 -->
      <g transform="translate(784.882656 325.174727) scale(0.15 -0.15)">
       <use xlink:href="#DejaVuSans-13"/>
      </g>
     </g>
    </g>
    <g id="ytick_9">
     <g id="line2d_50">
      <path d="M 801.426406 285.087291 
L 1469.382188 285.087291 
" clip-path="url(#p7b182c6871)" style="fill: none; stroke: #b0b0b0; stroke-opacity: 0.3; stroke-width: 0.8; stroke-linecap: square"/>
     </g>
     <g id="line2d_51">
      <g>
       <use xlink:href="#m19e6b5158b" x="801.426406" y="285.087291" style="stroke: #000000; stroke-width: 0.8"/>
      </g>
     </g>
     <g id="text_29">
      <!-- 0,25 -->
      <g transform="translate(761.027969 290.785533) scale(0.15 -0.15)">
       <use xlink:href="#DejaVuSans-13"/>
       <use xlink:href="#DejaVuSans-f" transform="translate(63.625 0)"/>
       <use xlink:href="#DejaVuSans-15" transform="translate(95.40625 0)"/>
       <use xlink:href="#DejaVuSans-18" transform="translate(159.03125 0)"/>
      </g>
     </g>
    </g>
    <g id="ytick_10">
     <g id="line2d_52">
      <path d="M 801.426406 250.698097 
L 1469.382188 250.698097 
" clip-path="url(#p7b182c6871)" style="fill: none; stroke: #b0b0b0; stroke-opacity: 0.3; stroke-width: 0.8; stroke-linecap: square"/>
     </g>
     <g id="line2d_53">
      <g>
       <use xlink:href="#m19e6b5158b" x="801.426406" y="250.698097" style="stroke: #000000; stroke-width: 0.8"/>
      </g>
     </g>
     <g id="text_30">
      <!-- 0,5 -->
      <g transform="translate(770.571719 256.396339) scale(0.15 -0.15)">
       <use xlink:href="#DejaVuSans-13"/>
       <use xlink:href="#DejaVuSans-f" transform="translate(63.625 0)"/>
       <use xlink:href="#DejaVuSans-18" transform="translate(95.40625 0)"/>
      </g>
     </g>
    </g>
    <g id="ytick_11">
     <g id="line2d_54">
      <path d="M 801.426406 216.308903 
L 1469.382188 216.308903 
" clip-path="url(#p7b182c6871)" style="fill: none; stroke: #b0b0b0; stroke-opacity: 0.3; stroke-width: 0.8; stroke-linecap: square"/>
     </g>
     <g id="line2d_55">
      <g>
       <use xlink:href="#m19e6b5158b" x="801.426406" y="216.308903" style="stroke: #000000; stroke-width: 0.8"/>
      </g>
     </g>
     <g id="text_31">
      <!-- 0,75 -->
      <g transform="translate(761.027969 222.007145) scale(0.15 -0.15)">
       <use xlink:href="#DejaVuSans-13"/>
       <use xlink:href="#DejaVuSans-f" transform="translate(63.625 0)"/>
       <use xlink:href="#DejaVuSans-1a" transform="translate(95.40625 0)"/>
       <use xlink:href="#DejaVuSans-18" transform="translate(159.03125 0)"/>
      </g>
     </g>
    </g>
    <g id="ytick_12">
     <g id="line2d_56">
      <path d="M 801.426406 181.919709 
L 1469.382188 181.919709 
" clip-path="url(#p7b182c6871)" style="fill: none; stroke: #b0b0b0; stroke-opacity: 0.3; stroke-width: 0.8; stroke-linecap: square"/>
     </g>
     <g id="line2d_57">
      <g>
       <use xlink:href="#m19e6b5158b" x="801.426406" y="181.919709" style="stroke: #000000; stroke-width: 0.8"/>
      </g>
     </g>
     <g id="text_32">
      <!-- 1 -->
      <g transform="translate(784.882656 187.617951) scale(0.15 -0.15)">
       <use xlink:href="#DejaVuSans-14"/>
      </g>
     </g>
    </g>
    <g id="ytick_13">
     <g id="line2d_58">
      <path d="M 801.426406 147.530515 
L 1469.382188 147.530515 
" clip-path="url(#p7b182c6871)" style="fill: none; stroke: #b0b0b0; stroke-opacity: 0.3; stroke-width: 0.8; stroke-linecap: square"/>
     </g>
     <g id="line2d_59">
      <g>
       <use xlink:href="#m19e6b5158b" x="801.426406" y="147.530515" style="stroke: #000000; stroke-width: 0.8"/>
      </g>
     </g>
     <g id="text_33">
      <!-- 1,25 -->
      <g transform="translate(761.027969 153.228757) scale(0.15 -0.15)">
       <use xlink:href="#DejaVuSans-14"/>
       <use xlink:href="#DejaVuSans-f" transform="translate(63.625 0)"/>
       <use xlink:href="#DejaVuSans-15" transform="translate(95.40625 0)"/>
       <use xlink:href="#DejaVuSans-18" transform="translate(159.03125 0)"/>
      </g>
     </g>
    </g>
    <g id="ytick_14">
     <g id="line2d_60">
      <path d="M 801.426406 113.141321 
L 1469.382188 113.141321 
" clip-path="url(#p7b182c6871)" style="fill: none; stroke: #b0b0b0; stroke-opacity: 0.3; stroke-width: 0.8; stroke-linecap: square"/>
     </g>
     <g id="line2d_61">
      <g>
       <use xlink:href="#m19e6b5158b" x="801.426406" y="113.141321" style="stroke: #000000; stroke-width: 0.8"/>
      </g>
     </g>
     <g id="text_34">
      <!-- 1,5 -->
      <g transform="translate(770.571719 118.839564) scale(0.15 -0.15)">
       <use xlink:href="#DejaVuSans-14"/>
       <use xlink:href="#DejaVuSans-f" transform="translate(63.625 0)"/>
       <use xlink:href="#DejaVuSans-18" transform="translate(95.40625 0)"/>
      </g>
     </g>
    </g>
    <g id="text_35">
     <!-- Tempo por 10 mil buscas (ms) -->
     <g transform="translate(752.70375 348.571602) rotate(-90) scale(0.18 -0.18)">
      <defs>
       <path id="DejaVuSans-37" d="M -19 4666 
L 3928 4666 
L 3928 4134 
L 2272 4134 
L 2272 0 
L 1638 0 
L 1638 4134 
L -19 4134 
L -19 4666 
z
" transform="scale(0.015625)"/>
       <path id="DejaVuSans-45" d="M 3116 1747 
Q 3116 2381 2855 2742 
Q 2594 3103 2138 3103 
Q 1681 3103 1420 2742 
Q 1159 2381 1159 1747 
Q 1159 1113 1420 752 
Q 1681 391 2138 391 
Q 2594 391 2855 752 
Q 3116 1113 3116 1747 
z
M 1159 2969 
Q 1341 3281 1617 3432 
Q 1894 3584 2278 3584 
Q 2916 3584 3314 3078 
Q 3713 2572 3713 1747 
Q 3713 922 3314 415 
Q 2916 -91 2278 -91 
Q 1894 -91 1617 61 
Q 1341 213 1159 525 
L 1159 0 
L 581 0 
L 581 4863 
L 1159 4863 
L 1159 2969 
z
" transform="scale(0.015625)"/>
       <path id="DejaVuSans-58" d="M 544 1381 
L 544 3500 
L 1119 3500 
L 1119 1403 
Q 1119 906 1312 657 
Q 1506 409 1894 409 
Q 2359 409 2629 706 
Q 2900 1003 2900 1516 
L 2900 3500 
L 3475 3500 
L 3475 0 
L 2900 0 
L 2900 538 
Q 2691 219 2414 64 
Q 2138 -91 1772 -91 
Q 1169 -91 856 284 
Q 544 659 544 1381 
z
M 1991 3584 
L 1991 3584 
z
" transform="scale(0.015625)"/>
       <path id="DejaVuSans-46" d="M 3122 3366 
L 3122 2828 
Q 2878 2963 2633 3030 
Q 2388 3097 2138 3097 
Q 1578 3097 1268 2742 
Q 959 2388 959 1747 
Q 959 1106 1268 751 
Q 1578 397 2138 397 
Q 2388 397 2633 464 
Q 2878 531 3122 666 
L 3122 134 
Q 2881 22 2623 -34 
Q 2366 -91 2075 -91 
Q 1284 -91 818 406 
Q 353 903 353 1747 
Q 353 2603 823 3093 
Q 1294 3584 2113 3584 
Q 2378 3584 2631 3529 
Q 2884 3475 3122 3366 
z
" transform="scale(0.015625)"/>
       <path id="DejaVuSans-b" d="M 1984 4856 
Q 1566 4138 1362 3434 
Q 1159 2731 1159 2009 
Q 1159 1288 1364 580 
Q 1569 -128 1984 -844 
L 1484 -844 
Q 1016 -109 783 600 
Q 550 1309 550 2009 
Q 550 2706 781 3412 
Q 1013 4119 1484 4856 
L 1984 4856 
z
" transform="scale(0.015625)"/>
       <path id="DejaVuSans-c" d="M 513 4856 
L 1013 4856 
Q 1481 4119 1714 3412 
Q 1947 2706 1947 2009 
Q 1947 1309 1714 600 
Q 1481 -109 1013 -844 
L 513 -844 
Q 928 -128 1133 580 
Q 1338 1288 1338 2009 
Q 1338 2731 1133 3434 
Q 928 4138 513 4856 
z
" transform="scale(0.015625)"/>
      </defs>
      <use xlink:href="#DejaVuSans-37"/>
      <use xlink:href="#DejaVuSans-48" transform="translate(44.09375 0)"/>
      <use xlink:href="#DejaVuSans-50" transform="translate(105.625 0)"/>
      <use xlink:href="#DejaVuSans-53" transform="translate(203.03125 0)"/>
      <use xlink:href="#DejaVuSans-52" transform="translate(266.515625 0)"/>
      <use xlink:href="#DejaVuSans-3" transform="translate(327.703125 0)"/>
      <use xlink:href="#DejaVuSans-53" transform="translate(359.484375 0)"/>
      <use xlink:href="#DejaVuSans-52" transform="translate(422.96875 0)"/>
      <use xlink:href="#DejaVuSans-55" transform="translate(484.15625 0)"/>
      <use xlink:href="#DejaVuSans-3" transform="translate(525.265625 0)"/>
      <use xlink:href="#DejaVuSans-14" transform="translate(557.046875 0)"/>
      <use xlink:href="#DejaVuSans-13" transform="translate(620.671875 0)"/>
      <use xlink:href="#DejaVuSans-3" transform="translate(684.296875 0)"/>
      <use xlink:href="#DejaVuSans-50" transform="translate(716.078125 0)"/>
      <use xlink:href="#DejaVuSans-4c" transform="translate(813.484375 0)"/>
      <use xlink:href="#DejaVuSans-4f" transform="translate(841.265625 0)"/>
      <use xlink:href="#DejaVuSans-3" transform="translate(869.046875 0)"/>
      <use xlink:href="#DejaVuSans-45" transform="translate(900.828125 0)"/>
      <use xlink:href="#DejaVuSans-58" transform="translate(964.3125 0)"/>
      <use xlink:href="#DejaVuSans-56" transform="translate(1027.6875 0)"/>
      <use xlink:href="#DejaVuSans-46" transform="translate(1079.78125 0)"/>
      <use xlink:href="#DejaVuSans-44" transform="translate(1134.765625 0)"/>
      <use xlink:href="#DejaVuSans-56" transform="translate(1196.046875 0)"/>
      <use xlink:href="#DejaVuSans-3" transform="translate(1248.140625 0)"/>
      <use xlink:href="#DejaVuSans-b" transform="translate(1279.921875 0)"/>
      <use xlink:href="#DejaVuSans-50" transform="translate(1318.9375 0)"/>
      <use xlink:href="#DejaVuSans-56" transform="translate(1416.34375 0)"/>
      <use xlink:href="#DejaVuSans-c" transform="translate(1468.4375 0)"/>
     </g>
    </g>
   </g>
   <g id="line2d_62">
    <path d="M 831.788033 309.497291 
L 831.791353 310.578005 
L 831.794672 311.65872 
L 831.797992 311.793457 
L 831.801312 311.869457 
L 831.804632 311.869457 
L 831.811272 311.928194 
L 831.817911 312.030811 
L 831.824551 312.030811 
L 831.831191 311.945664 
L 831.837831 311.945664 
L 831.84779 311.869457 
L 831.85775 311.782246 
L 831.867709 311.573573 
L 831.877669 311.46958 
L 831.890948 311.088685 
L 831.904228 310.916464 
L 831.920827 310.875747 
L 831.937426 310.503931 
L 831.957346 310.479171 
L 831.977265 309.959344 
L 832.000504 309.899919 
L 832.023743 309.878185 
L 832.050302 309.444331 
L 832.08018 309.418195 
L 832.113379 308.783371 
L 832.149898 308.772366 
L 832.189736 308.702488 
L 832.232894 308.382118 
L 832.279372 308.290505 
L 832.33249 308.185274 
L 832.388928 307.917726 
L 832.452005 307.116871 
L 832.521722 306.661145 
L 832.598079 306.541746 
L 832.681075 305.896054 
L 832.774032 304.328044 
L 832.876947 304.129825 
L 832.989822 303.919914 
L 833.112657 303.81991 
L 833.248772 303.174356 
L 833.398165 297.892038 
L 833.564159 297.014976 
L 833.746751 283.205927 
L 833.945943 282.209465 
L 834.165053 277.135821 
L 834.407403 274.884017 
L 834.672992 270.413146 
L 834.96514 269.455063 
L 835.287167 266.743957 
L 835.639072 262.505833 
L 836.027496 254.864141 
L 836.455758 253.934808 
L 836.927178 249.388556 
L 837.445076 248.600493 
L 838.012773 245.153733 
L 838.640227 242.090344 
L 839.327438 240.852058 
L 840.084366 240.322052 
L 840.917652 236.509941 
L 841.833933 236.399483 
L 842.843171 232.842677 
L 843.952005 231.545379 
L 845.170394 230.563774 
L 846.511618 229.213379 
L 847.988956 227.957761 
L 849.612369 227.453203 
L 851.398454 225.598525 
L 853.363812 223.66819 
L 855.525042 222.185328 
L 857.902062 219.191543 
L 860.518113 217.544025 
L 863.393113 215.336101 
L 866.556941 210.346917 
L 870.036156 209.528317 
L 873.863956 206.313477 
L 878.07354 204.928556 
L 882.704747 200.862653 
L 887.800734 200.739402 
L 893.40466 200.739402 
L 899.569643 198.139304 
L 906.35212 191.58995 
L 913.811848 187.193361 
L 922.018546 186.642171 
L 931.045249 184.87663 
L 940.974954 176.122791 
L 951.897298 175.881379 
L 963.911877 155.042491 
L 977.128245 155.042491 
L 991.665918 147.986791 
L 1007.65769 147.986791 
L 1025.249636 141.558901 
L 1044.597788 136.540554 
L 1065.881419 136.540554 
L 1089.293082 136.88651 
L 1115.048567 136.540554 
L 1143.376944 136.540554 
L 1174.540483 136.540554 
L 1208.818052 136.540554 
L 1246.525038 133.615134 
L 1288.003386 125.310075 
L 1333.628241 117.005016 
L 1383.814586 116.56284 
L 1439.020561 116.120664 
" clip-path="url(#p7b182c6871)" style="fill: none; stroke: #0000ff; stroke-width: 2.5; stroke-linecap: square"/>
    <g clip-path="url(#p7b182c6871)">
     <use xlink:href="#mc62806d6d0" x="831.788033" y="309.497291" style="fill: #0000ff; stroke: #0000ff"/>
     <use xlink:href="#mc62806d6d0" x="831.791353" y="310.578005" style="fill: #0000ff; stroke: #0000ff"/>
     <use xlink:href="#mc62806d6d0" x="831.794672" y="311.65872" style="fill: #0000ff; stroke: #0000ff"/>
     <use xlink:href="#mc62806d6d0" x="831.797992" y="311.793457" style="fill: #0000ff; stroke: #0000ff"/>
     <use xlink:href="#mc62806d6d0" x="831.801312" y="311.869457" style="fill: #0000ff; stroke: #0000ff"/>
     <use xlink:href="#mc62806d6d0" x="831.804632" y="311.869457" style="fill: #0000ff; stroke: #0000ff"/>
     <use xlink:href="#mc62806d6d0" x="831.811272" y="311.928194" style="fill: #0000ff; stroke: #0000ff"/>
     <use xlink:href="#mc62806d6d0" x="831.817911" y="312.030811" style="fill: #0000ff; stroke: #0000ff"/>
     <use xlink:href="#mc62806d6d0" x="831.824551" y="312.030811" style="fill: #0000ff; stroke: #0000ff"/>
     <use xlink:href="#mc62806d6d0" x="831.831191" y="311.945664" style="fill: #0000ff; stroke: #0000ff"/>
     <use xlink:href="#mc62806d6d0" x="831.837831" y="311.945664" style="fill: #0000ff; stroke: #0000ff"/>
     <use xlink:href="#mc62806d6d0" x="831.84779" y="311.869457" style="fill: #0000ff; stroke: #0000ff"/>
     <use xlink:href="#mc62806d6d0" x="831.85775" y="311.782246" style="fill: #0000ff; stroke: #0000ff"/>
     <use xlink:href="#mc62806d6d0" x="831.867709" y="311.573573" style="fill: #0000ff; stroke: #0000ff"/>
     <use xlink:href="#mc62806d6d0" x="831.877669" y="311.46958" style="fill: #0000ff; stroke: #0000ff"/>
     <use xlink:href="#mc62806d6d0" x="831.890948" y="311.088685" style="fill: #0000ff; stroke: #0000ff"/>
     <use xlink:href="#mc62806d6d0" x="831.904228" y="310.916464" style="fill: #0000ff; stroke: #0000ff"/>
     <use xlink:href="#mc62806d6d0" x="831.920827" y="310.875747" style="fill: #0000ff; stroke: #0000ff"/>
     <use xlink:href="#mc62806d6d0" x="831.937426" y="310.503931" style="fill: #0000ff; stroke: #0000ff"/>
     <use xlink:href="#mc62806d6d0" x="831.957346" y="310.479171" style="fill: #0000ff; stroke: #0000ff"/>
     <use xlink:href="#mc62806d6d0" x="831.977265" y="309.959344" style="fill: #0000ff; stroke: #0000ff"/>
     <use xlink:href="#mc62806d6d0" x="832.000504" y="309.899919" style="fill: #0000ff; stroke: #0000ff"/>
     <use xlink:href="#mc62806d6d0" x="832.023743" y="309.878185" style="fill: #0000ff; stroke: #0000ff"/>
     <use xlink:href="#mc62806d6d0" x="832.050302" y="309.444331" style="fill: #0000ff; stroke: #0000ff"/>
     <use xlink:href="#mc62806d6d0" x="832.08018" y="309.418195" style="fill: #0000ff; stroke: #0000ff"/>
     <use xlink:href="#mc62806d6d0" x="832.113379" y="308.783371" style="fill: #0000ff; stroke: #0000ff"/>
     <use xlink:href="#mc62806d6d0" x="832.149898" y="308.772366" style="fill: #0000ff; stroke: #0000ff"/>
     <use xlink:href="#mc62806d6d0" x="832.189736" y="308.702488" style="fill: #0000ff; stroke: #0000ff"/>
     <use xlink:href="#mc62806d6d0" x="832.232894" y="308.382118" style="fill: #0000ff; stroke: #0000ff"/>
     <use xlink:href="#mc62806d6d0" x="832.279372" y="308.290505" style="fill: #0000ff; stroke: #0000ff"/>
     <use xlink:href="#mc62806d6d0" x="832.33249" y="308.185274" style="fill: #0000ff; stroke: #0000ff"/>
     <use xlink:href="#mc62806d6d0" x="832.388928" y="307.917726" style="fill: #0000ff; stroke: #0000ff"/>
     <use xlink:href="#mc62806d6d0" x="832.452005" y="307.116871" style="fill: #0000ff; stroke: #0000ff"/>
     <use xlink:href="#mc62806d6d0" x="832.521722" y="306.661145" style="fill: #0000ff; stroke: #0000ff"/>
     <use xlink:href="#mc62806d6d0" x="832.598079" y="306.541746" style="fill: #0000ff; stroke: #0000ff"/>
     <use xlink:href="#mc62806d6d0" x="832.681075" y="305.896054" style="fill: #0000ff; stroke: #0000ff"/>
     <use xlink:href="#mc62806d6d0" x="832.774032" y="304.328044" style="fill: #0000ff; stroke: #0000ff"/>
     <use xlink:href="#mc62806d6d0" x="832.876947" y="304.129825" style="fill: #0000ff; stroke: #0000ff"/>
     <use xlink:href="#mc62806d6d0" x="832.989822" y="303.919914" style="fill: #0000ff; stroke: #0000ff"/>
     <use xlink:href="#mc62806d6d0" x="833.112657" y="303.81991" style="fill: #0000ff; stroke: #0000ff"/>
     <use xlink:href="#mc62806d6d0" x="833.248772" y="303.174356" style="fill: #0000ff; stroke: #0000ff"/>
     <use xlink:href="#mc62806d6d0" x="833.398165" y="297.892038" style="fill: #0000ff; stroke: #0000ff"/>
     <use xlink:href="#mc62806d6d0" x="833.564159" y="297.014976" style="fill: #0000ff; stroke: #0000ff"/>
     <use xlink:href="#mc62806d6d0" x="833.746751" y="283.205927" style="fill: #0000ff; stroke: #0000ff"/>
     <use xlink:href="#mc62806d6d0" x="833.945943" y="282.209465" style="fill: #0000ff; stroke: #0000ff"/>
     <use xlink:href="#mc62806d6d0" x="834.165053" y="277.135821" style="fill: #0000ff; stroke: #0000ff"/>
     <use xlink:href="#mc62806d6d0" x="834.407403" y="274.884017" style="fill: #0000ff; stroke: #0000ff"/>
     <use xlink:href="#mc62806d6d0" x="834.672992" y="270.413146" style="fill: #0000ff; stroke: #0000ff"/>
     <use xlink:href="#mc62806d6d0" x="834.96514" y="269.455063" style="fill: #0000ff; stroke: #0000ff"/>
     <use xlink:href="#mc62806d6d0" x="835.287167" y="266.743957" style="fill: #0000ff; stroke: #0000ff"/>
     <use xlink:href="#mc62806d6d0" x="835.639072" y="262.505833" style="fill: #0000ff; stroke: #0000ff"/>
     <use xlink:href="#mc62806d6d0" x="836.027496" y="254.864141" style="fill: #0000ff; stroke: #0000ff"/>
     <use xlink:href="#mc62806d6d0" x="836.455758" y="253.934808" style="fill: #0000ff; stroke: #0000ff"/>
     <use xlink:href="#mc62806d6d0" x="836.927178" y="249.388556" style="fill: #0000ff; stroke: #0000ff"/>
     <use xlink:href="#mc62806d6d0" x="837.445076" y="248.600493" style="fill: #0000ff; stroke: #0000ff"/>
     <use xlink:href="#mc62806d6d0" x="838.012773" y="245.153733" style="fill: #0000ff; stroke: #0000ff"/>
     <use xlink:href="#mc62806d6d0" x="838.640227" y="242.090344" style="fill: #0000ff; stroke: #0000ff"/>
     <use xlink:href="#mc62806d6d0" x="839.327438" y="240.852058" style="fill: #0000ff; stroke: #0000ff"/>
     <use xlink:href="#mc62806d6d0" x="840.084366" y="240.322052" style="fill: #0000ff; stroke: #0000ff"/>
     <use xlink:href="#mc62806d6d0" x="840.917652" y="236.509941" style="fill: #0000ff; stroke: #0000ff"/>
     <use xlink:href="#mc62806d6d0" x="841.833933" y="236.399483" style="fill: #0000ff; stroke: #0000ff"/>
     <use xlink:href="#mc62806d6d0" x="842.843171" y="232.842677" style="fill: #0000ff; stroke: #0000ff"/>
     <use xlink:href="#mc62806d6d0" x="843.952005" y="231.545379" style="fill: #0000ff; stroke: #0000ff"/>
     <use xlink:href="#mc62806d6d0" x="845.170394" y="230.563774" style="fill: #0000ff; stroke: #0000ff"/>
     <use xlink:href="#mc62806d6d0" x="846.511618" y="229.213379" style="fill: #0000ff; stroke: #0000ff"/>
     <use xlink:href="#mc62806d6d0" x="847.988956" y="227.957761" style="fill: #0000ff; stroke: #0000ff"/>
     <use xlink:href="#mc62806d6d0" x="849.612369" y="227.453203" style="fill: #0000ff; stroke: #0000ff"/>
     <use xlink:href="#mc62806d6d0" x="851.398454" y="225.598525" style="fill: #0000ff; stroke: #0000ff"/>
     <use xlink:href="#mc62806d6d0" x="853.363812" y="223.66819" style="fill: #0000ff; stroke: #0000ff"/>
     <use xlink:href="#mc62806d6d0" x="855.525042" y="222.185328" style="fill: #0000ff; stroke: #0000ff"/>
     <use xlink:href="#mc62806d6d0" x="857.902062" y="219.191543" style="fill: #0000ff; stroke: #0000ff"/>
     <use xlink:href="#mc62806d6d0" x="860.518113" y="217.544025" style="fill: #0000ff; stroke: #0000ff"/>
     <use xlink:href="#mc62806d6d0" x="863.393113" y="215.336101" style="fill: #0000ff; stroke: #0000ff"/>
     <use xlink:href="#mc62806d6d0" x="866.556941" y="210.346917" style="fill: #0000ff; stroke: #0000ff"/>
     <use xlink:href="#mc62806d6d0" x="870.036156" y="209.528317" style="fill: #0000ff; stroke: #0000ff"/>
     <use xlink:href="#mc62806d6d0" x="873.863956" y="206.313477" style="fill: #0000ff; stroke: #0000ff"/>
     <use xlink:href="#mc62806d6d0" x="878.07354" y="204.928556" style="fill: #0000ff; stroke: #0000ff"/>
     <use xlink:href="#mc62806d6d0" x="882.704747" y="200.862653" style="fill: #0000ff; stroke: #0000ff"/>
     <use xlink:href="#mc62806d6d0" x="887.800734" y="200.739402" style="fill: #0000ff; stroke: #0000ff"/>
     <use xlink:href="#mc62806d6d0" x="893.40466" y="200.739402" style="fill: #0000ff; stroke: #0000ff"/>
     <use xlink:href="#mc62806d6d0" x="899.569643" y="198.139304" style="fill: #0000ff; stroke: #0000ff"/>
     <use xlink:href="#mc62806d6d0" x="906.35212" y="191.58995" style="fill: #0000ff; stroke: #0000ff"/>
     <use xlink:href="#mc62806d6d0" x="913.811848" y="187.193361" style="fill: #0000ff; stroke: #0000ff"/>
     <use xlink:href="#mc62806d6d0" x="922.018546" y="186.642171" style="fill: #0000ff; stroke: #0000ff"/>
     <use xlink:href="#mc62806d6d0" x="931.045249" y="184.87663" style="fill: #0000ff; stroke: #0000ff"/>
     <use xlink:href="#mc62806d6d0" x="940.974954" y="176.122791" style="fill: #0000ff; stroke: #0000ff"/>
     <use xlink:href="#mc62806d6d0" x="951.897298" y="175.881379" style="fill: #0000ff; stroke: #0000ff"/>
     <use xlink:href="#mc62806d6d0" x="963.911877" y="155.042491" style="fill: #0000ff; stroke: #0000ff"/>
     <use xlink:href="#mc62806d6d0" x="977.128245" y="155.042491" style="fill: #0000ff; stroke: #0000ff"/>
     <use xlink:href="#mc62806d6d0" x="991.665918" y="147.986791" style="fill: #0000ff; stroke: #0000ff"/>
     <use xlink:href="#mc62806d6d0" x="1007.65769" y="147.986791" style="fill: #0000ff; stroke: #0000ff"/>
     <use xlink:href="#mc62806d6d0" x="1025.249636" y="141.558901" style="fill: #0000ff; stroke: #0000ff"/>
     <use xlink:href="#mc62806d6d0" x="1044.597788" y="136.540554" style="fill: #0000ff; stroke: #0000ff"/>
     <use xlink:href="#mc62806d6d0" x="1065.881419" y="136.540554" style="fill: #0000ff; stroke: #0000ff"/>
     <use xlink:href="#mc62806d6d0" x="1089.293082" y="136.88651" style="fill: #0000ff; stroke: #0000ff"/>
     <use xlink:href="#mc62806d6d0" x="1115.048567" y="136.540554" style="fill: #0000ff; stroke: #0000ff"/>
     <use xlink:href="#mc62806d6d0" x="1143.376944" y="136.540554" style="fill: #0000ff; stroke: #0000ff"/>
     <use xlink:href="#mc62806d6d0" x="1174.540483" y="136.540554" style="fill: #0000ff; stroke: #0000ff"/>
     <use xlink:href="#mc62806d6d0" x="1208.818052" y="136.540554" style="fill: #0000ff; stroke: #0000ff"/>
     <use xlink:href="#mc62806d6d0" x="1246.525038" y="133.615134" style="fill: #0000ff; stroke: #0000ff"/>
     <use xlink:href="#mc62806d6d0" x="1288.003386" y="125.310075" style="fill: #0000ff; stroke: #0000ff"/>
     <use xlink:href="#mc62806d6d0" x="1333.628241" y="117.005016" style="fill: #0000ff; stroke: #0000ff"/>
     <use xlink:href="#mc62806d6d0" x="1383.814586" y="116.56284" style="fill: #0000ff; stroke: #0000ff"/>
     <use xlink:href="#mc62806d6d0" x="1439.020561" y="116.120664" style="fill: #0000ff; stroke: #0000ff"/>
    </g>
   </g>
   <g id="patch_8">
    <path d="M 801.426406 319.476484 
L 801.426406 106.325156 
" style="fill: none; stroke: #000000; stroke-width: 0.8; stroke-linejoin: miter; stroke-linecap: square"/>
   </g>
   <g id="patch_9">
    <path d="M 1469.382188 319.476484 
L 1469.382188 106.325156 
" style="fill: none; stroke: #000000; stroke-width: 0.8; stroke-linejoin: miter; stroke-linecap: square"/>
   </g>
   <g id="patch_10">
    <path d="M 801.426406 319.476484 
L 1469.382188 319.476484 
" style="fill: none; stroke: #000000; stroke-width: 0.8; stroke-linejoin: miter; stroke-linecap: square"/>
   </g>
   <g id="patch_11">
    <path d="M 801.426406 106.325156 
L 1469.382188 106.325156 
" style="fill: none; stroke: #000000; stroke-width: 0.8; stroke-linejoin: miter; stroke-linecap: square"/>
   </g>
   <g id="text_36">
    <!-- Tempo por 10 mil buscas (ms) -->
    <g transform="translate(999.733516 100.325156) scale(0.18 -0.18)">
     <use xlink:href="#DejaVuSans-37"/>
     <use xlink:href="#DejaVuSans-48" transform="translate(44.09375 0)"/>
     <use xlink:href="#DejaVuSans-50" transform="translate(105.625 0)"/>
     <use xlink:href="#DejaVuSans-53" transform="translate(203.03125 0)"/>
     <use xlink:href="#DejaVuSans-52" transform="translate(266.515625 0)"/>
     <use xlink:href="#DejaVuSans-3" transform="translate(327.703125 0)"/>
     <use xlink:href="#DejaVuSans-53" transform="translate(359.484375 0)"/>
     <use xlink:href="#DejaVuSans-52" transform="translate(422.96875 0)"/>
     <use xlink:href="#DejaVuSans-55" transform="translate(484.15625 0)"/>
     <use xlink:href="#DejaVuSans-3" transform="translate(525.265625 0)"/>
     <use xlink:href="#DejaVuSans-14" transform="translate(557.046875 0)"/>
     <use xlink:href="#DejaVuSans-13" transform="translate(620.671875 0)"/>
     <use xlink:href="#DejaVuSans-3" transform="translate(684.296875 0)"/>
     <use xlink:href="#DejaVuSans-50" transform="translate(716.078125 0)"/>
     <use xlink:href="#DejaVuSans-4c" transform="translate(813.484375 0)"/>
     <use xlink:href="#DejaVuSans-4f" transform="translate(841.265625 0)"/>
     <use xlink:href="#DejaVuSans-3" transform="translate(869.046875 0)"/>
     <use xlink:href="#DejaVuSans-45" transform="translate(900.828125 0)"/>
     <use xlink:href="#DejaVuSans-58" transform="translate(964.3125 0)"/>
     <use xlink:href="#DejaVuSans-56" transform="translate(1027.6875 0)"/>
     <use xlink:href="#DejaVuSans-46" transform="translate(1079.78125 0)"/>
     <use xlink:href="#DejaVuSans-44" transform="translate(1134.765625 0)"/>
     <use xlink:href="#DejaVuSans-56" transform="translate(1196.046875 0)"/>
     <use xlink:href="#DejaVuSans-3" transform="translate(1248.140625 0)"/>
     <use xlink:href="#DejaVuSans-b" transform="translate(1279.921875 0)"/>
     <use xlink:href="#DejaVuSans-50" transform="translate(1318.9375 0)"/>
     <use xlink:href="#DejaVuSans-56" transform="translate(1416.34375 0)"/>
     <use xlink:href="#DejaVuSans-c" transform="translate(1468.4375 0)"/>
    </g>
   </g>
  </g>
  <g id="text_37">
   <!-- Busca Binária -->
   <g transform="translate(661.219687 24.796562) scale(0.22 -0.22)">
    <defs>
     <path id="DejaVuSans-Bold-25" d="M 2456 2859 
Q 2741 2859 2887 2984 
Q 3034 3109 3034 3353 
Q 3034 3594 2887 3720 
Q 2741 3847 2456 3847 
L 1791 3847 
L 1791 2859 
L 2456 2859 
z
M 2497 819 
Q 2859 819 3042 972 
Q 3225 1125 3225 1434 
Q 3225 1738 3044 1889 
Q 2863 2041 2497 2041 
L 1791 2041 
L 1791 819 
L 2497 819 
z
M 3616 2497 
Q 4003 2384 4215 2081 
Q 4428 1778 4428 1338 
Q 4428 663 3972 331 
Q 3516 0 2584 0 
L 588 0 
L 588 4666 
L 2394 4666 
Q 3366 4666 3802 4372 
Q 4238 4078 4238 3431 
Q 4238 3091 4078 2852 
Q 3919 2613 3616 2497 
z
" transform="scale(0.015625)"/>
     <path id="DejaVuSans-Bold-58" d="M 500 1363 
L 500 3500 
L 1625 3500 
L 1625 3150 
Q 1625 2866 1622 2436 
Q 1619 2006 1619 1863 
Q 1619 1441 1641 1255 
Q 1663 1069 1716 984 
Q 1784 875 1895 815 
Q 2006 756 2150 756 
Q 2500 756 2700 1025 
Q 2900 1294 2900 1772 
L 2900 3500 
L 4019 3500 
L 4019 0 
L 2900 0 
L 2900 506 
Q 2647 200 2364 54 
Q 2081 -91 1741 -91 
Q 1134 -91 817 281 
Q 500 653 500 1363 
z
" transform="scale(0.015625)"/>
     <path id="DejaVuSans-Bold-56" d="M 3272 3391 
L 3272 2541 
Q 2913 2691 2578 2766 
Q 2244 2841 1947 2841 
Q 1628 2841 1473 2761 
Q 1319 2681 1319 2516 
Q 1319 2381 1436 2309 
Q 1553 2238 1856 2203 
L 2053 2175 
Q 2913 2066 3209 1816 
Q 3506 1566 3506 1031 
Q 3506 472 3093 190 
Q 2681 -91 1863 -91 
Q 1516 -91 1145 -36 
Q 775 19 384 128 
L 384 978 
Q 719 816 1070 734 
Q 1422 653 1784 653 
Q 2113 653 2278 743 
Q 2444 834 2444 1013 
Q 2444 1163 2330 1236 
Q 2216 1309 1875 1350 
L 1678 1375 
Q 931 1469 631 1722 
Q 331 1975 331 2491 
Q 331 3047 712 3315 
Q 1094 3584 1881 3584 
Q 2191 3584 2531 3537 
Q 2872 3491 3272 3391 
z
" transform="scale(0.015625)"/>
     <path id="DejaVuSans-Bold-46" d="M 3366 3391 
L 3366 2478 
Q 3138 2634 2908 2709 
Q 2678 2784 2431 2784 
Q 1963 2784 1702 2511 
Q 1441 2238 1441 1747 
Q 1441 1256 1702 982 
Q 1963 709 2431 709 
Q 2694 709 2930 787 
Q 3166 866 3366 1019 
L 3366 103 
Q 3103 6 2833 -42 
Q 2563 -91 2291 -91 
Q 1344 -91 809 395 
Q 275 881 275 1747 
Q 275 2613 809 3098 
Q 1344 3584 2291 3584 
Q 2566 3584 2833 3536 
Q 3100 3488 3366 3391 
z
" transform="scale(0.015625)"/>
     <path id="DejaVuSans-Bold-44" d="M 2106 1575 
Q 1756 1575 1579 1456 
Q 1403 1338 1403 1106 
Q 1403 894 1545 773 
Q 1688 653 1941 653 
Q 2256 653 2472 879 
Q 2688 1106 2688 1447 
L 2688 1575 
L 2106 1575 
z
M 3816 1997 
L 3816 0 
L 2688 0 
L 2688 519 
Q 2463 200 2181 54 
Q 1900 -91 1497 -91 
Q 953 -91 614 226 
Q 275 544 275 1050 
Q 275 1666 698 1953 
Q 1122 2241 2028 2241 
L 2688 2241 
L 2688 2328 
Q 2688 2594 2478 2717 
Q 2269 2841 1825 2841 
Q 1466 2841 1156 2769 
Q 847 2697 581 2553 
L 581 3406 
Q 941 3494 1303 3539 
Q 1666 3584 2028 3584 
Q 2975 3584 3395 3211 
Q 3816 2838 3816 1997 
z
" transform="scale(0.015625)"/>
     <path id="DejaVuSans-Bold-3" transform="scale(0.015625)"/>
     <path id="DejaVuSans-Bold-4c" d="M 538 3500 
L 1656 3500 
L 1656 0 
L 538 0 
L 538 3500 
z
M 538 4863 
L 1656 4863 
L 1656 3950 
L 538 3950 
L 538 4863 
z
" transform="scale(0.015625)"/>
     <path id="DejaVuSans-Bold-51" d="M 4056 2131 
L 4056 0 
L 2931 0 
L 2931 347 
L 2931 1631 
Q 2931 2084 2911 2256 
Q 2891 2428 2841 2509 
Q 2775 2619 2662 2680 
Q 2550 2741 2406 2741 
Q 2056 2741 1856 2470 
Q 1656 2200 1656 1722 
L 1656 0 
L 538 0 
L 538 3500 
L 1656 3500 
L 1656 2988 
Q 1909 3294 2193 3439 
Q 2478 3584 2822 3584 
Q 3428 3584 3742 3212 
Q 4056 2841 4056 2131 
z
" transform="scale(0.015625)"/>
     <path id="DejaVuSans-Bold-a3" d="M 2106 1575 
Q 1756 1575 1579 1456 
Q 1403 1338 1403 1106 
Q 1403 894 1545 773 
Q 1688 653 1941 653 
Q 2256 653 2472 879 
Q 2688 1106 2688 1447 
L 2688 1575 
L 2106 1575 
z
M 3816 1997 
L 3816 0 
L 2688 0 
L 2688 519 
Q 2463 200 2181 54 
Q 1900 -91 1497 -91 
Q 953 -91 614 226 
Q 275 544 275 1050 
Q 275 1666 698 1953 
Q 1122 2241 2028 2241 
L 2688 2241 
L 2688 2328 
Q 2688 2594 2478 2717 
Q 2269 2841 1825 2841 
Q 1466 2841 1156 2769 
Q 847 2697 581 2553 
L 581 3406 
Q 941 3494 1303 3539 
Q 1666 3584 2028 3584 
Q 2975 3584 3395 3211 
Q 3816 2838 3816 1997 
z
M 2603 5119 
L 3487 5119 
L 2334 3944 
L 1722 3944 
L 2603 5119 
z
" transform="scale(0.015625)"/>
     <path id="DejaVuSans-Bold-55" d="M 3138 2547 
Q 2991 2616 2845 2648 
Q 2700 2681 2553 2681 
Q 2122 2681 1889 2404 
Q 1656 2128 1656 1613 
L 1656 0 
L 538 0 
L 538 3500 
L 1656 3500 
L 1656 2925 
Q 1872 3269 2151 3426 
Q 2431 3584 2822 3584 
Q 2878 3584 2943 3579 
Q 3009 3575 3134 3559 
L 3138 2547 
z
" transform="scale(0.015625)"/>
    </defs>
    <use xlink:href="#DejaVuSans-Bold-25"/>
    <use xlink:href="#DejaVuSans-Bold-58" transform="translate(76.21875 0)"/>
    <use xlink:href="#DejaVuSans-Bold-56" transform="translate(147.40625 0)"/>
    <use xlink:href="#DejaVuSans-Bold-46" transform="translate(206.921875 0)"/>
    <use xlink:href="#DejaVuSans-Bold-44" transform="translate(266.203125 0)"/>
    <use xlink:href="#DejaVuSans-Bold-3" transform="translate(333.6875 0)"/>
    <use xlink:href="#DejaVuSans-Bold-25" transform="translate(368.5 0)"/>
    <use xlink:href="#DejaVuSans-Bold-4c" transform="translate(444.71875 0)"/>
    <use xlink:href="#DejaVuSans-Bold-51" transform="translate(479 0)"/>
    <use xlink:href="#DejaVuSans-Bold-a3" transform="translate(550.1875 0)"/>
    <use xlink:href="#DejaVuSans-Bold-55" transform="translate(617.671875 0)"/>
    <use xlink:href="#DejaVuSans-Bold-4c" transform="translate(666.984375 0)"/>
    <use xlink:href="#DejaVuSans-Bold-44" transform="translate(701.265625 0)"/>
   </g>
  </g>
  <g id="legend_1">
   <g id="patch_12">
    <path d="M 658.185234 420.76 
L 818.396953 420.76 
Q 821.796953 420.76 821.796953 417.36 
L 821.796953 379.958672 
Q 821.796953 376.558672 818.396953 376.558672 
L 658.185234 376.558672 
Q 654.785234 376.558672 654.785234 379.958672 
L 654.785234 417.36 
Q 654.785234 420.76 658.185234 420.76 
z
" style="fill: #ffffff; opacity: 0.95; stroke: #808080; stroke-linejoin: miter"/>
   </g>
   <g id="line2d_63">
    <path d="M 668.385234 397.126016 
L 689.635234 397.126016 
L 710.885234 397.126016 
" style="fill: none; stroke: #0000ff; stroke-width: 2.5; stroke-linecap: square"/>
    <defs>
     <path id="mbcfa380e10" d="M 0 1.75 
C 0.464105 1.75 0.909265 1.565609 1.237437 1.237437 
C 1.565609 0.909265 1.75 0.464105 1.75 0 
C 1.75 -0.464105 1.565609 -0.909265 1.237437 -1.237437 
C 0.909265 -1.565609 0.464105 -1.75 0 -1.75 
C -0.464105 -1.75 -0.909265 -1.565609 -1.237437 -1.237437 
C -1.565609 -0.909265 -1.75 -0.464105 -1.75 0 
C -1.75 0.464105 -1.565609 0.909265 -1.237437 1.237437 
C -0.909265 1.565609 -0.464105 1.75 0 1.75 
z
" style="stroke: #0000ff"/>
    </defs>
    <g>
     <use xlink:href="#mbcfa380e10" x="689.635234" y="397.126016" style="fill: #0000ff; stroke: #0000ff"/>
    </g>
   </g>
   <g id="text_38">
    <!-- Ordenado -->
    <g transform="translate(724.485234 403.076016) scale(0.17 -0.17)">
     <defs>
      <path id="DejaVuSans-32" d="M 2522 4238 
Q 1834 4238 1429 3725 
Q 1025 3213 1025 2328 
Q 1025 1447 1429 934 
Q 1834 422 2522 422 
Q 3209 422 3611 934 
Q 4013 1447 4013 2328 
Q 4013 3213 3611 3725 
Q 3209 4238 2522 4238 
z
M 2522 4750 
Q 3503 4750 4090 4092 
Q 4678 3434 4678 2328 
Q 4678 1225 4090 567 
Q 3503 -91 2522 -91 
Q 1538 -91 948 565 
Q 359 1222 359 2328 
Q 359 3434 948 4092 
Q 1538 4750 2522 4750 
z
" transform="scale(0.015625)"/>
      <path id="DejaVuSans-47" d="M 2906 2969 
L 2906 4863 
L 3481 4863 
L 3481 0 
L 2906 0 
L 2906 525 
Q 2725 213 2448 61 
Q 2172 -91 1784 -91 
Q 1150 -91 751 415 
Q 353 922 353 1747 
Q 353 2572 751 3078 
Q 1150 3584 1784 3584 
Q 2172 3584 2448 3432 
Q 2725 3281 2906 2969 
z
M 947 1747 
Q 947 1113 1208 752 
Q 1469 391 1925 391 
Q 2381 391 2643 752 
Q 2906 1113 2906 1747 
Q 2906 2381 2643 2742 
Q 2381 3103 1925 3103 
Q 1469 3103 1208 2742 
Q 947 2381 947 1747 
z
" transform="scale(0.015625)"/>
     </defs>
     <use xlink:href="#DejaVuSans-32"/>
     <use xlink:href="#DejaVuSans-55" transform="translate(78.71875 0)"/>
     <use xlink:href="#DejaVuSans-47" transform="translate(118.078125 0)"/>
     <use xlink:href="#DejaVuSans-48" transform="translate(181.5625 0)"/>
     <use xlink:href="#DejaVuSans-51" transform="translate(243.09375 0)"/>
     <use xlink:href="#DejaVuSans-44" transform="translate(306.46875 0)"/>
     <use xlink:href="#DejaVuSans-47" transform="translate(367.75 0)"/>
     <use xlink:href="#DejaVuSans-52" transform="translate(431.234375 0)"/>
    </g>
   </g>
  </g>
 </g>
 <defs>
  <clipPath id="pfaf389c60a">
   <rect x="69.906406" y="106.325156" width="667.955781" height="213.151328"/>
  </clipPath>
  <clipPath id="p7b182c6871">
   <rect x="801.426406" y="106.325156" width="667.955781" height="213.151328"/>
  </clipPath>
 </defs>
</svg>
