<?xml version="1.0" encoding="utf-8" standalone="no"?>
<!DOCTYPE svg PUBLIC "-//W3C//DTD SVG 1.1//EN"
  "http://www.w3.org/Graphics/SVG/1.1/DTD/svg11.dtd">
<svg xmlns:xlink="http://www.w3.org/1999/xlink" width="1000.668125pt" height="569.087359pt" viewBox="0 0 1000.668125 569.087359" xmlns="http://www.w3.org/2000/svg" version="1.1">
 <metadata>
  <rdf:RDF xmlns:dc="http://purl.org/dc/elements/1.1/" xmlns:cc="http://creativecommons.org/ns#" xmlns:rdf="http://www.w3.org/1999/02/22-rdf-syntax-ns#">
   <cc:Work>
    <dc:type rdf:resource="http://purl.org/dc/dcmitype/StillImage"/>
    <dc:date>2026-07-12T10:00:36.374372</dc:date>
    <dc:format>image/svg+xml</dc:format>
    <dc:creator>
     <cc:Agent>
      <dc:title>Matplotlib v3.11.0, https://matplotlib.org/</dc:title>
     </cc:Agent>
    </dc:creator>
   </cc:Work>
  </rdf:RDF>
 </metadata>
 <defs>
  <style type="text/css">*{stroke-linejoin: round; stroke-linecap: butt}</style>
 </defs>
 <g id="figure_1">
  <g id="patch_1">
   <path d="M 0 569.087359 
L 1000.668125 569.087359 
L 1000.668125 0 
L 0 0 
z
" style="fill: #ffffff"/>
  </g>
  <g id="axes_1">
   <g id="patch_2">
    <path d="M 45.432344 426.098088 
L 993.468125 426.098088 
L 993.468125 30.311875 
L 45.432344 30.311875 
z
" style="fill: #ffffff"/>
   </g>
   <g id="matplotlib.axis_1">
    <g id="xtick_1">
     <g id="line2d_1">
      <path d="M 88.524879 426.098088 
L 88.524879 30.311875 
" clip-path="url(#p1917565070)" style="fill: none; stroke: #b0b0b0; stroke-opacity: 0.3; stroke-width: 0.8; stroke-linecap: square"/>
     </g>
     <g id="line2d_2">
      <defs>
       <path id="mda7d4c6e2b" d="M 0 0 
L 0 3.5 
" style="stroke: #000000; stroke-width: 0.8"/>
      </defs>
      <g>
       <use xlink:href="#mda7d4c6e2b" x="88.524879" y="426.098088" style="stroke: #000000; stroke-width: 0.8"/>
      </g>
     </g>
     <g id="text_1">
      <!-- Aleatório -->
      <g transform="translate(41.651544 485.511273) rotate(-45) scale(0.14 -0.14)">
       <defs>
        <path id="DejaVuSans-24" d="M 2188 4044 
L 1331 1722 
L 3047 1722 
L 2188 4044 
z
M 1831 4666 
L 2547 4666 
L 4325 0 
L 3669 0 
L 3244 1197 
L 1141 1197 
L 716 0 
L 50 0 
L 1831 4666 
z
" transform="scale(0.015625)"/>
        <path id="DejaVuSans-4f" d="M 603 4863 
L 1178 4863 
L 1178 0 
L 603 0 
L 603 4863 
z
" transform="scale(0.015625)"/>
        <path id="DejaVuSans-48" d="M 3597 1894 
L 3597 1613 
L 953 1613 
Q 991 1019 1311 708 
Q 1631 397 2203 397 
Q 2534 397 2845 478 
Q 3156 559 3463 722 
L 3463 178 
Q 3153 47 2828 -22 
Q 2503 -91 2169 -91 
Q 1331 -91 842 396 
Q 353 884 353 1716 
Q 353 2575 817 3079 
Q 1281 3584 2069 3584 
Q 2775 3584 3186 3129 
Q 3597 2675 3597 1894 
z
M 3022 2063 
Q 3016 2534 2758 2815 
Q 2500 3097 2075 3097 
Q 1594 3097 1305 2825 
Q 1016 2553 972 2059 
L 3022 2063 
z
" transform="scale(0.015625)"/>
        <path id="DejaVuSans-44" d="M 2194 1759 
Q 1497 1759 1228 1600 
Q 959 1441 959 1056 
Q 959 750 1161 570 
Q 1363 391 1709 391 
Q 2188 391 2477 730 
Q 2766 1069 2766 1631 
L 2766 1759 
L 2194 1759 
z
M 3341 1997 
L 3341 0 
L 2766 0 
L 2766 531 
Q 2569 213 2275 61 
Q 1981 -91 1556 -91 
Q 1019 -91 701 211 
Q 384 513 384 1019 
Q 384 1609 779 1909 
Q 1175 2209 1959 2209 
L 2766 2209 
L 2766 2266 
Q 2766 2663 2505 2880 
Q 2244 3097 1772 3097 
Q 1472 3097 1187 3025 
Q 903 2953 641 2809 
L 641 3341 
Q 956 3463 1253 3523 
Q 1550 3584 1831 3584 
Q 2591 3584 2966 3190 
Q 3341 2797 3341 1997 
z
" transform="scale(0.015625)"/>
        <path id="DejaVuSans-57" d="M 1172 4494 
L 1172 3500 
L 2356 3500 
L 2356 3053 
L 1172 3053 
L 1172 1153 
Q 1172 725 1289 603 
Q 1406 481 1766 481 
L 2356 481 
L 2356 0 
L 1766 0 
Q 1100 0 847 248 
Q 594 497 594 1153 
L 594 3053 
L 172 3053 
L 172 3500 
L 594 3500 
L 594 4494 
L 1172 4494 
z
" transform="scale(0.015625)"/>
        <path id="DejaVuSans-b5" d="M 1959 3097 
Q 1497 3097 1228 2736 
Q 959 2375 959 1747 
Q 959 1119 1226 758 
Q 1494 397 1959 397 
Q 2419 397 2687 759 
Q 2956 1122 2956 1747 
Q 2956 2369 2687 2733 
Q 2419 3097 1959 3097 
z
M 1959 3584 
Q 2709 3584 3137 3096 
Q 3566 2609 3566 1747 
Q 3566 888 3137 398 
Q 2709 -91 1959 -91 
Q 1206 -91 779 398 
Q 353 888 353 1747 
Q 353 2609 779 3096 
Q 1206 3584 1959 3584 
z
M 2393 5119 
L 3015 5119 
L 1997 3944 
L 1518 3944 
L 2393 5119 
z
" transform="scale(0.015625)"/>
        <path id="DejaVuSans-55" d="M 2631 2963 
Q 2534 3019 2420 3045 
Q 2306 3072 2169 3072 
Q 1681 3072 1420 2755 
Q 1159 2438 1159 1844 
L 1159 0 
L 581 0 
L 581 3500 
L 1159 3500 
L 1159 2956 
Q 1341 3275 1631 3429 
Q 1922 3584 2338 3584 
Q 2397 3584 2469 3576 
Q 2541 3569 2628 3553 
L 2631 2963 
z
" transform="scale(0.015625)"/>
        <path id="DejaVuSans-4c" d="M 603 3500 
L 1178 3500 
L 1178 0 
L 603 0 
L 603 3500 
z
M 603 4863 
L 1178 4863 
L 1178 4134 
L 603 4134 
L 603 4863 
z
" transform="scale(0.015625)"/>
        <path id="DejaVuSans-52" d="M 1959 3097 
Q 1497 3097 1228 2736 
Q 959 2375 959 1747 
Q 959 1119 1226 758 
Q 1494 397 1959 397 
Q 2419 397 2687 759 
Q 2956 1122 2956 1747 
Q 2956 2369 2687 2733 
Q 2419 3097 1959 3097 
z
M 1959 3584 
Q 2709 3584 3137 3096 
Q 3566 2609 3566 1747 
Q 3566 888 3137 398 
Q 2709 -91 1959 -91 
Q 1206 -91 779 398 
Q 353 888 353 1747 
Q 353 2609 779 3096 
Q 1206 3584 1959 3584 
z
" transform="scale(0.015625)"/>
       </defs>
       <use xlink:href="#DejaVuSans-24"/>
       <use xlink:href="#DejaVuSans-4f" transform="translate(68.40625 0)"/>
       <use xlink:href="#DejaVuSans-48" transform="translate(96.1875 0)"/>
       <use xlink:href="#DejaVuSans-44" transform="translate(157.71875 0)"/>
       <use xlink:href="#DejaVuSans-57" transform="translate(219 0)"/>
       <use xlink:href="#DejaVuSans-b5" transform="translate(258.203125 0)"/>
       <use xlink:href="#DejaVuSans-55" transform="translate(319.390625 0)"/>
       <use xlink:href="#DejaVuSans-4c" transform="translate(360.5 0)"/>
       <use xlink:href="#DejaVuSans-52" transform="translate(388.28125 0)"/>
      </g>
     </g>
    </g>
    <g id="xtick_2">
     <g id="line2d_3">
      <path d="M 303.987557 426.098088 
L 303.987557 30.311875 
" clip-path="url(#p1917565070)" style="fill: none; stroke: #b0b0b0; stroke-opacity: 0.3; stroke-width: 0.8; stroke-linecap: square"/>
     </g>
     <g id="line2d_4">
      <g>
       <use xlink:href="#mda7d4c6e2b" x="303.987557" y="426.098088" style="stroke: #000000; stroke-width: 0.8"/>
      </g>
     </g>
     <g id="text_2">
      <!-- Crescente -->
      <g transform="translate(251.816445 490.412297) rotate(-45) scale(0.14 -0.14)">
       <defs>
        <path id="DejaVuSans-26" d="M 4122 4306 
L 4122 3641 
Q 3803 3938 3442 4084 
Q 3081 4231 2675 4231 
Q 1875 4231 1450 3742 
Q 1025 3253 1025 2328 
Q 1025 1406 1450 917 
Q 1875 428 2675 428 
Q 3081 428 3442 575 
Q 3803 722 4122 1019 
L 4122 359 
Q 3791 134 3420 21 
Q 3050 -91 2638 -91 
Q 1578 -91 968 557 
Q 359 1206 359 2328 
Q 359 3453 968 4101 
Q 1578 4750 2638 4750 
Q 3056 4750 3426 4639 
Q 3797 4528 4122 4306 
z
" transform="scale(0.015625)"/>
        <path id="DejaVuSans-56" d="M 2834 3397 
L 2834 2853 
Q 2591 2978 2328 3040 
Q 2066 3103 1784 3103 
Q 1356 3103 1142 2972 
Q 928 2841 928 2578 
Q 928 2378 1081 2264 
Q 1234 2150 1697 2047 
L 1894 2003 
Q 2506 1872 2764 1633 
Q 3022 1394 3022 966 
Q 3022 478 2636 193 
Q 2250 -91 1575 -91 
Q 1294 -91 989 -36 
Q 684 19 347 128 
L 347 722 
Q 666 556 975 473 
Q 1284 391 1588 391 
Q 1994 391 2212 530 
Q 2431 669 2431 922 
Q 2431 1156 2273 1281 
Q 2116 1406 1581 1522 
L 1381 1569 
Q 847 1681 609 1914 
Q 372 2147 372 2553 
Q 372 3047 722 3315 
Q 1072 3584 1716 3584 
Q 2034 3584 2315 3537 
Q 2597 3491 2834 3397 
z
" transform="scale(0.015625)"/>
        <path id="DejaVuSans-46" d="M 3122 3366 
L 3122 2828 
Q 2878 2963 2633 3030 
Q 2388 3097 2138 3097 
Q 1578 3097 1268 2742 
Q 959 2388 959 1747 
Q 959 1106 1268 751 
Q 1578 397 2138 397 
Q 2388 397 2633 464 
Q 2878 531 3122 666 
L 3122 134 
Q 2881 22 2623 -34 
Q 2366 -91 2075 -91 
Q 1284 -91 818 406 
Q 353 903 353 1747 
Q 353 2603 823 3093 
Q 1294 3584 2113 3584 
Q 2378 3584 2631 3529 
Q 2884 3475 3122 3366 
z
" transform="scale(0.015625)"/>
        <path id="DejaVuSans-51" d="M 3513 2113 
L 3513 0 
L 2938 0 
L 2938 2094 
Q 2938 2591 2744 2837 
Q 2550 3084 2163 3084 
Q 1697 3084 1428 2787 
Q 1159 2491 1159 1978 
L 1159 0 
L 581 0 
L 581 3500 
L 1159 3500 
L 1159 2956 
Q 1366 3272 1645 3428 
Q 1925 3584 2291 3584 
Q 2894 3584 3203 3211 
Q 3513 2838 3513 2113 
z
" transform="scale(0.015625)"/>
       </defs>
       <use xlink:href="#DejaVuSans-26"/>
       <use xlink:href="#DejaVuSans-55" transform="translate(69.828125 0)"/>
       <use xlink:href="#DejaVuSans-48" transform="translate(108.734375 0)"/>
       <use xlink:href="#DejaVuSans-56" transform="translate(170.265625 0)"/>
       <use xlink:href="#DejaVuSans-46" transform="translate(222.359375 0)"/>
       <use xlink:href="#DejaVuSans-48" transform="translate(277.34375 0)"/>
       <use xlink:href="#DejaVuSans-51" transform="translate(338.875 0)"/>
       <use xlink:href="#DejaVuSans-57" transform="translate(402.25 0)"/>
       <use xlink:href="#DejaVuSans-48" transform="translate(441.453125 0)"/>
      </g>
     </g>
    </g>
    <g id="xtick_3">
     <g id="line2d_5">
      <path d="M 519.450234 426.098088 
L 519.450234 30.311875 
" clip-path="url(#p1917565070)" style="fill: none; stroke: #b0b0b0; stroke-opacity: 0.3; stroke-width: 0.8; stroke-linecap: square"/>
     </g>
     <g id="line2d_6">
      <g>
       <use xlink:href="#mda7d4c6e2b" x="519.450234" y="426.098088" style="stroke: #000000; stroke-width: 0.8"/>
      </g>
     </g>
     <g id="text_3">
      <!-- Decrescente -->
      <g transform="translate(455.034685 502.656734) rotate(-45) scale(0.14 -0.14)">
       <defs>
        <path id="DejaVuSans-27" d="M 1259 4147 
L 1259 519 
L 2022 519 
Q 2988 519 3436 956 
Q 3884 1394 3884 2338 
Q 3884 3275 3436 3711 
Q 2988 4147 2022 4147 
L 1259 4147 
z
M 628 4666 
L 1925 4666 
Q 3281 4666 3915 4102 
Q 4550 3538 4550 2338 
Q 4550 1131 3912 565 
Q 3275 0 1925 0 
L 628 0 
L 628 4666 
z
" transform="scale(0.015625)"/>
       </defs>
       <use xlink:href="#DejaVuSans-27"/>
       <use xlink:href="#DejaVuSans-48" transform="translate(77 0)"/>
       <use xlink:href="#DejaVuSans-46" transform="translate(138.53125 0)"/>
       <use xlink:href="#DejaVuSans-55" transform="translate(193.515625 0)"/>
       <use xlink:href="#DejaVuSans-48" transform="translate(232.421875 0)"/>
       <use xlink:href="#DejaVuSans-56" transform="translate(293.953125 0)"/>
       <use xlink:href="#DejaVuSans-46" transform="translate(346.046875 0)"/>
       <use xlink:href="#DejaVuSans-48" transform="translate(401.03125 0)"/>
       <use xlink:href="#DejaVuSans-51" transform="translate(462.5625 0)"/>
       <use xlink:href="#DejaVuSans-57" transform="translate(525.9375 0)"/>
       <use xlink:href="#DejaVuSans-48" transform="translate(565.140625 0)"/>
      </g>
     </g>
    </g>
    <g id="xtick_4">
     <g id="line2d_7">
      <path d="M 734.912912 426.098088 
L 734.912912 30.311875 
" clip-path="url(#p1917565070)" style="fill: none; stroke: #b0b0b0; stroke-opacity: 0.3; stroke-width: 0.8; stroke-linecap: square"/>
     </g>
     <g id="line2d_8">
      <g>
       <use xlink:href="#mda7d4c6e2b" x="734.912912" y="426.098088" style="stroke: #000000; stroke-width: 0.8"/>
      </g>
     </g>
     <g id="text_4">
      <!-- Quase Crescente -->
      <g transform="translate(648.214218 524.939879) rotate(-45) scale(0.14 -0.14)">
       <defs>
        <path id="DejaVuSans-34" d="M 2522 4238 
Q 1834 4238 1429 3725 
Q 1025 3213 1025 2328 
Q 1025 1447 1429 934 
Q 1834 422 2522 422 
Q 3209 422 3611 934 
Q 4013 1447 4013 2328 
Q 4013 3213 3611 3725 
Q 3209 4238 2522 4238 
z
M 3406 84 
L 4238 -825 
L 3475 -825 
L 2784 -78 
Q 2681 -84 2626 -87 
Q 2572 -91 2522 -91 
Q 1538 -91 948 567 
Q 359 1225 359 2328 
Q 359 3434 948 4092 
Q 1538 4750 2522 4750 
Q 3503 4750 4090 4092 
Q 4678 3434 4678 2328 
Q 4678 1516 4351 937 
Q 4025 359 3406 84 
z
" transform="scale(0.015625)"/>
        <path id="DejaVuSans-58" d="M 544 1381 
L 544 3500 
L 1119 3500 
L 1119 1403 
Q 1119 906 1312 657 
Q 1506 409 1894 409 
Q 2359 409 2629 706 
Q 2900 1003 2900 1516 
L 2900 3500 
L 3475 3500 
L 3475 0 
L 2900 0 
L 2900 538 
Q 2691 219 2414 64 
Q 2138 -91 1772 -91 
Q 1169 -91 856 284 
Q 544 659 544 1381 
z
M 1991 3584 
L 1991 3584 
z
" transform="scale(0.015625)"/>
        <path id="DejaVuSans-3" transform="scale(0.015625)"/>
       </defs>
       <use xlink:href="#DejaVuSans-34"/>
       <use xlink:href="#DejaVuSans-58" transform="translate(78.71875 0)"/>
       <use xlink:href="#DejaVuSans-44" transform="translate(142.09375 0)"/>
       <use xlink:href="#DejaVuSans-56" transform="translate(203.375 0)"/>
       <use xlink:href="#DejaVuSans-48" transform="translate(255.46875 0)"/>
       <use xlink:href="#DejaVuSans-3" transform="translate(317 0)"/>
       <use xlink:href="#DejaVuSans-26" transform="translate(348.78125 0)"/>
       <use xlink:href="#DejaVuSans-55" transform="translate(418.609375 0)"/>
       <use xlink:href="#DejaVuSans-48" transform="translate(457.515625 0)"/>
       <use xlink:href="#DejaVuSans-56" transform="translate(519.046875 0)"/>
       <use xlink:href="#DejaVuSans-46" transform="translate(571.140625 0)"/>
       <use xlink:href="#DejaVuSans-48" transform="translate(626.125 0)"/>
       <use xlink:href="#DejaVuSans-51" transform="translate(687.65625 0)"/>
       <use xlink:href="#DejaVuSans-57" transform="translate(751.03125 0)"/>
       <use xlink:href="#DejaVuSans-48" transform="translate(790.234375 0)"/>
      </g>
     </g>
    </g>
    <g id="xtick_5">
     <g id="line2d_9">
      <path d="M 950.375589 426.098088 
L 950.375589 30.311875 
" clip-path="url(#p1917565070)" style="fill: none; stroke: #b0b0b0; stroke-opacity: 0.3; stroke-width: 0.8; stroke-linecap: square"/>
     </g>
     <g id="line2d_10">
      <g>
       <use xlink:href="#mda7d4c6e2b" x="950.375589" y="426.098088" style="stroke: #000000; stroke-width: 0.8"/>
      </g>
     </g>
     <g id="text_5">
      <!-- Quase Decrescente -->
      <g transform="translate(851.432458 537.184317) rotate(-45) scale(0.14 -0.14)">
       <use xlink:href="#DejaVuSans-34"/>
       <use xlink:href="#DejaVuSans-58" transform="translate(78.71875 0)"/>
       <use xlink:href="#DejaVuSans-44" transform="translate(142.09375 0)"/>
       <use xlink:href="#DejaVuSans-56" transform="translate(203.375 0)"/>
       <use xlink:href="#DejaVuSans-48" transform="translate(255.46875 0)"/>
       <use xlink:href="#DejaVuSans-3" transform="translate(317 0)"/>
       <use xlink:href="#DejaVuSans-27" transform="translate(348.78125 0)"/>
       <use xlink:href="#DejaVuSans-48" transform="translate(425.78125 0)"/>
       <use xlink:href="#DejaVuSans-46" transform="translate(487.3125 0)"/>
       <use xlink:href="#DejaVuSans-55" transform="translate(542.296875 0)"/>
       <use xlink:href="#DejaVuSans-48" transform="translate(581.203125 0)"/>
       <use xlink:href="#DejaVuSans-56" transform="translate(642.734375 0)"/>
       <use xlink:href="#DejaVuSans-46" transform="translate(694.828125 0)"/>
       <use xlink:href="#DejaVuSans-48" transform="translate(749.8125 0)"/>
       <use xlink:href="#DejaVuSans-51" transform="translate(811.34375 0)"/>
       <use xlink:href="#DejaVuSans-57" transform="translate(874.71875 0)"/>
       <use xlink:href="#DejaVuSans-48" transform="translate(913.921875 0)"/>
      </g>
     </g>
    </g>
    <g id="text_6">
     <!-- Distribuições -->
     <g transform="translate(452.798203 557.563141) scale(0.18 -0.18)">
      <defs>
       <path id="DejaVuSans-Bold-27" d="M 1791 3756 
L 1791 909 
L 2222 909 
Q 2959 909 3348 1275 
Q 3738 1641 3738 2338 
Q 3738 3031 3350 3393 
Q 2963 3756 2222 3756 
L 1791 3756 
z
M 588 4666 
L 1856 4666 
Q 2919 4666 3439 4514 
Q 3959 4363 4331 4000 
Q 4659 3684 4818 3271 
Q 4978 2859 4978 2338 
Q 4978 1809 4818 1395 
Q 4659 981 4331 666 
Q 3956 303 3431 151 
Q 2906 0 1856 0 
L 588 0 
L 588 4666 
z
" transform="scale(0.015625)"/>
       <path id="DejaVuSans-Bold-4c" d="M 538 3500 
L 1656 3500 
L 1656 0 
L 538 0 
L 538 3500 
z
M 538 4863 
L 1656 4863 
L 1656 3950 
L 538 3950 
L 538 4863 
z
" transform="scale(0.015625)"/>
       <path id="DejaVuSans-Bold-56" d="M 3272 3391 
L 3272 2541 
Q 2913 2691 2578 2766 
Q 2244 2841 1947 2841 
Q 1628 2841 1473 2761 
Q 1319 2681 1319 2516 
Q 1319 2381 1436 2309 
Q 1553 2238 1856 2203 
L 2053 2175 
Q 2913 2066 3209 1816 
Q 3506 1566 3506 1031 
Q 3506 472 3093 190 
Q 2681 -91 1863 -91 
Q 1516 -91 1145 -36 
Q 775 19 384 128 
L 384 978 
Q 719 816 1070 734 
Q 1422 653 1784 653 
Q 2113 653 2278 743 
Q 2444 834 2444 1013 
Q 2444 1163 2330 1236 
Q 2216 1309 1875 1350 
L 1678 1375 
Q 931 1469 631 1722 
Q 331 1975 331 2491 
Q 331 3047 712 3315 
Q 1094 3584 1881 3584 
Q 2191 3584 2531 3537 
Q 2872 3491 3272 3391 
z
" transform="scale(0.015625)"/>
       <path id="DejaVuSans-Bold-57" d="M 1759 4494 
L 1759 3500 
L 2913 3500 
L 2913 2700 
L 1759 2700 
L 1759 1216 
Q 1759 972 1856 886 
Q 1953 800 2241 800 
L 2816 800 
L 2816 0 
L 1856 0 
Q 1194 0 917 276 
Q 641 553 641 1216 
L 641 2700 
L 84 2700 
L 84 3500 
L 641 3500 
L 641 4494 
L 1759 4494 
z
" transform="scale(0.015625)"/>
       <path id="DejaVuSans-Bold-55" d="M 3138 2547 
Q 2991 2616 2845 2648 
Q 2700 2681 2553 2681 
Q 2122 2681 1889 2404 
Q 1656 2128 1656 1613 
L 1656 0 
L 538 0 
L 538 3500 
L 1656 3500 
L 1656 2925 
Q 1872 3269 2151 3426 
Q 2431 3584 2822 3584 
Q 2878 3584 2943 3579 
Q 3009 3575 3134 3559 
L 3138 2547 
z
" transform="scale(0.015625)"/>
       <path id="DejaVuSans-Bold-45" d="M 2400 722 
Q 2759 722 2948 984 
Q 3138 1247 3138 1747 
Q 3138 2247 2948 2509 
Q 2759 2772 2400 2772 
Q 2041 2772 1848 2508 
Q 1656 2244 1656 1747 
Q 1656 1250 1848 986 
Q 2041 722 2400 722 
z
M 1656 2988 
Q 1888 3294 2169 3439 
Q 2450 3584 2816 3584 
Q 3463 3584 3878 3070 
Q 4294 2556 4294 1747 
Q 4294 938 3878 423 
Q 3463 -91 2816 -91 
Q 2450 -91 2169 54 
Q 1888 200 1656 506 
L 1656 0 
L 538 0 
L 538 4863 
L 1656 4863 
L 1656 2988 
z
" transform="scale(0.015625)"/>
       <path id="DejaVuSans-Bold-58" d="M 500 1363 
L 500 3500 
L 1625 3500 
L 1625 3150 
Q 1625 2866 1622 2436 
Q 1619 2006 1619 1863 
Q 1619 1441 1641 1255 
Q 1663 1069 1716 984 
Q 1784 875 1895 815 
Q 2006 756 2150 756 
Q 2500 756 2700 1025 
Q 2900 1294 2900 1772 
L 2900 3500 
L 4019 3500 
L 4019 0 
L 2900 0 
L 2900 506 
Q 2647 200 2364 54 
Q 2081 -91 1741 -91 
Q 1134 -91 817 281 
Q 500 653 500 1363 
z
" transform="scale(0.015625)"/>
       <path id="DejaVuSans-Bold-a9" d="M 3366 3391 
L 3366 2478 
Q 3138 2634 2908 2709 
Q 2678 2784 2431 2784 
Q 1963 2784 1702 2511 
Q 1441 2238 1441 1747 
Q 1441 1256 1702 982 
Q 1963 709 2431 709 
Q 2694 709 2930 787 
Q 3166 866 3366 1019 
L 3366 103 
Q 3103 6 2833 -42 
Q 2563 -91 2291 -91 
Q 1344 -91 809 395 
Q 275 881 275 1747 
Q 275 2613 809 3098 
Q 1344 3584 2291 3584 
Q 2566 3584 2833 3536 
Q 3100 3488 3366 3391 
z
M 2456 0 
Q 2638 -194 2723 -359 
Q 2809 -525 2809 -672 
Q 2809 -969 2617 -1111 
Q 2425 -1253 2028 -1253 
Q 1878 -1253 1718 -1233 
Q 1559 -1213 1397 -1172 
L 1394 -697 
Q 1550 -747 1679 -770 
Q 1809 -794 1913 -794 
Q 2094 -794 2195 -722 
Q 2297 -650 2297 -525 
Q 2297 -444 2230 -316 
Q 2163 -188 2022 0 
L 2456 0 
z
" transform="scale(0.015625)"/>
       <path id="DejaVuSans-Bold-b7" d="M 2203 2784 
Q 1831 2784 1636 2517 
Q 1441 2250 1441 1747 
Q 1441 1244 1636 976 
Q 1831 709 2203 709 
Q 2569 709 2762 976 
Q 2956 1244 2956 1747 
Q 2956 2250 2762 2517 
Q 2569 2784 2203 2784 
z
M 2203 3584 
Q 3106 3584 3614 3096 
Q 4122 2609 4122 1747 
Q 4122 884 3614 396 
Q 3106 -91 2203 -91 
Q 1297 -91 786 396 
Q 275 884 275 1747 
Q 275 2609 786 3096 
Q 1297 3584 2203 3584 
z
M 2200 4263 
L 2028 4378 
Q 2016 4384 1997 4397 
Q 1850 4494 1772 4494 
Q 1660 4494 1600 4397 
Q 1541 4300 1541 4116 
L 1541 4091 
L 1107 4091 
Q 1107 4516 1267 4747 
Q 1428 4978 1719 4978 
Q 1832 4978 1946 4936 
Q 2060 4894 2188 4800 
L 2378 4666 
Q 2447 4619 2505 4594 
Q 2563 4569 2610 4569 
Q 2722 4569 2784 4669 
Q 2847 4769 2847 4947 
L 2847 4972 
L 3282 4972 
Q 3282 4547 3121 4315 
Q 2960 4084 2669 4084 
Q 2557 4084 2452 4121 
Q 2347 4159 2200 4263 
z
" transform="scale(0.015625)"/>
       <path id="DejaVuSans-Bold-48" d="M 4031 1759 
L 4031 1441 
L 1416 1441 
Q 1456 1047 1700 850 
Q 1944 653 2381 653 
Q 2734 653 3104 758 
Q 3475 863 3866 1075 
L 3866 213 
Q 3469 63 3072 -14 
Q 2675 -91 2278 -91 
Q 1328 -91 801 392 
Q 275 875 275 1747 
Q 275 2603 792 3093 
Q 1309 3584 2216 3584 
Q 3041 3584 3536 3087 
Q 4031 2591 4031 1759 
z
M 2881 2131 
Q 2881 2450 2695 2645 
Q 2509 2841 2209 2841 
Q 1884 2841 1681 2658 
Q 1478 2475 1428 2131 
L 2881 2131 
z
" transform="scale(0.015625)"/>
      </defs>
      <use xlink:href="#DejaVuSans-Bold-27"/>
      <use xlink:href="#DejaVuSans-Bold-4c" transform="translate(83.015625 0)"/>
      <use xlink:href="#DejaVuSans-Bold-56" transform="translate(117.296875 0)"/>
      <use xlink:href="#DejaVuSans-Bold-57" transform="translate(176.8125 0)"/>
      <use xlink:href="#DejaVuSans-Bold-55" transform="translate(224.609375 0)"/>
      <use xlink:href="#DejaVuSans-Bold-4c" transform="translate(273.921875 0)"/>
      <use xlink:href="#DejaVuSans-Bold-45" transform="translate(308.203125 0)"/>
      <use xlink:href="#DejaVuSans-Bold-58" transform="translate(379.78125 0)"/>
      <use xlink:href="#DejaVuSans-Bold-4c" transform="translate(450.96875 0)"/>
      <use xlink:href="#DejaVuSans-Bold-a9" transform="translate(485.25 0)"/>
      <use xlink:href="#DejaVuSans-Bold-b7" transform="translate(544.53125 0)"/>
      <use xlink:href="#DejaVuSans-Bold-48" transform="translate(613.234375 0)"/>
      <use xlink:href="#DejaVuSans-Bold-56" transform="translate(681.0625 0)"/>
     </g>
    </g>
   </g>
   <g id="matplotlib.axis_2">
    <g id="ytick_1">
     <g id="line2d_11">
      <path d="M 45.432344 408.115472 
L 993.468125 408.115472 
" clip-path="url(#p1917565070)" style="fill: none; stroke: #b0b0b0; stroke-opacity: 0.3; stroke-width: 0.8; stroke-linecap: square"/>
     </g>
     <g id="line2d_12">
      <defs>
       <path id="m8dbad03504" d="M 0 0 
L -3.5 0 
" style="stroke: #000000; stroke-width: 0.8"/>
      </defs>
      <g>
       <use xlink:href="#m8dbad03504" x="45.432344" y="408.115472" style="stroke: #000000; stroke-width: 0.8"/>
      </g>
     </g>
     <g id="text_7">
      <!-- 0 -->
      <g transform="translate(29.524844 413.433831) scale(0.14 -0.14)">
       <defs>
        <path id="DejaVuSans-13" d="M 2034 4250 
Q 1547 4250 1301 3770 
Q 1056 3291 1056 2328 
Q 1056 1369 1301 889 
Q 1547 409 2034 409 
Q 2525 409 2770 889 
Q 3016 1369 3016 2328 
Q 3016 3291 2770 3770 
Q 2525 4250 2034 4250 
z
M 2034 4750 
Q 2819 4750 3233 4129 
Q 3647 3509 3647 2328 
Q 3647 1150 3233 529 
Q 2819 -91 2034 -91 
Q 1250 -91 836 529 
Q 422 1150 422 2328 
Q 422 3509 836 4129 
Q 1250 4750 2034 4750 
z
" transform="scale(0.015625)"/>
       </defs>
       <use xlink:href="#DejaVuSans-13"/>
      </g>
     </g>
    </g>
    <g id="ytick_2">
     <g id="line2d_13">
      <path d="M 45.432344 326.439327 
L 993.468125 326.439327 
" clip-path="url(#p1917565070)" style="fill: none; stroke: #b0b0b0; stroke-opacity: 0.3; stroke-width: 0.8; stroke-linecap: square"/>
     </g>
     <g id="line2d_14">
      <g>
       <use xlink:href="#m8dbad03504" x="45.432344" y="326.439327" style="stroke: #000000; stroke-width: 0.8"/>
      </g>
     </g>
     <g id="text_8">
      <!-- 1 -->
      <g transform="translate(29.524844 331.757687) scale(0.14 -0.14)">
       <defs>
        <path id="DejaVuSans-14" d="M 794 531 
L 1825 531 
L 1825 4091 
L 703 3866 
L 703 4441 
L 1819 4666 
L 2450 4666 
L 2450 531 
L 3481 531 
L 3481 0 
L 794 0 
L 794 531 
z
" transform="scale(0.015625)"/>
       </defs>
       <use xlink:href="#DejaVuSans-14"/>
      </g>
     </g>
    </g>
    <g id="ytick_3">
     <g id="line2d_15">
      <path d="M 45.432344 244.763183 
L 993.468125 244.763183 
" clip-path="url(#p1917565070)" style="fill: none; stroke: #b0b0b0; stroke-opacity: 0.3; stroke-width: 0.8; stroke-linecap: square"/>
     </g>
     <g id="line2d_16">
      <g>
       <use xlink:href="#m8dbad03504" x="45.432344" y="244.763183" style="stroke: #000000; stroke-width: 0.8"/>
      </g>
     </g>
     <g id="text_9">
      <!-- 2 -->
      <g transform="translate(29.524844 250.081542) scale(0.14 -0.14)">
       <defs>
        <path id="DejaVuSans-15" d="M 1228 531 
L 3431 531 
L 3431 0 
L 469 0 
L 469 531 
Q 828 903 1448 1529 
Q 2069 2156 2228 2338 
Q 2531 2678 2651 2914 
Q 2772 3150 2772 3378 
Q 2772 3750 2511 3984 
Q 2250 4219 1831 4219 
Q 1534 4219 1204 4116 
Q 875 4013 500 3803 
L 500 4441 
Q 881 4594 1212 4672 
Q 1544 4750 1819 4750 
Q 2544 4750 2975 4387 
Q 3406 4025 3406 3419 
Q 3406 3131 3298 2873 
Q 3191 2616 2906 2266 
Q 2828 2175 2409 1742 
Q 1991 1309 1228 531 
z
" transform="scale(0.015625)"/>
       </defs>
       <use xlink:href="#DejaVuSans-15"/>
      </g>
     </g>
    </g>
    <g id="ytick_4">
     <g id="line2d_17">
      <path d="M 45.432344 163.087038 
L 993.468125 163.087038 
" clip-path="url(#p1917565070)" style="fill: none; stroke: #b0b0b0; stroke-opacity: 0.3; stroke-width: 0.8; stroke-linecap: square"/>
     </g>
     <g id="line2d_18">
      <g>
       <use xlink:href="#m8dbad03504" x="45.432344" y="163.087038" style="stroke: #000000; stroke-width: 0.8"/>
      </g>
     </g>
     <g id="text_10">
      <!-- 3 -->
      <g transform="translate(29.524844 168.405397) scale(0.14 -0.14)">
       <defs>
        <path id="DejaVuSans-16" d="M 2597 2516 
Q 3050 2419 3304 2112 
Q 3559 1806 3559 1356 
Q 3559 666 3084 287 
Q 2609 -91 1734 -91 
Q 1441 -91 1130 -33 
Q 819 25 488 141 
L 488 750 
Q 750 597 1062 519 
Q 1375 441 1716 441 
Q 2309 441 2620 675 
Q 2931 909 2931 1356 
Q 2931 1769 2642 2001 
Q 2353 2234 1838 2234 
L 1294 2234 
L 1294 2753 
L 1863 2753 
Q 2328 2753 2575 2939 
Q 2822 3125 2822 3475 
Q 2822 3834 2567 4026 
Q 2313 4219 1838 4219 
Q 1578 4219 1281 4162 
Q 984 4106 628 3988 
L 628 4550 
Q 988 4650 1302 4700 
Q 1616 4750 1894 4750 
Q 2613 4750 3031 4423 
Q 3450 4097 3450 3541 
Q 3450 3153 3228 2886 
Q 3006 2619 2597 2516 
z
" transform="scale(0.015625)"/>
       </defs>
       <use xlink:href="#DejaVuSans-16"/>
      </g>
     </g>
    </g>
    <g id="ytick_5">
     <g id="line2d_19">
      <path d="M 45.432344 81.410893 
L 993.468125 81.410893 
" clip-path="url(#p1917565070)" style="fill: none; stroke: #b0b0b0; stroke-opacity: 0.3; stroke-width: 0.8; stroke-linecap: square"/>
     </g>
     <g id="line2d_20">
      <g>
       <use xlink:href="#m8dbad03504" x="45.432344" y="81.410893" style="stroke: #000000; stroke-width: 0.8"/>
      </g>
     </g>
     <g id="text_11">
      <!-- 4 -->
      <g transform="translate(29.524844 86.729253) scale(0.14 -0.14)">
       <defs>
        <path id="DejaVuSans-17" d="M 2419 4116 
L 825 1625 
L 2419 1625 
L 2419 4116 
z
M 2253 4666 
L 3047 4666 
L 3047 1625 
L 3713 1625 
L 3713 1100 
L 3047 1100 
L 3047 0 
L 2419 0 
L 2419 1100 
L 313 1100 
L 313 1709 
L 2253 4666 
z
" transform="scale(0.015625)"/>
       </defs>
       <use xlink:href="#DejaVuSans-17"/>
      </g>
     </g>
    </g>
    <g id="text_12">
     <!-- Comparações -->
     <g transform="translate(21.200625 296.378575) rotate(-90) scale(0.18 -0.18)">
      <defs>
       <path id="DejaVuSans-Bold-26" d="M 4288 256 
Q 3956 84 3597 -3 
Q 3238 -91 2847 -91 
Q 1681 -91 1000 561 
Q 319 1213 319 2328 
Q 319 3447 1000 4098 
Q 1681 4750 2847 4750 
Q 3238 4750 3597 4662 
Q 3956 4575 4288 4403 
L 4288 3438 
Q 3953 3666 3628 3772 
Q 3303 3878 2944 3878 
Q 2300 3878 1931 3465 
Q 1563 3053 1563 2328 
Q 1563 1606 1931 1193 
Q 2300 781 2944 781 
Q 3303 781 3628 887 
Q 3953 994 4288 1222 
L 4288 256 
z
" transform="scale(0.015625)"/>
       <path id="DejaVuSans-Bold-52" d="M 2203 2784 
Q 1831 2784 1636 2517 
Q 1441 2250 1441 1747 
Q 1441 1244 1636 976 
Q 1831 709 2203 709 
Q 2569 709 2762 976 
Q 2956 1244 2956 1747 
Q 2956 2250 2762 2517 
Q 2569 2784 2203 2784 
z
M 2203 3584 
Q 3106 3584 3614 3096 
Q 4122 2609 4122 1747 
Q 4122 884 3614 396 
Q 3106 -91 2203 -91 
Q 1297 -91 786 396 
Q 275 884 275 1747 
Q 275 2609 786 3096 
Q 1297 3584 2203 3584 
z
" transform="scale(0.015625)"/>
       <path id="DejaVuSans-Bold-50" d="M 3781 2919 
Q 3994 3244 4286 3414 
Q 4578 3584 4928 3584 
Q 5531 3584 5847 3212 
Q 6163 2841 6163 2131 
L 6163 0 
L 5038 0 
L 5038 1825 
Q 5041 1866 5042 1909 
Q 5044 1953 5044 2034 
Q 5044 2406 4934 2573 
Q 4825 2741 4581 2741 
Q 4263 2741 4089 2478 
Q 3916 2216 3909 1719 
L 3909 0 
L 2784 0 
L 2784 1825 
Q 2784 2406 2684 2573 
Q 2584 2741 2328 2741 
Q 2006 2741 1831 2477 
Q 1656 2213 1656 1722 
L 1656 0 
L 531 0 
L 531 3500 
L 1656 3500 
L 1656 2988 
Q 1863 3284 2130 3434 
Q 2397 3584 2719 3584 
Q 3081 3584 3359 3409 
Q 3638 3234 3781 2919 
z
" transform="scale(0.015625)"/>
       <path id="DejaVuSans-Bold-53" d="M 1656 506 
L 1656 -1331 
L 538 -1331 
L 538 3500 
L 1656 3500 
L 1656 2988 
Q 1888 3294 2169 3439 
Q 2450 3584 2816 3584 
Q 3463 3584 3878 3070 
Q 4294 2556 4294 1747 
Q 4294 938 3878 423 
Q 3463 -91 2816 -91 
Q 2450 -91 2169 54 
Q 1888 200 1656 506 
z
M 2400 2772 
Q 2041 2772 1848 2508 
Q 1656 2244 1656 1747 
Q 1656 1250 1848 986 
Q 2041 722 2400 722 
Q 2759 722 2948 984 
Q 3138 1247 3138 1747 
Q 3138 2247 2948 2509 
Q 2759 2772 2400 2772 
z
" transform="scale(0.015625)"/>
       <path id="DejaVuSans-Bold-44" d="M 2106 1575 
Q 1756 1575 1579 1456 
Q 1403 1338 1403 1106 
Q 1403 894 1545 773 
Q 1688 653 1941 653 
Q 2256 653 2472 879 
Q 2688 1106 2688 1447 
L 2688 1575 
L 2106 1575 
z
M 3816 1997 
L 3816 0 
L 2688 0 
L 2688 519 
Q 2463 200 2181 54 
Q 1900 -91 1497 -91 
Q 953 -91 614 226 
Q 275 544 275 1050 
Q 275 1666 698 1953 
Q 1122 2241 2028 2241 
L 2688 2241 
L 2688 2328 
Q 2688 2594 2478 2717 
Q 2269 2841 1825 2841 
Q 1466 2841 1156 2769 
Q 847 2697 581 2553 
L 581 3406 
Q 941 3494 1303 3539 
Q 1666 3584 2028 3584 
Q 2975 3584 3395 3211 
Q 3816 2838 3816 1997 
z
" transform="scale(0.015625)"/>
      </defs>
      <use xlink:href="#DejaVuSans-Bold-26"/>
      <use xlink:href="#DejaVuSans-Bold-52" transform="translate(73.390625 0)"/>
      <use xlink:href="#DejaVuSans-Bold-50" transform="translate(142.09375 0)"/>
      <use xlink:href="#DejaVuSans-Bold-53" transform="translate(246.296875 0)"/>
      <use xlink:href="#DejaVuSans-Bold-44" transform="translate(317.875 0)"/>
      <use xlink:href="#DejaVuSans-Bold-55" transform="translate(385.359375 0)"/>
      <use xlink:href="#DejaVuSans-Bold-44" transform="translate(434.671875 0)"/>
      <use xlink:href="#DejaVuSans-Bold-a9" transform="translate(502.15625 0)"/>
      <use xlink:href="#DejaVuSans-Bold-b7" transform="translate(561.4375 0)"/>
      <use xlink:href="#DejaVuSans-Bold-48" transform="translate(630.140625 0)"/>
      <use xlink:href="#DejaVuSans-Bold-56" transform="translate(697.96875 0)"/>
     </g>
    </g>
    <g id="text_13">
     <!-- 1e9 -->
     <g transform="translate(45.432344 27.311875) scale(0.1 -0.1)">
      <defs>
       <path id="DejaVuSans-1c" d="M 703 97 
L 703 672 
Q 941 559 1184 500 
Q 1428 441 1663 441 
Q 2288 441 2617 861 
Q 2947 1281 2994 2138 
Q 2813 1869 2534 1725 
Q 2256 1581 1919 1581 
Q 1219 1581 811 2004 
Q 403 2428 403 3163 
Q 403 3881 828 4315 
Q 1253 4750 1959 4750 
Q 2769 4750 3195 4129 
Q 3622 3509 3622 2328 
Q 3622 1225 3098 567 
Q 2575 -91 1691 -91 
Q 1453 -91 1209 -44 
Q 966 3 703 97 
z
M 1959 2075 
Q 2384 2075 2632 2365 
Q 2881 2656 2881 3163 
Q 2881 3666 2632 3958 
Q 2384 4250 1959 4250 
Q 1534 4250 1286 3958 
Q 1038 3666 1038 3163 
Q 1038 2656 1286 2365 
Q 1534 2075 1959 2075 
z
" transform="scale(0.015625)"/>
      </defs>
      <use xlink:href="#DejaVuSans-14"/>
      <use xlink:href="#DejaVuSans-48" transform="translate(63.625 0)"/>
      <use xlink:href="#DejaVuSans-1c" transform="translate(125.15625 0)"/>
     </g>
    </g>
   </g>
   <g id="line2d_21">
    <path d="M 88.524879 48.302157 
L 303.987557 48.302157 
L 519.450234 48.302157 
L 734.912912 48.302157 
L 950.375589 48.302157 
" clip-path="url(#p1917565070)" style="fill: none; stroke: #1f77b4; stroke-opacity: 0.8; stroke-width: 2; stroke-linecap: square"/>
    <defs>
     <path id="md2eacd9972" d="M 0 3 
C 0.795609 3 1.55874 2.683901 2.12132 2.12132 
C 2.683901 1.55874 3 0.795609 3 0 
C 3 -0.795609 2.683901 -1.55874 2.12132 -2.12132 
C 1.55874 -2.683901 0.795609 -3 0 -3 
C -0.795609 -3 -1.55874 -2.683901 -2.12132 -2.12132 
C -2.683901 -1.55874 -3 -0.795609 -3 0 
C -3 0.795609 -2.683901 1.55874 -2.12132 2.12132 
C -1.55874 2.683901 -0.795609 3 0 3 
z
" style="stroke: #1f77b4; stroke-opacity: 0.8"/>
    </defs>
    <g clip-path="url(#p1917565070)">
     <use xlink:href="#md2eacd9972" x="88.524879" y="48.302157" style="fill: #1f77b4; fill-opacity: 0.8; stroke: #1f77b4; stroke-opacity: 0.8"/>
     <use xlink:href="#md2eacd9972" x="303.987557" y="48.302157" style="fill: #1f77b4; fill-opacity: 0.8; stroke: #1f77b4; stroke-opacity: 0.8"/>
     <use xlink:href="#md2eacd9972" x="519.450234" y="48.302157" style="fill: #1f77b4; fill-opacity: 0.8; stroke: #1f77b4; stroke-opacity: 0.8"/>
     <use xlink:href="#md2eacd9972" x="734.912912" y="48.302157" style="fill: #1f77b4; fill-opacity: 0.8; stroke: #1f77b4; stroke-opacity: 0.8"/>
     <use xlink:href="#md2eacd9972" x="950.375589" y="48.302157" style="fill: #1f77b4; fill-opacity: 0.8; stroke: #1f77b4; stroke-opacity: 0.8"/>
    </g>
   </g>
   <g id="line2d_22">
    <path d="M 88.524879 407.88533 
L 303.987557 407.878174 
L 519.450234 407.892316 
L 734.912912 407.881724 
L 950.375589 407.888478 
" clip-path="url(#p1917565070)" style="fill: none; stroke: #ff7f0e; stroke-opacity: 0.8; stroke-width: 2; stroke-linecap: square"/>
    <defs>
     <path id="mf84a5dfe09" d="M 0 3 
C 0.795609 3 1.55874 2.683901 2.12132 2.12132 
C 2.683901 1.55874 3 0.795609 3 0 
C 3 -0.795609 2.683901 -1.55874 2.12132 -2.12132 
C 1.55874 -2.683901 0.795609 -3 0 -3 
C -0.795609 -3 -1.55874 -2.683901 -2.12132 -2.12132 
C -2.683901 -1.55874 -3 -0.795609 -3 0 
C -3 0.795609 -2.683901 1.55874 -2.12132 2.12132 
C -1.55874 2.683901 -0.795609 3 0 3 
z
" style="stroke: #ff7f0e; stroke-opacity: 0.8"/>
    </defs>
    <g clip-path="url(#p1917565070)">
     <use xlink:href="#mf84a5dfe09" x="88.524879" y="407.88533" style="fill: #ff7f0e; fill-opacity: 0.8; stroke: #ff7f0e; stroke-opacity: 0.8"/>
     <use xlink:href="#mf84a5dfe09" x="303.987557" y="407.878174" style="fill: #ff7f0e; fill-opacity: 0.8; stroke: #ff7f0e; stroke-opacity: 0.8"/>
     <use xlink:href="#mf84a5dfe09" x="519.450234" y="407.892316" style="fill: #ff7f0e; fill-opacity: 0.8; stroke: #ff7f0e; stroke-opacity: 0.8"/>
     <use xlink:href="#mf84a5dfe09" x="734.912912" y="407.881724" style="fill: #ff7f0e; fill-opacity: 0.8; stroke: #ff7f0e; stroke-opacity: 0.8"/>
     <use xlink:href="#mf84a5dfe09" x="950.375589" y="407.888478" style="fill: #ff7f0e; fill-opacity: 0.8; stroke: #ff7f0e; stroke-opacity: 0.8"/>
    </g>
   </g>
   <g id="line2d_23">
    <path d="M 88.524879 228.45434 
L 303.987557 408.107806 
L 519.450234 48.302157 
L 734.912912 311.130006 
L 950.375589 144.707037 
" clip-path="url(#p1917565070)" style="fill: none; stroke: #2ca02c; stroke-opacity: 0.8; stroke-width: 2; stroke-linecap: square"/>
    <defs>
     <path id="me622563a48" d="M 0 3 
C 0.795609 3 1.55874 2.683901 2.12132 2.12132 
C 2.683901 1.55874 3 0.795609 3 0 
C 3 -0.795609 2.683901 -1.55874 2.12132 -2.12132 
C 1.55874 -2.683901 0.795609 -3 0 -3 
C -0.795609 -3 -1.55874 -2.683901 -2.12132 -2.12132 
C -2.683901 -1.55874 -3 -0.795609 -3 0 
C -3 0.795609 -2.683901 1.55874 -2.12132 2.12132 
C -1.55874 2.683901 -0.795609 3 0 3 
z
" style="stroke: #2ca02c; stroke-opacity: 0.8"/>
    </defs>
    <g clip-path="url(#p1917565070)">
     <use xlink:href="#me622563a48" x="88.524879" y="228.45434" style="fill: #2ca02c; fill-opacity: 0.8; stroke: #2ca02c; stroke-opacity: 0.8"/>
     <use xlink:href="#me622563a48" x="303.987557" y="408.107806" style="fill: #2ca02c; fill-opacity: 0.8; stroke: #2ca02c; stroke-opacity: 0.8"/>
     <use xlink:href="#me622563a48" x="519.450234" y="48.302157" style="fill: #2ca02c; fill-opacity: 0.8; stroke: #2ca02c; stroke-opacity: 0.8"/>
     <use xlink:href="#me622563a48" x="734.912912" y="311.130006" style="fill: #2ca02c; fill-opacity: 0.8; stroke: #2ca02c; stroke-opacity: 0.8"/>
     <use xlink:href="#me622563a48" x="950.375589" y="144.707037" style="fill: #2ca02c; fill-opacity: 0.8; stroke: #2ca02c; stroke-opacity: 0.8"/>
    </g>
   </g>
   <g id="line2d_24">
    <path d="M 88.524879 407.99836 
L 303.987557 408.050097 
L 519.450234 408.053554 
L 734.912912 407.999194 
L 950.375589 408.000249 
" clip-path="url(#p1917565070)" style="fill: none; stroke: #d62728; stroke-opacity: 0.8; stroke-width: 2; stroke-linecap: square"/>
    <defs>
     <path id="m073e837899" d="M 0 3 
C 0.795609 3 1.55874 2.683901 2.12132 2.12132 
C 2.683901 1.55874 3 0.795609 3 0 
C 3 -0.795609 2.683901 -1.55874 2.12132 -2.12132 
C 1.55874 -2.683901 0.795609 -3 0 -3 
C -0.795609 -3 -1.55874 -2.683901 -2.12132 -2.12132 
C -2.683901 -1.55874 -3 -0.795609 -3 0 
C -3 0.795609 -2.683901 1.55874 -2.12132 2.12132 
C -1.55874 2.683901 -0.795609 3 0 3 
z
" style="stroke: #d62728; stroke-opacity: 0.8"/>
    </defs>
    <g clip-path="url(#p1917565070)">
     <use xlink:href="#m073e837899" x="88.524879" y="407.99836" style="fill: #d62728; fill-opacity: 0.8; stroke: #d62728; stroke-opacity: 0.8"/>
     <use xlink:href="#m073e837899" x="303.987557" y="408.050097" style="fill: #d62728; fill-opacity: 0.8; stroke: #d62728; stroke-opacity: 0.8"/>
     <use xlink:href="#m073e837899" x="519.450234" y="408.053554" style="fill: #d62728; fill-opacity: 0.8; stroke: #d62728; stroke-opacity: 0.8"/>
     <use xlink:href="#m073e837899" x="734.912912" y="407.999194" style="fill: #d62728; fill-opacity: 0.8; stroke: #d62728; stroke-opacity: 0.8"/>
     <use xlink:href="#m073e837899" x="950.375589" y="408.000249" style="fill: #d62728; fill-opacity: 0.8; stroke: #d62728; stroke-opacity: 0.8"/>
    </g>
   </g>
   <g id="line2d_25">
    <path d="M 88.524879 398.496238 
L 303.987557 398.496238 
L 519.450234 407.90675 
L 734.912912 407.806981 
L 950.375589 407.892239 
" clip-path="url(#p1917565070)" style="fill: none; stroke: #9467bd; stroke-opacity: 0.8; stroke-width: 2; stroke-linecap: square"/>
    <defs>
     <path id="m32a28c1b63" d="M 0 3 
C 0.795609 3 1.55874 2.683901 2.12132 2.12132 
C 2.683901 1.55874 3 0.795609 3 0 
C 3 -0.795609 2.683901 -1.55874 2.12132 -2.12132 
C 1.55874 -2.683901 0.795609 -3 0 -3 
C -0.795609 -3 -1.55874 -2.683901 -2.12132 -2.12132 
C -2.683901 -1.55874 -3 -0.795609 -3 0 
C -3 0.795609 -2.683901 1.55874 -2.12132 2.12132 
C -1.55874 2.683901 -0.795609 3 0 3 
z
" style="stroke: #9467bd; stroke-opacity: 0.8"/>
    </defs>
    <g clip-path="url(#p1917565070)">
     <use xlink:href="#m32a28c1b63" x="88.524879" y="398.496238" style="fill: #9467bd; fill-opacity: 0.8; stroke: #9467bd; stroke-opacity: 0.8"/>
     <use xlink:href="#m32a28c1b63" x="303.987557" y="398.496238" style="fill: #9467bd; fill-opacity: 0.8; stroke: #9467bd; stroke-opacity: 0.8"/>
     <use xlink:href="#m32a28c1b63" x="519.450234" y="407.90675" style="fill: #9467bd; fill-opacity: 0.8; stroke: #9467bd; stroke-opacity: 0.8"/>
     <use xlink:href="#m32a28c1b63" x="734.912912" y="407.806981" style="fill: #9467bd; fill-opacity: 0.8; stroke: #9467bd; stroke-opacity: 0.8"/>
     <use xlink:href="#m32a28c1b63" x="950.375589" y="407.892239" style="fill: #9467bd; fill-opacity: 0.8; stroke: #9467bd; stroke-opacity: 0.8"/>
    </g>
   </g>
   <g id="line2d_26">
    <path d="M 88.524879 48.302157 
L 303.987557 48.302157 
L 519.450234 48.302157 
L 734.912912 48.302157 
L 950.375589 48.302157 
" clip-path="url(#p1917565070)" style="fill: none; stroke: #8c564b; stroke-opacity: 0.8; stroke-width: 2; stroke-linecap: square"/>
    <defs>
     <path id="ma613f839e7" d="M 0 3 
C 0.795609 3 1.55874 2.683901 2.12132 2.12132 
C 2.683901 1.55874 3 0.795609 3 0 
C 3 -0.795609 2.683901 -1.55874 2.12132 -2.12132 
C 1.55874 -2.683901 0.795609 -3 0 -3 
C -0.795609 -3 -1.55874 -2.683901 -2.12132 -2.12132 
C -2.683901 -1.55874 -3 -0.795609 -3 0 
C -3 0.795609 -2.683901 1.55874 -2.12132 2.12132 
C -1.55874 2.683901 -0.795609 3 0 3 
z
" style="stroke: #8c564b; stroke-opacity: 0.8"/>
    </defs>
    <g clip-path="url(#p1917565070)">
     <use xlink:href="#ma613f839e7" x="88.524879" y="48.302157" style="fill: #8c564b; fill-opacity: 0.8; stroke: #8c564b; stroke-opacity: 0.8"/>
     <use xlink:href="#ma613f839e7" x="303.987557" y="48.302157" style="fill: #8c564b; fill-opacity: 0.8; stroke: #8c564b; stroke-opacity: 0.8"/>
     <use xlink:href="#ma613f839e7" x="519.450234" y="48.302157" style="fill: #8c564b; fill-opacity: 0.8; stroke: #8c564b; stroke-opacity: 0.8"/>
     <use xlink:href="#ma613f839e7" x="734.912912" y="48.302157" style="fill: #8c564b; fill-opacity: 0.8; stroke: #8c564b; stroke-opacity: 0.8"/>
     <use xlink:href="#ma613f839e7" x="950.375589" y="48.302157" style="fill: #8c564b; fill-opacity: 0.8; stroke: #8c564b; stroke-opacity: 0.8"/>
    </g>
   </g>
   <g id="patch_3">
    <path d="M 45.432344 426.098088 
L 45.432344 30.311875 
" style="fill: none; stroke: #000000; stroke-width: 0.8; stroke-linejoin: miter; stroke-linecap: square"/>
   </g>
   <g id="patch_4">
    <path d="M 993.468125 426.098088 
L 993.468125 30.311875 
" style="fill: none; stroke: #000000; stroke-width: 0.8; stroke-linejoin: miter; stroke-linecap: square"/>
   </g>
   <g id="patch_5">
    <path d="M 45.432344 426.098088 
L 993.468125 426.098088 
" style="fill: none; stroke: #000000; stroke-width: 0.8; stroke-linejoin: miter; stroke-linecap: square"/>
   </g>
   <g id="patch_6">
    <path d="M 45.432344 30.311875 
L 993.468125 30.311875 
" style="fill: none; stroke: #000000; stroke-width: 0.8; stroke-linejoin: miter; stroke-linecap: square"/>
   </g>
   <g id="text_14">
    <!-- Resumo - Comparações (Linear) -->
    <g transform="translate(321.771641 24.311875) scale(0.22 -0.22)">
     <defs>
      <path id="DejaVuSans-Bold-35" d="M 2297 2597 
Q 2675 2597 2839 2737 
Q 3003 2878 3003 3200 
Q 3003 3519 2839 3656 
Q 2675 3794 2297 3794 
L 1791 3794 
L 1791 2597 
L 2297 2597 
z
M 1791 1766 
L 1791 0 
L 588 0 
L 588 4666 
L 2425 4666 
Q 3347 4666 3776 4356 
Q 4206 4047 4206 3378 
Q 4206 2916 3982 2619 
Q 3759 2322 3309 2181 
Q 3556 2125 3751 1926 
Q 3947 1728 4147 1325 
L 4800 0 
L 3519 0 
L 2950 1159 
Q 2778 1509 2601 1637 
Q 2425 1766 2131 1766 
L 1791 1766 
z
" transform="scale(0.015625)"/>
      <path id="DejaVuSans-Bold-3" transform="scale(0.015625)"/>
      <path id="DejaVuSans-Bold-10" d="M 347 2297 
L 2309 2297 
L 2309 1388 
L 347 1388 
L 347 2297 
z
" transform="scale(0.015625)"/>
      <path id="DejaVuSans-Bold-b" d="M 2413 -844 
L 1484 -844 
Q 1006 -72 778 623 
Q 550 1319 550 2003 
Q 550 2688 779 3389 
Q 1009 4091 1484 4856 
L 2413 4856 
Q 2013 4116 1813 3408 
Q 1613 2700 1613 2009 
Q 1613 1319 1811 609 
Q 2009 -100 2413 -844 
z
" transform="scale(0.015625)"/>
      <path id="DejaVuSans-Bold-2f" d="M 588 4666 
L 1791 4666 
L 1791 909 
L 3903 909 
L 3903 0 
L 588 0 
L 588 4666 
z
" transform="scale(0.015625)"/>
      <path id="DejaVuSans-Bold-51" d="M 4056 2131 
L 4056 0 
L 2931 0 
L 2931 347 
L 2931 1631 
Q 2931 2084 2911 2256 
Q 2891 2428 2841 2509 
Q 2775 2619 2662 2680 
Q 2550 2741 2406 2741 
Q 2056 2741 1856 2470 
Q 1656 2200 1656 1722 
L 1656 0 
L 538 0 
L 538 3500 
L 1656 3500 
L 1656 2988 
Q 1909 3294 2193 3439 
Q 2478 3584 2822 3584 
Q 3428 3584 3742 3212 
Q 4056 2841 4056 2131 
z
" transform="scale(0.015625)"/>
      <path id="DejaVuSans-Bold-c" d="M 513 -844 
Q 913 -100 1113 609 
Q 1313 1319 1313 2009 
Q 1313 2700 1113 3408 
Q 913 4116 513 4856 
L 1441 4856 
Q 1916 4091 2145 3389 
Q 2375 2688 2375 2003 
Q 2375 1319 2147 623 
Q 1919 -72 1441 -844 
L 513 -844 
z
" transform="scale(0.015625)"/>
     </defs>
     <use xlink:href="#DejaVuSans-Bold-35"/>
     <use xlink:href="#DejaVuSans-Bold-48" transform="translate(77 0)"/>
     <use xlink:href="#DejaVuSans-Bold-56" transform="translate(144.828125 0)"/>
     <use xlink:href="#DejaVuSans-Bold-58" transform="translate(204.34375 0)"/>
     <use xlink:href="#DejaVuSans-Bold-50" transform="translate(275.53125 0)"/>
     <use xlink:href="#DejaVuSans-Bold-52" transform="translate(379.734375 0)"/>
     <use xlink:href="#DejaVuSans-Bold-3" transform="translate(448.4375 0)"/>
     <use xlink:href="#DejaVuSans-Bold-10" transform="translate(483.25 0)"/>
     <use xlink:href="#DejaVuSans-Bold-3" transform="translate(524.75 0)"/>
     <use xlink:href="#DejaVuSans-Bold-26" transform="translate(559.5625 0)"/>
     <use xlink:href="#DejaVuSans-Bold-52" transform="translate(632.953125 0)"/>
     <use xlink:href="#DejaVuSans-Bold-50" transform="translate(701.65625 0)"/>
     <use xlink:href="#DejaVuSans-Bold-53" transform="translate(805.859375 0)"/>
     <use xlink:href="#DejaVuSans-Bold-44" transform="translate(877.4375 0)"/>
     <use xlink:href="#DejaVuSans-Bold-55" transform="translate(944.921875 0)"/>
     <use xlink:href="#DejaVuSans-Bold-44" transform="translate(994.234375 0)"/>
     <use xlink:href="#DejaVuSans-Bold-a9" transform="translate(1061.71875 0)"/>
     <use xlink:href="#DejaVuSans-Bold-b7" transform="translate(1121 0)"/>
     <use xlink:href="#DejaVuSans-Bold-48" transform="translate(1189.703125 0)"/>
     <use xlink:href="#DejaVuSans-Bold-56" transform="translate(1257.53125 0)"/>
     <use xlink:href="#DejaVuSans-Bold-3" transform="translate(1317.046875 0)"/>
     <use xlink:href="#DejaVuSans-Bold-b" transform="translate(1351.859375 0)"/>
     <use xlink:href="#DejaVuSans-Bold-2f" transform="translate(1397.5625 0)"/>
     <use xlink:href="#DejaVuSans-Bold-4c" transform="translate(1461.28125 0)"/>
     <use xlink:href="#DejaVuSans-Bold-51" transform="translate(1495.5625 0)"/>
     <use xlink:href="#DejaVuSans-Bold-48" transform="translate(1566.75 0)"/>
     <use xlink:href="#DejaVuSans-Bold-44" transform="translate(1634.578125 0)"/>
     <use xlink:href="#DejaVuSans-Bold-55" transform="translate(1702.0625 0)"/>
     <use xlink:href="#DejaVuSans-Bold-c" transform="translate(1751.375 0)"/>
    </g>
   </g>
   <g id="legend_1">
    <g id="patch_7">
     <path d="M 679.371562 261.806622 
L 983.668125 261.806622 
Q 986.468125 261.806622 986.468125 259.006622 
L 986.468125 197.403341 
Q 986.468125 194.603341 983.668125 194.603341 
L 679.371562 194.603341 
Q 676.571563 194.603341 676.571563 197.403341 
L 676.571563 259.006622 
Q 676.571563 261.806622 679.371562 261.806622 
z
" style="fill: #ffffff; opacity: 0.95; stroke: #cccccc; stroke-linejoin: miter"/>
    </g>
    <g id="line2d_27">
     <path d="M 682.171563 205.941153 
L 696.171563 205.941153 
L 710.171563 205.941153 
" style="fill: none; stroke: #1f77b4; stroke-opacity: 0.8; stroke-width: 2; stroke-linecap: square"/>
     <g>
      <use xlink:href="#md2eacd9972" x="696.171563" y="205.941153" style="fill: #1f77b4; fill-opacity: 0.8; stroke: #1f77b4; stroke-opacity: 0.8"/>
     </g>
    </g>
    <g id="text_15">
     <!-- Bubble Sort -->
     <g transform="translate(721.371563 210.841153) scale(0.14 -0.14)">
      <defs>
       <path id="DejaVuSans-25" d="M 1259 2228 
L 1259 519 
L 2272 519 
Q 2781 519 3026 730 
Q 3272 941 3272 1375 
Q 3272 1813 3026 2020 
Q 2781 2228 2272 2228 
L 1259 2228 
z
M 1259 4147 
L 1259 2741 
L 2194 2741 
Q 2656 2741 2882 2914 
Q 3109 3088 3109 3444 
Q 3109 3797 2882 3972 
Q 2656 4147 2194 4147 
L 1259 4147 
z
M 628 4666 
L 2241 4666 
Q 2963 4666 3353 4366 
Q 3744 4066 3744 3513 
Q 3744 3084 3544 2831 
Q 3344 2578 2956 2516 
Q 3422 2416 3680 2098 
Q 3938 1781 3938 1306 
Q 3938 681 3513 340 
Q 3088 0 2303 0 
L 628 0 
L 628 4666 
z
" transform="scale(0.015625)"/>
       <path id="DejaVuSans-45" d="M 3116 1747 
Q 3116 2381 2855 2742 
Q 2594 3103 2138 3103 
Q 1681 3103 1420 2742 
Q 1159 2381 1159 1747 
Q 1159 1113 1420 752 
Q 1681 391 2138 391 
Q 2594 391 2855 752 
Q 3116 1113 3116 1747 
z
M 1159 2969 
Q 1341 3281 1617 3432 
Q 1894 3584 2278 3584 
Q 2916 3584 3314 3078 
Q 3713 2572 3713 1747 
Q 3713 922 3314 415 
Q 2916 -91 2278 -91 
Q 1894 -91 1617 61 
Q 1341 213 1159 525 
L 1159 0 
L 581 0 
L 581 4863 
L 1159 4863 
L 1159 2969 
z
" transform="scale(0.015625)"/>
       <path id="DejaVuSans-36" d="M 3425 4513 
L 3425 3897 
Q 3066 4069 2747 4153 
Q 2428 4238 2131 4238 
Q 1616 4238 1336 4038 
Q 1056 3838 1056 3469 
Q 1056 3159 1242 3001 
Q 1428 2844 1947 2747 
L 2328 2669 
Q 3034 2534 3370 2195 
Q 3706 1856 3706 1288 
Q 3706 609 3251 259 
Q 2797 -91 1919 -91 
Q 1588 -91 1214 -16 
Q 841 59 441 206 
L 441 856 
Q 825 641 1194 531 
Q 1563 422 1919 422 
Q 2459 422 2753 634 
Q 3047 847 3047 1241 
Q 3047 1584 2836 1778 
Q 2625 1972 2144 2069 
L 1759 2144 
Q 1053 2284 737 2584 
Q 422 2884 422 3419 
Q 422 4038 858 4394 
Q 1294 4750 2059 4750 
Q 2388 4750 2728 4690 
Q 3069 4631 3425 4513 
z
" transform="scale(0.015625)"/>
      </defs>
      <use xlink:href="#DejaVuSans-25"/>
      <use xlink:href="#DejaVuSans-58" transform="translate(68.609375 0)"/>
      <use xlink:href="#DejaVuSans-45" transform="translate(131.984375 0)"/>
      <use xlink:href="#DejaVuSans-45" transform="translate(195.46875 0)"/>
      <use xlink:href="#DejaVuSans-4f" transform="translate(258.953125 0)"/>
      <use xlink:href="#DejaVuSans-48" transform="translate(286.734375 0)"/>
      <use xlink:href="#DejaVuSans-3" transform="translate(348.265625 0)"/>
      <use xlink:href="#DejaVuSans-36" transform="translate(380.046875 0)"/>
      <use xlink:href="#DejaVuSans-52" transform="translate(443.53125 0)"/>
      <use xlink:href="#DejaVuSans-55" transform="translate(504.71875 0)"/>
      <use xlink:href="#DejaVuSans-57" transform="translate(545.828125 0)"/>
     </g>
    </g>
    <g id="line2d_28">
     <path d="M 682.171563 226.942247 
L 696.171563 226.942247 
L 710.171563 226.942247 
" style="fill: none; stroke: #ff7f0e; stroke-opacity: 0.8; stroke-width: 2; stroke-linecap: square"/>
     <g>
      <use xlink:href="#mf84a5dfe09" x="696.171563" y="226.942247" style="fill: #ff7f0e; fill-opacity: 0.8; stroke: #ff7f0e; stroke-opacity: 0.8"/>
     </g>
    </g>
    <g id="text_16">
     <!-- Heap Sort -->
     <g transform="translate(721.371563 231.842247) scale(0.14 -0.14)">
      <defs>
       <path id="DejaVuSans-2b" d="M 628 4666 
L 1259 4666 
L 1259 2753 
L 3553 2753 
L 3553 4666 
L 4184 4666 
L 4184 0 
L 3553 0 
L 3553 2222 
L 1259 2222 
L 1259 0 
L 628 0 
L 628 4666 
z
" transform="scale(0.015625)"/>
       <path id="DejaVuSans-53" d="M 1159 525 
L 1159 -1331 
L 581 -1331 
L 581 3500 
L 1159 3500 
L 1159 2969 
Q 1341 3281 1617 3432 
Q 1894 3584 2278 3584 
Q 2916 3584 3314 3078 
Q 3713 2572 3713 1747 
Q 3713 922 3314 415 
Q 2916 -91 2278 -91 
Q 1894 -91 1617 61 
Q 1341 213 1159 525 
z
M 3116 1747 
Q 3116 2381 2855 2742 
Q 2594 3103 2138 3103 
Q 1681 3103 1420 2742 
Q 1159 2381 1159 1747 
Q 1159 1113 1420 752 
Q 1681 391 2138 391 
Q 2594 391 2855 752 
Q 3116 1113 3116 1747 
z
" transform="scale(0.015625)"/>
      </defs>
      <use xlink:href="#DejaVuSans-2b"/>
      <use xlink:href="#DejaVuSans-48" transform="translate(75.203125 0)"/>
      <use xlink:href="#DejaVuSans-44" transform="translate(136.734375 0)"/>
      <use xlink:href="#DejaVuSans-53" transform="translate(198.015625 0)"/>
      <use xlink:href="#DejaVuSans-3" transform="translate(261.5 0)"/>
      <use xlink:href="#DejaVuSans-36" transform="translate(293.28125 0)"/>
      <use xlink:href="#DejaVuSans-52" transform="translate(356.765625 0)"/>
      <use xlink:href="#DejaVuSans-55" transform="translate(417.953125 0)"/>
      <use xlink:href="#DejaVuSans-57" transform="translate(459.0625 0)"/>
     </g>
    </g>
    <g id="line2d_29">
     <path d="M 682.171563 247.943341 
L 696.171563 247.943341 
L 710.171563 247.943341 
" style="fill: none; stroke: #2ca02c; stroke-opacity: 0.8; stroke-width: 2; stroke-linecap: square"/>
     <g>
      <use xlink:href="#me622563a48" x="696.171563" y="247.943341" style="fill: #2ca02c; fill-opacity: 0.8; stroke: #2ca02c; stroke-opacity: 0.8"/>
     </g>
    </g>
    <g id="text_17">
     <!-- Insertion Sort -->
     <g transform="translate(721.371563 252.843341) scale(0.14 -0.14)">
      <defs>
       <path id="DejaVuSans-2c" d="M 628 4666 
L 1259 4666 
L 1259 0 
L 628 0 
L 628 4666 
z
" transform="scale(0.015625)"/>
      </defs>
      <use xlink:href="#DejaVuSans-2c"/>
      <use xlink:href="#DejaVuSans-51" transform="translate(29.5 0)"/>
      <use xlink:href="#DejaVuSans-56" transform="translate(92.875 0)"/>
      <use xlink:href="#DejaVuSans-48" transform="translate(144.96875 0)"/>
      <use xlink:href="#DejaVuSans-55" transform="translate(206.5 0)"/>
      <use xlink:href="#DejaVuSans-57" transform="translate(247.609375 0)"/>
      <use xlink:href="#DejaVuSans-4c" transform="translate(286.8125 0)"/>
      <use xlink:href="#DejaVuSans-52" transform="translate(314.59375 0)"/>
      <use xlink:href="#DejaVuSans-51" transform="translate(375.78125 0)"/>
      <use xlink:href="#DejaVuSans-3" transform="translate(439.15625 0)"/>
      <use xlink:href="#DejaVuSans-36" transform="translate(470.9375 0)"/>
      <use xlink:href="#DejaVuSans-52" transform="translate(534.421875 0)"/>
      <use xlink:href="#DejaVuSans-55" transform="translate(595.609375 0)"/>
      <use xlink:href="#DejaVuSans-57" transform="translate(636.71875 0)"/>
     </g>
    </g>
    <g id="line2d_30">
     <path d="M 844.000625 205.941153 
L 858.000625 205.941153 
L 872.000625 205.941153 
" style="fill: none; stroke: #d62728; stroke-opacity: 0.8; stroke-width: 2; stroke-linecap: square"/>
     <g>
      <use xlink:href="#m073e837899" x="858.000625" y="205.941153" style="fill: #d62728; fill-opacity: 0.8; stroke: #d62728; stroke-opacity: 0.8"/>
     </g>
    </g>
    <g id="text_18">
     <!-- Merge Sort -->
     <g transform="translate(883.200625 210.841153) scale(0.14 -0.14)">
      <defs>
       <path id="DejaVuSans-30" d="M 628 4666 
L 1569 4666 
L 2759 1491 
L 3956 4666 
L 4897 4666 
L 4897 0 
L 4281 0 
L 4281 4097 
L 3078 897 
L 2444 897 
L 1241 4097 
L 1241 0 
L 628 0 
L 628 4666 
z
" transform="scale(0.015625)"/>
       <path id="DejaVuSans-4a" d="M 2906 1791 
Q 2906 2416 2648 2759 
Q 2391 3103 1925 3103 
Q 1463 3103 1205 2759 
Q 947 2416 947 1791 
Q 947 1169 1205 825 
Q 1463 481 1925 481 
Q 2391 481 2648 825 
Q 2906 1169 2906 1791 
z
M 3481 434 
Q 3481 -459 3084 -895 
Q 2688 -1331 1869 -1331 
Q 1566 -1331 1297 -1286 
Q 1028 -1241 775 -1147 
L 775 -588 
Q 1028 -725 1275 -790 
Q 1522 -856 1778 -856 
Q 2344 -856 2625 -561 
Q 2906 -266 2906 331 
L 2906 616 
Q 2728 306 2450 153 
Q 2172 0 1784 0 
Q 1141 0 747 490 
Q 353 981 353 1791 
Q 353 2603 747 3093 
Q 1141 3584 1784 3584 
Q 2172 3584 2450 3431 
Q 2728 3278 2906 2969 
L 2906 3500 
L 3481 3500 
L 3481 434 
z
" transform="scale(0.015625)"/>
      </defs>
      <use xlink:href="#DejaVuSans-30"/>
      <use xlink:href="#DejaVuSans-48" transform="translate(86.28125 0)"/>
      <use xlink:href="#DejaVuSans-55" transform="translate(147.8125 0)"/>
      <use xlink:href="#DejaVuSans-4a" transform="translate(187.171875 0)"/>
      <use xlink:href="#DejaVuSans-48" transform="translate(250.65625 0)"/>
      <use xlink:href="#DejaVuSans-3" transform="translate(312.1875 0)"/>
      <use xlink:href="#DejaVuSans-36" transform="translate(343.96875 0)"/>
      <use xlink:href="#DejaVuSans-52" transform="translate(407.453125 0)"/>
      <use xlink:href="#DejaVuSans-55" transform="translate(468.640625 0)"/>
      <use xlink:href="#DejaVuSans-57" transform="translate(509.75 0)"/>
     </g>
    </g>
    <g id="line2d_31">
     <path d="M 844.000625 226.942247 
L 858.000625 226.942247 
L 872.000625 226.942247 
" style="fill: none; stroke: #9467bd; stroke-opacity: 0.8; stroke-width: 2; stroke-linecap: square"/>
     <g>
      <use xlink:href="#m32a28c1b63" x="858.000625" y="226.942247" style="fill: #9467bd; fill-opacity: 0.8; stroke: #9467bd; stroke-opacity: 0.8"/>
     </g>
    </g>
    <g id="text_19">
     <!-- Quick Sort -->
     <g transform="translate(883.200625 231.842247) scale(0.14 -0.14)">
      <defs>
       <path id="DejaVuSans-4e" d="M 581 4863 
L 1159 4863 
L 1159 1991 
L 2875 3500 
L 3609 3500 
L 1753 1863 
L 3688 0 
L 2938 0 
L 1159 1709 
L 1159 0 
L 581 0 
L 581 4863 
z
" transform="scale(0.015625)"/>
      </defs>
      <use xlink:href="#DejaVuSans-34"/>
      <use xlink:href="#DejaVuSans-58" transform="translate(78.71875 0)"/>
      <use xlink:href="#DejaVuSans-4c" transform="translate(142.09375 0)"/>
      <use xlink:href="#DejaVuSans-46" transform="translate(169.875 0)"/>
      <use xlink:href="#DejaVuSans-4e" transform="translate(224.859375 0)"/>
      <use xlink:href="#DejaVuSans-3" transform="translate(282.765625 0)"/>
      <use xlink:href="#DejaVuSans-36" transform="translate(314.546875 0)"/>
      <use xlink:href="#DejaVuSans-52" transform="translate(378.03125 0)"/>
      <use xlink:href="#DejaVuSans-55" transform="translate(439.21875 0)"/>
      <use xlink:href="#DejaVuSans-57" transform="translate(480.328125 0)"/>
     </g>
    </g>
    <g id="line2d_32">
     <path d="M 844.000625 247.943341 
L 858.000625 247.943341 
L 872.000625 247.943341 
" style="fill: none; stroke: #8c564b; stroke-opacity: 0.8; stroke-width: 2; stroke-linecap: square"/>
     <g>
      <use xlink:href="#ma613f839e7" x="858.000625" y="247.943341" style="fill: #8c564b; fill-opacity: 0.8; stroke: #8c564b; stroke-opacity: 0.8"/>
     </g>
    </g>
    <g id="text_20">
     <!-- Selection Sort -->
     <g transform="translate(883.200625 252.843341) scale(0.14 -0.14)">
      <use xlink:href="#DejaVuSans-36"/>
      <use xlink:href="#DejaVuSans-48" transform="translate(63.484375 0)"/>
      <use xlink:href="#DejaVuSans-4f" transform="translate(125.015625 0)"/>
      <use xlink:href="#DejaVuSans-48" transform="translate(152.796875 0)"/>
      <use xlink:href="#DejaVuSans-46" transform="translate(214.328125 0)"/>
      <use xlink:href="#DejaVuSans-57" transform="translate(269.3125 0)"/>
      <use xlink:href="#DejaVuSans-4c" transform="translate(308.515625 0)"/>
      <use xlink:href="#DejaVuSans-52" transform="translate(336.296875 0)"/>
      <use xlink:href="#DejaVuSans-51" transform="translate(397.484375 0)"/>
      <use xlink:href="#DejaVuSans-3" transform="translate(460.859375 0)"/>
      <use xlink:href="#DejaVuSans-36" transform="translate(492.640625 0)"/>
      <use xlink:href="#DejaVuSans-52" transform="translate(556.125 0)"/>
      <use xlink:href="#DejaVuSans-55" transform="translate(617.3125 0)"/>
      <use xlink:href="#DejaVuSans-57" transform="translate(658.421875 0)"/>
     </g>
    </g>
   </g>
  </g>
 </g>
 <defs>
  <clipPath id="p1917565070">
   <rect x="45.432344" y="30.311875" width="948.035781" height="395.786213"/>
  </clipPath>
 </defs>
</svg>
