<?xml version="1.0" encoding="utf-8" standalone="no"?>
<!DOCTYPE svg PUBLIC "-//W3C//DTD SVG 1.1//EN"
  "http://www.w3.org/Graphics/SVG/1.1/DTD/svg11.dtd">
<svg xmlns:xlink="http://www.w3.org/1999/xlink" width="1461.998438pt" height="429.26pt" viewBox="0 0 1461.998438 429.26" xmlns="http://www.w3.org/2000/svg" version="1.1">
 <metadata>
  <rdf:RDF xmlns:dc="http://purl.org/dc/elements/1.1/" xmlns:cc="http://creativecommons.org/ns#" xmlns:rdf="http://www.w3.org/1999/02/22-rdf-syntax-ns#">
   <cc:Work>
    <dc:type rdf:resource="http://purl.org/dc/dcmitype/StillImage"/>
    <dc:date>2026-07-08T19:25:55.643172</dc:date>
    <dc:format>image/svg+xml</dc:format>
    <dc:creator>
     <cc:Agent>
      <dc:title>Matplotlib v3.11.0, https://matplotlib.org/</dc:title>
     </cc:Agent>
    </dc:creator>
   </cc:Work>
  </rdf:RDF>
 </metadata>
 <defs>
  <style type="text/css">*{stroke-linejoin: round; stroke-linecap: butt}</style>
 </defs>
 <g id="figure_1">
  <g id="patch_1">
   <path d="M 0 429.26 
L 1461.998438 429.26 
L 1461.998438 0 
L 0 0 
z
" style="fill: #ffffff"/>
  </g>
  <g id="axes_1">
   <g id="patch_2">
    <path d="M 60.362656 319.6 
L 725.798437 319.6 
L 725.798437 106.325156 
L 60.362656 106.325156 
z
" style="fill: #ffffff"/>
   </g>
   <g id="matplotlib.axis_1">
    <g id="xtick_1">
     <g id="line2d_1">
      <path d="M 90.576664 319.6 
L 90.576664 106.325156 
" clip-path="url(#pc267884fcd)" style="fill: none; stroke: #b0b0b0; stroke-opacity: 0.3; stroke-width: 0.8; stroke-linecap: square"/>
     </g>
     <g id="line2d_2">
      <defs>
       <path id="m4729b2a7c2" d="M 0 0 
L 0 3.5 
" style="stroke: #000000; stroke-width: 0.8"/>
      </defs>
      <g>
       <use xlink:href="#m4729b2a7c2" x="90.576664" y="319.6" style="stroke: #000000; stroke-width: 0.8"/>
      </g>
     </g>
     <g id="text_1">
      <!-- 0 -->
      <g transform="translate(85.804789 337.996484) scale(0.15 -0.15)">
       <defs>
        <path id="DejaVuSans-13" d="M 2034 4250 
Q 1547 4250 1301 3770 
Q 1056 3291 1056 2328 
Q 1056 1369 1301 889 
Q 1547 409 2034 409 
Q 2525 409 2770 889 
Q 3016 1369 3016 2328 
Q 3016 3291 2770 3770 
Q 2525 4250 2034 4250 
z
M 2034 4750 
Q 2819 4750 3233 4129 
Q 3647 3509 3647 2328 
Q 3647 1150 3233 529 
Q 2819 -91 2034 -91 
Q 1250 -91 836 529 
Q 422 1150 422 2328 
Q 422 3509 836 4129 
Q 1250 4750 2034 4750 
z
" transform="scale(0.015625)"/>
       </defs>
       <use xlink:href="#DejaVuSans-13"/>
      </g>
     </g>
    </g>
    <g id="xtick_2">
     <g id="line2d_3">
      <path d="M 173.260077 319.6 
L 173.260077 106.325156 
" clip-path="url(#pc267884fcd)" style="fill: none; stroke: #b0b0b0; stroke-opacity: 0.3; stroke-width: 0.8; stroke-linecap: square"/>
     </g>
     <g id="line2d_4">
      <g>
       <use xlink:href="#m4729b2a7c2" x="173.260077" y="319.6" style="stroke: #000000; stroke-width: 0.8"/>
      </g>
     </g>
     <g id="text_2">
      <!-- 25000 -->
      <g transform="translate(149.400702 337.996484) scale(0.15 -0.15)">
       <defs>
        <path id="DejaVuSans-15" d="M 1228 531 
L 3431 531 
L 3431 0 
L 469 0 
L 469 531 
Q 828 903 1448 1529 
Q 2069 2156 2228 2338 
Q 2531 2678 2651 2914 
Q 2772 3150 2772 3378 
Q 2772 3750 2511 3984 
Q 2250 4219 1831 4219 
Q 1534 4219 1204 4116 
Q 875 4013 500 3803 
L 500 4441 
Q 881 4594 1212 4672 
Q 1544 4750 1819 4750 
Q 2544 4750 2975 4387 
Q 3406 4025 3406 3419 
Q 3406 3131 3298 2873 
Q 3191 2616 2906 2266 
Q 2828 2175 2409 1742 
Q 1991 1309 1228 531 
z
" transform="scale(0.015625)"/>
        <path id="DejaVuSans-18" d="M 691 4666 
L 3169 4666 
L 3169 4134 
L 1269 4134 
L 1269 2991 
Q 1406 3038 1543 3061 
Q 1681 3084 1819 3084 
Q 2600 3084 3056 2656 
Q 3513 2228 3513 1497 
Q 3513 744 3044 326 
Q 2575 -91 1722 -91 
Q 1428 -91 1123 -41 
Q 819 9 494 109 
L 494 744 
Q 775 591 1075 516 
Q 1375 441 1709 441 
Q 2250 441 2565 725 
Q 2881 1009 2881 1497 
Q 2881 1984 2565 2268 
Q 2250 2553 1709 2553 
Q 1456 2553 1204 2497 
Q 953 2441 691 2322 
L 691 4666 
z
" transform="scale(0.015625)"/>
       </defs>
       <use xlink:href="#DejaVuSans-15"/>
       <use xlink:href="#DejaVuSans-18" transform="translate(63.625 0)"/>
       <use xlink:href="#DejaVuSans-13" transform="translate(127.25 0)"/>
       <use xlink:href="#DejaVuSans-13" transform="translate(190.875 0)"/>
       <use xlink:href="#DejaVuSans-13" transform="translate(254.5 0)"/>
      </g>
     </g>
    </g>
    <g id="xtick_3">
     <g id="line2d_5">
      <path d="M 255.943491 319.6 
L 255.943491 106.325156 
" clip-path="url(#pc267884fcd)" style="fill: none; stroke: #b0b0b0; stroke-opacity: 0.3; stroke-width: 0.8; stroke-linecap: square"/>
     </g>
     <g id="line2d_6">
      <g>
       <use xlink:href="#m4729b2a7c2" x="255.943491" y="319.6" style="stroke: #000000; stroke-width: 0.8"/>
      </g>
     </g>
     <g id="text_3">
      <!-- 50000 -->
      <g transform="translate(232.084116 337.996484) scale(0.15 -0.15)">
       <use xlink:href="#DejaVuSans-18"/>
       <use xlink:href="#DejaVuSans-13" transform="translate(63.625 0)"/>
       <use xlink:href="#DejaVuSans-13" transform="translate(127.25 0)"/>
       <use xlink:href="#DejaVuSans-13" transform="translate(190.875 0)"/>
       <use xlink:href="#DejaVuSans-13" transform="translate(254.5 0)"/>
      </g>
     </g>
    </g>
    <g id="xtick_4">
     <g id="line2d_7">
      <path d="M 338.626904 319.6 
L 338.626904 106.325156 
" clip-path="url(#pc267884fcd)" style="fill: none; stroke: #b0b0b0; stroke-opacity: 0.3; stroke-width: 0.8; stroke-linecap: square"/>
     </g>
     <g id="line2d_8">
      <g>
       <use xlink:href="#m4729b2a7c2" x="338.626904" y="319.6" style="stroke: #000000; stroke-width: 0.8"/>
      </g>
     </g>
     <g id="text_4">
      <!-- 75000 -->
      <g transform="translate(314.767529 337.996484) scale(0.15 -0.15)">
       <defs>
        <path id="DejaVuSans-1a" d="M 525 4666 
L 3525 4666 
L 3525 4397 
L 1831 0 
L 1172 0 
L 2766 4134 
L 525 4134 
L 525 4666 
z
" transform="scale(0.015625)"/>
       </defs>
       <use xlink:href="#DejaVuSans-1a"/>
       <use xlink:href="#DejaVuSans-18" transform="translate(63.625 0)"/>
       <use xlink:href="#DejaVuSans-13" transform="translate(127.25 0)"/>
       <use xlink:href="#DejaVuSans-13" transform="translate(190.875 0)"/>
       <use xlink:href="#DejaVuSans-13" transform="translate(254.5 0)"/>
      </g>
     </g>
    </g>
    <g id="xtick_5">
     <g id="line2d_9">
      <path d="M 421.310318 319.6 
L 421.310318 106.325156 
" clip-path="url(#pc267884fcd)" style="fill: none; stroke: #b0b0b0; stroke-opacity: 0.3; stroke-width: 0.8; stroke-linecap: square"/>
     </g>
     <g id="line2d_10">
      <g>
       <use xlink:href="#m4729b2a7c2" x="421.310318" y="319.6" style="stroke: #000000; stroke-width: 0.8"/>
      </g>
     </g>
     <g id="text_5">
      <!-- 100000 -->
      <g transform="translate(392.679068 337.996484) scale(0.15 -0.15)">
       <defs>
        <path id="DejaVuSans-14" d="M 794 531 
L 1825 531 
L 1825 4091 
L 703 3866 
L 703 4441 
L 1819 4666 
L 2450 4666 
L 2450 531 
L 3481 531 
L 3481 0 
L 794 0 
L 794 531 
z
" transform="scale(0.015625)"/>
       </defs>
       <use xlink:href="#DejaVuSans-14"/>
       <use xlink:href="#DejaVuSans-13" transform="translate(63.625 0)"/>
       <use xlink:href="#DejaVuSans-13" transform="translate(127.25 0)"/>
       <use xlink:href="#DejaVuSans-13" transform="translate(190.875 0)"/>
       <use xlink:href="#DejaVuSans-13" transform="translate(254.5 0)"/>
       <use xlink:href="#DejaVuSans-13" transform="translate(318.125 0)"/>
      </g>
     </g>
    </g>
    <g id="xtick_6">
     <g id="line2d_11">
      <path d="M 503.993731 319.6 
L 503.993731 106.325156 
" clip-path="url(#pc267884fcd)" style="fill: none; stroke: #b0b0b0; stroke-opacity: 0.3; stroke-width: 0.8; stroke-linecap: square"/>
     </g>
     <g id="line2d_12">
      <g>
       <use xlink:href="#m4729b2a7c2" x="503.993731" y="319.6" style="stroke: #000000; stroke-width: 0.8"/>
      </g>
     </g>
     <g id="text_6">
      <!-- 125000 -->
      <g transform="translate(475.362481 337.996484) scale(0.15 -0.15)">
       <use xlink:href="#DejaVuSans-14"/>
       <use xlink:href="#DejaVuSans-15" transform="translate(63.625 0)"/>
       <use xlink:href="#DejaVuSans-18" transform="translate(127.25 0)"/>
       <use xlink:href="#DejaVuSans-13" transform="translate(190.875 0)"/>
       <use xlink:href="#DejaVuSans-13" transform="translate(254.5 0)"/>
       <use xlink:href="#DejaVuSans-13" transform="translate(318.125 0)"/>
      </g>
     </g>
    </g>
    <g id="xtick_7">
     <g id="line2d_13">
      <path d="M 586.677145 319.6 
L 586.677145 106.325156 
" clip-path="url(#pc267884fcd)" style="fill: none; stroke: #b0b0b0; stroke-opacity: 0.3; stroke-width: 0.8; stroke-linecap: square"/>
     </g>
     <g id="line2d_14">
      <g>
       <use xlink:href="#m4729b2a7c2" x="586.677145" y="319.6" style="stroke: #000000; stroke-width: 0.8"/>
      </g>
     </g>
     <g id="text_7">
      <!-- 150000 -->
      <g transform="translate(558.045895 337.996484) scale(0.15 -0.15)">
       <use xlink:href="#DejaVuSans-14"/>
       <use xlink:href="#DejaVuSans-18" transform="translate(63.625 0)"/>
       <use xlink:href="#DejaVuSans-13" transform="translate(127.25 0)"/>
       <use xlink:href="#DejaVuSans-13" transform="translate(190.875 0)"/>
       <use xlink:href="#DejaVuSans-13" transform="translate(254.5 0)"/>
       <use xlink:href="#DejaVuSans-13" transform="translate(318.125 0)"/>
      </g>
     </g>
    </g>
    <g id="xtick_8">
     <g id="line2d_15">
      <path d="M 669.360558 319.6 
L 669.360558 106.325156 
" clip-path="url(#pc267884fcd)" style="fill: none; stroke: #b0b0b0; stroke-opacity: 0.3; stroke-width: 0.8; stroke-linecap: square"/>
     </g>
     <g id="line2d_16">
      <g>
       <use xlink:href="#m4729b2a7c2" x="669.360558" y="319.6" style="stroke: #000000; stroke-width: 0.8"/>
      </g>
     </g>
     <g id="text_8">
      <!-- 175000 -->
      <g transform="translate(640.729308 337.996484) scale(0.15 -0.15)">
       <use xlink:href="#DejaVuSans-14"/>
       <use xlink:href="#DejaVuSans-1a" transform="translate(63.625 0)"/>
       <use xlink:href="#DejaVuSans-18" transform="translate(127.25 0)"/>
       <use xlink:href="#DejaVuSans-13" transform="translate(190.875 0)"/>
       <use xlink:href="#DejaVuSans-13" transform="translate(254.5 0)"/>
       <use xlink:href="#DejaVuSans-13" transform="translate(318.125 0)"/>
      </g>
     </g>
    </g>
    <g id="text_9">
     <!-- n -->
     <g transform="translate(387.376797 359.275781) scale(0.18 -0.18)">
      <defs>
       <path id="DejaVuSans-51" d="M 3513 2113 
L 3513 0 
L 2938 0 
L 2938 2094 
Q 2938 2591 2744 2837 
Q 2550 3084 2163 3084 
Q 1697 3084 1428 2787 
Q 1159 2491 1159 1978 
L 1159 0 
L 581 0 
L 581 3500 
L 1159 3500 
L 1159 2956 
Q 1366 3272 1645 3428 
Q 1925 3584 2291 3584 
Q 2894 3584 3203 3211 
Q 3513 2838 3513 2113 
z
" transform="scale(0.015625)"/>
      </defs>
      <use xlink:href="#DejaVuSans-51"/>
     </g>
    </g>
   </g>
   <g id="matplotlib.axis_2">
    <g id="ytick_1">
     <g id="line2d_17">
      <path d="M 60.362656 319.6 
L 725.798437 319.6 
" clip-path="url(#pc267884fcd)" style="fill: none; stroke: #b0b0b0; stroke-opacity: 0.3; stroke-width: 0.8; stroke-linecap: square"/>
     </g>
     <g id="line2d_18">
      <defs>
       <path id="ma0083ae601" d="M 0 0 
L -3.5 0 
" style="stroke: #000000; stroke-width: 0.8"/>
      </defs>
      <g>
       <use xlink:href="#ma0083ae601" x="60.362656" y="319.6" style="stroke: #000000; stroke-width: 0.8"/>
      </g>
     </g>
     <g id="text_10">
      <!-- 0.0 -->
      <g transform="translate(29.507969 325.298242) scale(0.15 -0.15)">
       <defs>
        <path id="DejaVuSans-11" d="M 684 794 
L 1344 794 
L 1344 0 
L 684 0 
L 684 794 
z
" transform="scale(0.015625)"/>
       </defs>
       <use xlink:href="#DejaVuSans-13"/>
       <use xlink:href="#DejaVuSans-11" transform="translate(63.625 0)"/>
       <use xlink:href="#DejaVuSans-13" transform="translate(95.40625 0)"/>
      </g>
     </g>
    </g>
    <g id="ytick_2">
     <g id="line2d_19">
      <path d="M 60.362656 276.945031 
L 725.798437 276.945031 
" clip-path="url(#pc267884fcd)" style="fill: none; stroke: #b0b0b0; stroke-opacity: 0.3; stroke-width: 0.8; stroke-linecap: square"/>
     </g>
     <g id="line2d_20">
      <g>
       <use xlink:href="#ma0083ae601" x="60.362656" y="276.945031" style="stroke: #000000; stroke-width: 0.8"/>
      </g>
     </g>
     <g id="text_11">
      <!-- 0.2 -->
      <g transform="translate(29.507969 282.643273) scale(0.15 -0.15)">
       <use xlink:href="#DejaVuSans-13"/>
       <use xlink:href="#DejaVuSans-11" transform="translate(63.625 0)"/>
       <use xlink:href="#DejaVuSans-15" transform="translate(95.40625 0)"/>
      </g>
     </g>
    </g>
    <g id="ytick_3">
     <g id="line2d_21">
      <path d="M 60.362656 234.290062 
L 725.798437 234.290062 
" clip-path="url(#pc267884fcd)" style="fill: none; stroke: #b0b0b0; stroke-opacity: 0.3; stroke-width: 0.8; stroke-linecap: square"/>
     </g>
     <g id="line2d_22">
      <g>
       <use xlink:href="#ma0083ae601" x="60.362656" y="234.290062" style="stroke: #000000; stroke-width: 0.8"/>
      </g>
     </g>
     <g id="text_12">
      <!-- 0.4 -->
      <g transform="translate(29.507969 239.988305) scale(0.15 -0.15)">
       <defs>
        <path id="DejaVuSans-17" d="M 2419 4116 
L 825 1625 
L 2419 1625 
L 2419 4116 
z
M 2253 4666 
L 3047 4666 
L 3047 1625 
L 3713 1625 
L 3713 1100 
L 3047 1100 
L 3047 0 
L 2419 0 
L 2419 1100 
L 313 1100 
L 313 1709 
L 2253 4666 
z
" transform="scale(0.015625)"/>
       </defs>
       <use xlink:href="#DejaVuSans-13"/>
       <use xlink:href="#DejaVuSans-11" transform="translate(63.625 0)"/>
       <use xlink:href="#DejaVuSans-17" transform="translate(95.40625 0)"/>
      </g>
     </g>
    </g>
    <g id="ytick_4">
     <g id="line2d_23">
      <path d="M 60.362656 191.635094 
L 725.798437 191.635094 
" clip-path="url(#pc267884fcd)" style="fill: none; stroke: #b0b0b0; stroke-opacity: 0.3; stroke-width: 0.8; stroke-linecap: square"/>
     </g>
     <g id="line2d_24">
      <g>
       <use xlink:href="#ma0083ae601" x="60.362656" y="191.635094" style="stroke: #000000; stroke-width: 0.8"/>
      </g>
     </g>
     <g id="text_13">
      <!-- 0.6 -->
      <g transform="translate(29.507969 197.333336) scale(0.15 -0.15)">
       <defs>
        <path id="DejaVuSans-19" d="M 2113 2584 
Q 1688 2584 1439 2293 
Q 1191 2003 1191 1497 
Q 1191 994 1439 701 
Q 1688 409 2113 409 
Q 2538 409 2786 701 
Q 3034 994 3034 1497 
Q 3034 2003 2786 2293 
Q 2538 2584 2113 2584 
z
M 3366 4563 
L 3366 3988 
Q 3128 4100 2886 4159 
Q 2644 4219 2406 4219 
Q 1781 4219 1451 3797 
Q 1122 3375 1075 2522 
Q 1259 2794 1537 2939 
Q 1816 3084 2150 3084 
Q 2853 3084 3261 2657 
Q 3669 2231 3669 1497 
Q 3669 778 3244 343 
Q 2819 -91 2113 -91 
Q 1303 -91 875 529 
Q 447 1150 447 2328 
Q 447 3434 972 4092 
Q 1497 4750 2381 4750 
Q 2619 4750 2861 4703 
Q 3103 4656 3366 4563 
z
" transform="scale(0.015625)"/>
       </defs>
       <use xlink:href="#DejaVuSans-13"/>
       <use xlink:href="#DejaVuSans-11" transform="translate(63.625 0)"/>
       <use xlink:href="#DejaVuSans-19" transform="translate(95.40625 0)"/>
      </g>
     </g>
    </g>
    <g id="ytick_5">
     <g id="line2d_25">
      <path d="M 60.362656 148.980125 
L 725.798437 148.980125 
" clip-path="url(#pc267884fcd)" style="fill: none; stroke: #b0b0b0; stroke-opacity: 0.3; stroke-width: 0.8; stroke-linecap: square"/>
     </g>
     <g id="line2d_26">
      <g>
       <use xlink:href="#ma0083ae601" x="60.362656" y="148.980125" style="stroke: #000000; stroke-width: 0.8"/>
      </g>
     </g>
     <g id="text_14">
      <!-- 0.8 -->
      <g transform="translate(29.507969 154.678367) scale(0.15 -0.15)">
       <defs>
        <path id="DejaVuSans-1b" d="M 2034 2216 
Q 1584 2216 1326 1975 
Q 1069 1734 1069 1313 
Q 1069 891 1326 650 
Q 1584 409 2034 409 
Q 2484 409 2743 651 
Q 3003 894 3003 1313 
Q 3003 1734 2745 1975 
Q 2488 2216 2034 2216 
z
M 1403 2484 
Q 997 2584 770 2862 
Q 544 3141 544 3541 
Q 544 4100 942 4425 
Q 1341 4750 2034 4750 
Q 2731 4750 3128 4425 
Q 3525 4100 3525 3541 
Q 3525 3141 3298 2862 
Q 3072 2584 2669 2484 
Q 3125 2378 3379 2068 
Q 3634 1759 3634 1313 
Q 3634 634 3220 271 
Q 2806 -91 2034 -91 
Q 1263 -91 848 271 
Q 434 634 434 1313 
Q 434 1759 690 2068 
Q 947 2378 1403 2484 
z
M 1172 3481 
Q 1172 3119 1398 2916 
Q 1625 2713 2034 2713 
Q 2441 2713 2670 2916 
Q 2900 3119 2900 3481 
Q 2900 3844 2670 4047 
Q 2441 4250 2034 4250 
Q 1625 4250 1398 4047 
Q 1172 3844 1172 3481 
z
" transform="scale(0.015625)"/>
       </defs>
       <use xlink:href="#DejaVuSans-13"/>
       <use xlink:href="#DejaVuSans-11" transform="translate(63.625 0)"/>
       <use xlink:href="#DejaVuSans-1b" transform="translate(95.40625 0)"/>
      </g>
     </g>
    </g>
    <g id="ytick_6">
     <g id="line2d_27">
      <path d="M 60.362656 106.325156 
L 725.798437 106.325156 
" clip-path="url(#pc267884fcd)" style="fill: none; stroke: #b0b0b0; stroke-opacity: 0.3; stroke-width: 0.8; stroke-linecap: square"/>
     </g>
     <g id="line2d_28">
      <g>
       <use xlink:href="#ma0083ae601" x="60.362656" y="106.325156" style="stroke: #000000; stroke-width: 0.8"/>
      </g>
     </g>
     <g id="text_15">
      <!-- 1.0 -->
      <g transform="translate(29.507969 112.023398) scale(0.15 -0.15)">
       <use xlink:href="#DejaVuSans-14"/>
       <use xlink:href="#DejaVuSans-11" transform="translate(63.625 0)"/>
       <use xlink:href="#DejaVuSans-13" transform="translate(95.40625 0)"/>
      </g>
     </g>
    </g>
    <g id="text_16">
     <!-- Comparações -->
     <g transform="translate(21.18375 274.646328) rotate(-90) scale(0.18 -0.18)">
      <defs>
       <path id="DejaVuSans-26" d="M 4122 4306 
L 4122 3641 
Q 3803 3938 3442 4084 
Q 3081 4231 2675 4231 
Q 1875 4231 1450 3742 
Q 1025 3253 1025 2328 
Q 1025 1406 1450 917 
Q 1875 428 2675 428 
Q 3081 428 3442 575 
Q 3803 722 4122 1019 
L 4122 359 
Q 3791 134 3420 21 
Q 3050 -91 2638 -91 
Q 1578 -91 968 557 
Q 359 1206 359 2328 
Q 359 3453 968 4101 
Q 1578 4750 2638 4750 
Q 3056 4750 3426 4639 
Q 3797 4528 4122 4306 
z
" transform="scale(0.015625)"/>
       <path id="DejaVuSans-52" d="M 1959 3097 
Q 1497 3097 1228 2736 
Q 959 2375 959 1747 
Q 959 1119 1226 758 
Q 1494 397 1959 397 
Q 2419 397 2687 759 
Q 2956 1122 2956 1747 
Q 2956 2369 2687 2733 
Q 2419 3097 1959 3097 
z
M 1959 3584 
Q 2709 3584 3137 3096 
Q 3566 2609 3566 1747 
Q 3566 888 3137 398 
Q 2709 -91 1959 -91 
Q 1206 -91 779 398 
Q 353 888 353 1747 
Q 353 2609 779 3096 
Q 1206 3584 1959 3584 
z
" transform="scale(0.015625)"/>
       <path id="DejaVuSans-50" d="M 3328 2828 
Q 3544 3216 3844 3400 
Q 4144 3584 4550 3584 
Q 5097 3584 5394 3201 
Q 5691 2819 5691 2113 
L 5691 0 
L 5113 0 
L 5113 2094 
Q 5113 2597 4934 2840 
Q 4756 3084 4391 3084 
Q 3944 3084 3684 2787 
Q 3425 2491 3425 1978 
L 3425 0 
L 2847 0 
L 2847 2094 
Q 2847 2600 2669 2842 
Q 2491 3084 2119 3084 
Q 1678 3084 1418 2786 
Q 1159 2488 1159 1978 
L 1159 0 
L 581 0 
L 581 3500 
L 1159 3500 
L 1159 2956 
Q 1356 3278 1631 3431 
Q 1906 3584 2284 3584 
Q 2666 3584 2933 3390 
Q 3200 3197 3328 2828 
z
" transform="scale(0.015625)"/>
       <path id="DejaVuSans-53" d="M 1159 525 
L 1159 -1331 
L 581 -1331 
L 581 3500 
L 1159 3500 
L 1159 2969 
Q 1341 3281 1617 3432 
Q 1894 3584 2278 3584 
Q 2916 3584 3314 3078 
Q 3713 2572 3713 1747 
Q 3713 922 3314 415 
Q 2916 -91 2278 -91 
Q 1894 -91 1617 61 
Q 1341 213 1159 525 
z
M 3116 1747 
Q 3116 2381 2855 2742 
Q 2594 3103 2138 3103 
Q 1681 3103 1420 2742 
Q 1159 2381 1159 1747 
Q 1159 1113 1420 752 
Q 1681 391 2138 391 
Q 2594 391 2855 752 
Q 3116 1113 3116 1747 
z
" transform="scale(0.015625)"/>
       <path id="DejaVuSans-44" d="M 2194 1759 
Q 1497 1759 1228 1600 
Q 959 1441 959 1056 
Q 959 750 1161 570 
Q 1363 391 1709 391 
Q 2188 391 2477 730 
Q 2766 1069 2766 1631 
L 2766 1759 
L 2194 1759 
z
M 3341 1997 
L 3341 0 
L 2766 0 
L 2766 531 
Q 2569 213 2275 61 
Q 1981 -91 1556 -91 
Q 1019 -91 701 211 
Q 384 513 384 1019 
Q 384 1609 779 1909 
Q 1175 2209 1959 2209 
L 2766 2209 
L 2766 2266 
Q 2766 2663 2505 2880 
Q 2244 3097 1772 3097 
Q 1472 3097 1187 3025 
Q 903 2953 641 2809 
L 641 3341 
Q 956 3463 1253 3523 
Q 1550 3584 1831 3584 
Q 2591 3584 2966 3190 
Q 3341 2797 3341 1997 
z
" transform="scale(0.015625)"/>
       <path id="DejaVuSans-55" d="M 2631 2963 
Q 2534 3019 2420 3045 
Q 2306 3072 2169 3072 
Q 1681 3072 1420 2755 
Q 1159 2438 1159 1844 
L 1159 0 
L 581 0 
L 581 3500 
L 1159 3500 
L 1159 2956 
Q 1341 3275 1631 3429 
Q 1922 3584 2338 3584 
Q 2397 3584 2469 3576 
Q 2541 3569 2628 3553 
L 2631 2963 
z
" transform="scale(0.015625)"/>
       <path id="DejaVuSans-a9" d="M 3122 3366 
L 3122 2828 
Q 2878 2963 2633 3030 
Q 2388 3097 2138 3097 
Q 1578 3097 1268 2742 
Q 959 2388 959 1747 
Q 959 1106 1268 751 
Q 1578 397 2138 397 
Q 2388 397 2633 464 
Q 2878 531 3122 666 
L 3122 134 
Q 2881 22 2623 -34 
Q 2366 -91 2075 -91 
Q 1284 -91 818 406 
Q 353 903 353 1747 
Q 353 2603 823 3093 
Q 1294 3584 2113 3584 
Q 2378 3584 2631 3529 
Q 2884 3475 3122 3366 
z
M 2310 0 
Q 2481 -194 2565 -358 
Q 2650 -522 2650 -672 
Q 2650 -950 2462 -1092 
Q 2275 -1234 1906 -1234 
Q 1763 -1234 1627 -1215 
Q 1491 -1197 1356 -1159 
L 1356 -750 
Q 1463 -803 1578 -826 
Q 1694 -850 1841 -850 
Q 2025 -850 2119 -775 
Q 2213 -700 2213 -556 
Q 2213 -463 2145 -327 
Q 2078 -191 1938 0 
L 2310 0 
z
" transform="scale(0.015625)"/>
       <path id="DejaVuSans-b7" d="M 1959 3097 
Q 1497 3097 1228 2736 
Q 959 2375 959 1747 
Q 959 1119 1226 758 
Q 1494 397 1959 397 
Q 2419 397 2687 759 
Q 2956 1122 2956 1747 
Q 2956 2369 2687 2733 
Q 2419 3097 1959 3097 
z
M 1959 3584 
Q 2709 3584 3137 3096 
Q 3566 2609 3566 1747 
Q 3566 888 3137 398 
Q 2709 -91 1959 -91 
Q 1206 -91 779 398 
Q 353 888 353 1747 
Q 353 2609 779 3096 
Q 1206 3584 1959 3584 
z
M 1947 4281 
L 1768 4453 
Q 1700 4516 1648 4545 
Q 1597 4575 1556 4575 
Q 1437 4575 1381 4461 
Q 1325 4347 1318 4091 
L 928 4091 
Q 934 4513 1093 4742 
Q 1253 4972 1537 4972 
Q 1656 4972 1756 4928 
Q 1856 4884 1972 4781 
L 2150 4609 
Q 2218 4547 2270 4517 
Q 2322 4488 2362 4488 
Q 2481 4488 2537 4602 
Q 2593 4716 2600 4972 
L 2990 4972 
Q 2984 4550 2824 4320 
Q 2665 4091 2381 4091 
Q 2262 4091 2162 4134 
Q 2062 4178 1947 4281 
z
" transform="scale(0.015625)"/>
       <path id="DejaVuSans-48" d="M 3597 1894 
L 3597 1613 
L 953 1613 
Q 991 1019 1311 708 
Q 1631 397 2203 397 
Q 2534 397 2845 478 
Q 3156 559 3463 722 
L 3463 178 
Q 3153 47 2828 -22 
Q 2503 -91 2169 -91 
Q 1331 -91 842 396 
Q 353 884 353 1716 
Q 353 2575 817 3079 
Q 1281 3584 2069 3584 
Q 2775 3584 3186 3129 
Q 3597 2675 3597 1894 
z
M 3022 2063 
Q 3016 2534 2758 2815 
Q 2500 3097 2075 3097 
Q 1594 3097 1305 2825 
Q 1016 2553 972 2059 
L 3022 2063 
z
" transform="scale(0.015625)"/>
       <path id="DejaVuSans-56" d="M 2834 3397 
L 2834 2853 
Q 2591 2978 2328 3040 
Q 2066 3103 1784 3103 
Q 1356 3103 1142 2972 
Q 928 2841 928 2578 
Q 928 2378 1081 2264 
Q 1234 2150 1697 2047 
L 1894 2003 
Q 2506 1872 2764 1633 
Q 3022 1394 3022 966 
Q 3022 478 2636 193 
Q 2250 -91 1575 -91 
Q 1294 -91 989 -36 
Q 684 19 347 128 
L 347 722 
Q 666 556 975 473 
Q 1284 391 1588 391 
Q 1994 391 2212 530 
Q 2431 669 2431 922 
Q 2431 1156 2273 1281 
Q 2116 1406 1581 1522 
L 1381 1569 
Q 847 1681 609 1914 
Q 372 2147 372 2553 
Q 372 3047 722 3315 
Q 1072 3584 1716 3584 
Q 2034 3584 2315 3537 
Q 2597 3491 2834 3397 
z
" transform="scale(0.015625)"/>
      </defs>
      <use xlink:href="#DejaVuSans-26"/>
      <use xlink:href="#DejaVuSans-52" transform="translate(69.828125 0)"/>
      <use xlink:href="#DejaVuSans-50" transform="translate(131.015625 0)"/>
      <use xlink:href="#DejaVuSans-53" transform="translate(228.421875 0)"/>
      <use xlink:href="#DejaVuSans-44" transform="translate(291.90625 0)"/>
      <use xlink:href="#DejaVuSans-55" transform="translate(353.1875 0)"/>
      <use xlink:href="#DejaVuSans-44" transform="translate(394.296875 0)"/>
      <use xlink:href="#DejaVuSans-a9" transform="translate(455.578125 0)"/>
      <use xlink:href="#DejaVuSans-b7" transform="translate(510.5625 0)"/>
      <use xlink:href="#DejaVuSans-48" transform="translate(571.75 0)"/>
      <use xlink:href="#DejaVuSans-56" transform="translate(633.28125 0)"/>
     </g>
    </g>
    <g id="text_17">
     <!-- 1e3 -->
     <g transform="translate(60.362656 103.325156) scale(0.15 -0.15)">
      <defs>
       <path id="DejaVuSans-16" d="M 2597 2516 
Q 3050 2419 3304 2112 
Q 3559 1806 3559 1356 
Q 3559 666 3084 287 
Q 2609 -91 1734 -91 
Q 1441 -91 1130 -33 
Q 819 25 488 141 
L 488 750 
Q 750 597 1062 519 
Q 1375 441 1716 441 
Q 2309 441 2620 675 
Q 2931 909 2931 1356 
Q 2931 1769 2642 2001 
Q 2353 2234 1838 2234 
L 1294 2234 
L 1294 2753 
L 1863 2753 
Q 2328 2753 2575 2939 
Q 2822 3125 2822 3475 
Q 2822 3834 2567 4026 
Q 2313 4219 1838 4219 
Q 1578 4219 1281 4162 
Q 984 4106 628 3988 
L 628 4550 
Q 988 4650 1302 4700 
Q 1616 4750 1894 4750 
Q 2613 4750 3031 4423 
Q 3450 4097 3450 3541 
Q 3450 3153 3228 2886 
Q 3006 2619 2597 2516 
z
" transform="scale(0.015625)"/>
      </defs>
      <use xlink:href="#DejaVuSans-14"/>
      <use xlink:href="#DejaVuSans-48" transform="translate(63.625 0)"/>
      <use xlink:href="#DejaVuSans-16" transform="translate(125.15625 0)"/>
     </g>
    </g>
   </g>
   <g id="line2d_29">
    <path d="M 90.609737 319.17345 
L 90.613045 318.960175 
L 90.616352 318.960175 
L 90.619659 318.960175 
L 90.622967 318.960175 
L 90.626274 318.960175 
L 90.632889 318.960175 
L 90.639503 318.960175 
L 90.646118 318.960175 
L 90.652733 318.960175 
L 90.659347 318.960175 
L 90.669269 318.746901 
L 90.679191 318.746901 
L 90.689113 318.746901 
L 90.699035 318.746901 
L 90.712265 318.746901 
L 90.725494 318.746901 
L 90.742031 318.746901 
L 90.758567 318.746901 
L 90.778411 318.533626 
L 90.798255 318.533626 
L 90.821407 318.533626 
L 90.844558 318.533626 
L 90.871017 318.533626 
L 90.900783 318.533626 
L 90.933856 318.533626 
L 90.970237 318.533626 
L 91.009925 318.320351 
L 91.05292 318.320351 
L 91.099223 318.320351 
L 91.15214 318.320351 
L 91.208365 318.320351 
L 91.271205 318.320351 
L 91.340659 318.320351 
L 91.416727 318.107076 
L 91.499411 318.107076 
L 91.592016 318.107076 
L 91.694544 318.107076 
L 91.806993 318.107076 
L 91.929364 318.107076 
L 92.064965 318.107076 
L 92.213795 318.107076 
L 92.379162 317.893801 
L 92.561066 317.893801 
L 92.759506 317.893801 
L 92.97779 317.893801 
L 93.219226 317.893801 
L 93.483813 317.893801 
L 93.774858 317.893801 
L 94.09567 317.680526 
L 94.446248 317.680526 
L 94.833206 317.680526 
L 95.259852 317.680526 
L 95.729494 317.680526 
L 96.245439 317.680526 
L 96.810993 317.680526 
L 97.43608 317.467252 
L 98.120698 317.467252 
L 98.874771 317.467252 
L 99.704913 317.467252 
L 100.617738 317.467252 
L 101.623168 317.467252 
L 102.727818 317.467252 
L 103.941611 317.467252 
L 105.277775 317.253977 
L 106.74954 317.253977 
L 108.366827 317.253977 
L 110.146174 317.253977 
L 112.104117 317.253977 
L 114.257193 317.253977 
L 116.625246 317.253977 
L 119.231428 317.040702 
L 122.095581 317.040702 
L 125.247473 317.040702 
L 128.713562 317.040702 
L 132.526921 317.040702 
L 136.720623 317.040702 
L 141.334358 317.040702 
L 146.411119 316.827427 
L 151.993903 316.827427 
L 158.135627 316.827427 
L 164.892516 316.827427 
L 172.324101 316.827427 
L 180.499837 316.827427 
L 189.492485 316.827427 
L 199.384729 316.614152 
L 210.265866 316.614152 
L 222.235117 316.614152 
L 235.401624 316.614152 
L 249.88445 316.614152 
L 265.81589 316.614152 
L 283.341467 316.614152 
L 302.616624 316.614152 
L 323.819959 316.400877 
L 347.143296 316.400877 
L 372.801613 316.400877 
L 401.023116 316.400877 
L 432.069084 316.400877 
L 466.217333 316.400877 
L 503.782062 316.400877 
L 545.103925 316.187602 
L 590.556651 316.187602 
L 640.553657 316.187602 
L 695.551357 316.187602 
" clip-path="url(#pc267884fcd)" style="fill: none; stroke: #008000; stroke-width: 3; stroke-linecap: square"/>
    <defs>
     <path id="m7362e15c8d" d="M 0 3 
C 0.795609 3 1.55874 2.683901 2.12132 2.12132 
C 2.683901 1.55874 3 0.795609 3 0 
C 3 -0.795609 2.683901 -1.55874 2.12132 -2.12132 
C 1.55874 -2.683901 0.795609 -3 0 -3 
C -0.795609 -3 -1.55874 -2.683901 -2.12132 -2.12132 
C -2.683901 -1.55874 -3 -0.795609 -3 0 
C -3 0.795609 -2.683901 1.55874 -2.12132 2.12132 
C -1.55874 2.683901 -0.795609 3 0 3 
z
" style="stroke: #008000"/>
    </defs>
    <g clip-path="url(#pc267884fcd)">
     <use xlink:href="#m7362e15c8d" x="90.609737" y="319.17345" style="fill: #008000; stroke: #008000"/>
     <use xlink:href="#m7362e15c8d" x="90.613045" y="318.960175" style="fill: #008000; stroke: #008000"/>
     <use xlink:href="#m7362e15c8d" x="90.616352" y="318.960175" style="fill: #008000; stroke: #008000"/>
     <use xlink:href="#m7362e15c8d" x="90.619659" y="318.960175" style="fill: #008000; stroke: #008000"/>
     <use xlink:href="#m7362e15c8d" x="90.622967" y="318.960175" style="fill: #008000; stroke: #008000"/>
     <use xlink:href="#m7362e15c8d" x="90.626274" y="318.960175" style="fill: #008000; stroke: #008000"/>
     <use xlink:href="#m7362e15c8d" x="90.632889" y="318.960175" style="fill: #008000; stroke: #008000"/>
     <use xlink:href="#m7362e15c8d" x="90.639503" y="318.960175" style="fill: #008000; stroke: #008000"/>
     <use xlink:href="#m7362e15c8d" x="90.646118" y="318.960175" style="fill: #008000; stroke: #008000"/>
     <use xlink:href="#m7362e15c8d" x="90.652733" y="318.960175" style="fill: #008000; stroke: #008000"/>
     <use xlink:href="#m7362e15c8d" x="90.659347" y="318.960175" style="fill: #008000; stroke: #008000"/>
     <use xlink:href="#m7362e15c8d" x="90.669269" y="318.746901" style="fill: #008000; stroke: #008000"/>
     <use xlink:href="#m7362e15c8d" x="90.679191" y="318.746901" style="fill: #008000; stroke: #008000"/>
     <use xlink:href="#m7362e15c8d" x="90.689113" y="318.746901" style="fill: #008000; stroke: #008000"/>
     <use xlink:href="#m7362e15c8d" x="90.699035" y="318.746901" style="fill: #008000; stroke: #008000"/>
     <use xlink:href="#m7362e15c8d" x="90.712265" y="318.746901" style="fill: #008000; stroke: #008000"/>
     <use xlink:href="#m7362e15c8d" x="90.725494" y="318.746901" style="fill: #008000; stroke: #008000"/>
     <use xlink:href="#m7362e15c8d" x="90.742031" y="318.746901" style="fill: #008000; stroke: #008000"/>
     <use xlink:href="#m7362e15c8d" x="90.758567" y="318.746901" style="fill: #008000; stroke: #008000"/>
     <use xlink:href="#m7362e15c8d" x="90.778411" y="318.533626" style="fill: #008000; stroke: #008000"/>
     <use xlink:href="#m7362e15c8d" x="90.798255" y="318.533626" style="fill: #008000; stroke: #008000"/>
     <use xlink:href="#m7362e15c8d" x="90.821407" y="318.533626" style="fill: #008000; stroke: #008000"/>
     <use xlink:href="#m7362e15c8d" x="90.844558" y="318.533626" style="fill: #008000; stroke: #008000"/>
     <use xlink:href="#m7362e15c8d" x="90.871017" y="318.533626" style="fill: #008000; stroke: #008000"/>
     <use xlink:href="#m7362e15c8d" x="90.900783" y="318.533626" style="fill: #008000; stroke: #008000"/>
     <use xlink:href="#m7362e15c8d" x="90.933856" y="318.533626" style="fill: #008000; stroke: #008000"/>
     <use xlink:href="#m7362e15c8d" x="90.970237" y="318.533626" style="fill: #008000; stroke: #008000"/>
     <use xlink:href="#m7362e15c8d" x="91.009925" y="318.320351" style="fill: #008000; stroke: #008000"/>
     <use xlink:href="#m7362e15c8d" x="91.05292" y="318.320351" style="fill: #008000; stroke: #008000"/>
     <use xlink:href="#m7362e15c8d" x="91.099223" y="318.320351" style="fill: #008000; stroke: #008000"/>
     <use xlink:href="#m7362e15c8d" x="91.15214" y="318.320351" style="fill: #008000; stroke: #008000"/>
     <use xlink:href="#m7362e15c8d" x="91.208365" y="318.320351" style="fill: #008000; stroke: #008000"/>
     <use xlink:href="#m7362e15c8d" x="91.271205" y="318.320351" style="fill: #008000; stroke: #008000"/>
     <use xlink:href="#m7362e15c8d" x="91.340659" y="318.320351" style="fill: #008000; stroke: #008000"/>
     <use xlink:href="#m7362e15c8d" x="91.416727" y="318.107076" style="fill: #008000; stroke: #008000"/>
     <use xlink:href="#m7362e15c8d" x="91.499411" y="318.107076" style="fill: #008000; stroke: #008000"/>
     <use xlink:href="#m7362e15c8d" x="91.592016" y="318.107076" style="fill: #008000; stroke: #008000"/>
     <use xlink:href="#m7362e15c8d" x="91.694544" y="318.107076" style="fill: #008000; stroke: #008000"/>
     <use xlink:href="#m7362e15c8d" x="91.806993" y="318.107076" style="fill: #008000; stroke: #008000"/>
     <use xlink:href="#m7362e15c8d" x="91.929364" y="318.107076" style="fill: #008000; stroke: #008000"/>
     <use xlink:href="#m7362e15c8d" x="92.064965" y="318.107076" style="fill: #008000; stroke: #008000"/>
     <use xlink:href="#m7362e15c8d" x="92.213795" y="318.107076" style="fill: #008000; stroke: #008000"/>
     <use xlink:href="#m7362e15c8d" x="92.379162" y="317.893801" style="fill: #008000; stroke: #008000"/>
     <use xlink:href="#m7362e15c8d" x="92.561066" y="317.893801" style="fill: #008000; stroke: #008000"/>
     <use xlink:href="#m7362e15c8d" x="92.759506" y="317.893801" style="fill: #008000; stroke: #008000"/>
     <use xlink:href="#m7362e15c8d" x="92.97779" y="317.893801" style="fill: #008000; stroke: #008000"/>
     <use xlink:href="#m7362e15c8d" x="93.219226" y="317.893801" style="fill: #008000; stroke: #008000"/>
     <use xlink:href="#m7362e15c8d" x="93.483813" y="317.893801" style="fill: #008000; stroke: #008000"/>
     <use xlink:href="#m7362e15c8d" x="93.774858" y="317.893801" style="fill: #008000; stroke: #008000"/>
     <use xlink:href="#m7362e15c8d" x="94.09567" y="317.680526" style="fill: #008000; stroke: #008000"/>
     <use xlink:href="#m7362e15c8d" x="94.446248" y="317.680526" style="fill: #008000; stroke: #008000"/>
     <use xlink:href="#m7362e15c8d" x="94.833206" y="317.680526" style="fill: #008000; stroke: #008000"/>
     <use xlink:href="#m7362e15c8d" x="95.259852" y="317.680526" style="fill: #008000; stroke: #008000"/>
     <use xlink:href="#m7362e15c8d" x="95.729494" y="317.680526" style="fill: #008000; stroke: #008000"/>
     <use xlink:href="#m7362e15c8d" x="96.245439" y="317.680526" style="fill: #008000; stroke: #008000"/>
     <use xlink:href="#m7362e15c8d" x="96.810993" y="317.680526" style="fill: #008000; stroke: #008000"/>
     <use xlink:href="#m7362e15c8d" x="97.43608" y="317.467252" style="fill: #008000; stroke: #008000"/>
     <use xlink:href="#m7362e15c8d" x="98.120698" y="317.467252" style="fill: #008000; stroke: #008000"/>
     <use xlink:href="#m7362e15c8d" x="98.874771" y="317.467252" style="fill: #008000; stroke: #008000"/>
     <use xlink:href="#m7362e15c8d" x="99.704913" y="317.467252" style="fill: #008000; stroke: #008000"/>
     <use xlink:href="#m7362e15c8d" x="100.617738" y="317.467252" style="fill: #008000; stroke: #008000"/>
     <use xlink:href="#m7362e15c8d" x="101.623168" y="317.467252" style="fill: #008000; stroke: #008000"/>
     <use xlink:href="#m7362e15c8d" x="102.727818" y="317.467252" style="fill: #008000; stroke: #008000"/>
     <use xlink:href="#m7362e15c8d" x="103.941611" y="317.467252" style="fill: #008000; stroke: #008000"/>
     <use xlink:href="#m7362e15c8d" x="105.277775" y="317.253977" style="fill: #008000; stroke: #008000"/>
     <use xlink:href="#m7362e15c8d" x="106.74954" y="317.253977" style="fill: #008000; stroke: #008000"/>
     <use xlink:href="#m7362e15c8d" x="108.366827" y="317.253977" style="fill: #008000; stroke: #008000"/>
     <use xlink:href="#m7362e15c8d" x="110.146174" y="317.253977" style="fill: #008000; stroke: #008000"/>
     <use xlink:href="#m7362e15c8d" x="112.104117" y="317.253977" style="fill: #008000; stroke: #008000"/>
     <use xlink:href="#m7362e15c8d" x="114.257193" y="317.253977" style="fill: #008000; stroke: #008000"/>
     <use xlink:href="#m7362e15c8d" x="116.625246" y="317.253977" style="fill: #008000; stroke: #008000"/>
     <use xlink:href="#m7362e15c8d" x="119.231428" y="317.040702" style="fill: #008000; stroke: #008000"/>
     <use xlink:href="#m7362e15c8d" x="122.095581" y="317.040702" style="fill: #008000; stroke: #008000"/>
     <use xlink:href="#m7362e15c8d" x="125.247473" y="317.040702" style="fill: #008000; stroke: #008000"/>
     <use xlink:href="#m7362e15c8d" x="128.713562" y="317.040702" style="fill: #008000; stroke: #008000"/>
     <use xlink:href="#m7362e15c8d" x="132.526921" y="317.040702" style="fill: #008000; stroke: #008000"/>
     <use xlink:href="#m7362e15c8d" x="136.720623" y="317.040702" style="fill: #008000; stroke: #008000"/>
     <use xlink:href="#m7362e15c8d" x="141.334358" y="317.040702" style="fill: #008000; stroke: #008000"/>
     <use xlink:href="#m7362e15c8d" x="146.411119" y="316.827427" style="fill: #008000; stroke: #008000"/>
     <use xlink:href="#m7362e15c8d" x="151.993903" y="316.827427" style="fill: #008000; stroke: #008000"/>
     <use xlink:href="#m7362e15c8d" x="158.135627" y="316.827427" style="fill: #008000; stroke: #008000"/>
     <use xlink:href="#m7362e15c8d" x="164.892516" y="316.827427" style="fill: #008000; stroke: #008000"/>
     <use xlink:href="#m7362e15c8d" x="172.324101" y="316.827427" style="fill: #008000; stroke: #008000"/>
     <use xlink:href="#m7362e15c8d" x="180.499837" y="316.827427" style="fill: #008000; stroke: #008000"/>
     <use xlink:href="#m7362e15c8d" x="189.492485" y="316.827427" style="fill: #008000; stroke: #008000"/>
     <use xlink:href="#m7362e15c8d" x="199.384729" y="316.614152" style="fill: #008000; stroke: #008000"/>
     <use xlink:href="#m7362e15c8d" x="210.265866" y="316.614152" style="fill: #008000; stroke: #008000"/>
     <use xlink:href="#m7362e15c8d" x="222.235117" y="316.614152" style="fill: #008000; stroke: #008000"/>
     <use xlink:href="#m7362e15c8d" x="235.401624" y="316.614152" style="fill: #008000; stroke: #008000"/>
     <use xlink:href="#m7362e15c8d" x="249.88445" y="316.614152" style="fill: #008000; stroke: #008000"/>
     <use xlink:href="#m7362e15c8d" x="265.81589" y="316.614152" style="fill: #008000; stroke: #008000"/>
     <use xlink:href="#m7362e15c8d" x="283.341467" y="316.614152" style="fill: #008000; stroke: #008000"/>
     <use xlink:href="#m7362e15c8d" x="302.616624" y="316.614152" style="fill: #008000; stroke: #008000"/>
     <use xlink:href="#m7362e15c8d" x="323.819959" y="316.400877" style="fill: #008000; stroke: #008000"/>
     <use xlink:href="#m7362e15c8d" x="347.143296" y="316.400877" style="fill: #008000; stroke: #008000"/>
     <use xlink:href="#m7362e15c8d" x="372.801613" y="316.400877" style="fill: #008000; stroke: #008000"/>
     <use xlink:href="#m7362e15c8d" x="401.023116" y="316.400877" style="fill: #008000; stroke: #008000"/>
     <use xlink:href="#m7362e15c8d" x="432.069084" y="316.400877" style="fill: #008000; stroke: #008000"/>
     <use xlink:href="#m7362e15c8d" x="466.217333" y="316.400877" style="fill: #008000; stroke: #008000"/>
     <use xlink:href="#m7362e15c8d" x="503.782062" y="316.400877" style="fill: #008000; stroke: #008000"/>
     <use xlink:href="#m7362e15c8d" x="545.103925" y="316.187602" style="fill: #008000; stroke: #008000"/>
     <use xlink:href="#m7362e15c8d" x="590.556651" y="316.187602" style="fill: #008000; stroke: #008000"/>
     <use xlink:href="#m7362e15c8d" x="640.553657" y="316.187602" style="fill: #008000; stroke: #008000"/>
     <use xlink:href="#m7362e15c8d" x="695.551357" y="316.187602" style="fill: #008000; stroke: #008000"/>
    </g>
   </g>
   <g id="patch_3">
    <path d="M 60.362656 319.6 
L 60.362656 106.325156 
" style="fill: none; stroke: #000000; stroke-width: 0.8; stroke-linejoin: miter; stroke-linecap: square"/>
   </g>
   <g id="patch_4">
    <path d="M 725.798437 319.6 
L 725.798437 106.325156 
" style="fill: none; stroke: #000000; stroke-width: 0.8; stroke-linejoin: miter; stroke-linecap: square"/>
   </g>
   <g id="patch_5">
    <path d="M 60.362656 319.6 
L 725.798437 319.6 
" style="fill: none; stroke: #000000; stroke-width: 0.8; stroke-linejoin: miter; stroke-linecap: square"/>
   </g>
   <g id="patch_6">
    <path d="M 60.362656 106.325156 
L 725.798437 106.325156 
" style="fill: none; stroke: #000000; stroke-width: 0.8; stroke-linejoin: miter; stroke-linecap: square"/>
   </g>
   <g id="text_18">
    <!-- Comparações -->
    <g transform="translate(331.396797 100.325156) scale(0.18 -0.18)">
     <use xlink:href="#DejaVuSans-26"/>
     <use xlink:href="#DejaVuSans-52" transform="translate(69.828125 0)"/>
     <use xlink:href="#DejaVuSans-50" transform="translate(131.015625 0)"/>
     <use xlink:href="#DejaVuSans-53" transform="translate(228.421875 0)"/>
     <use xlink:href="#DejaVuSans-44" transform="translate(291.90625 0)"/>
     <use xlink:href="#DejaVuSans-55" transform="translate(353.1875 0)"/>
     <use xlink:href="#DejaVuSans-44" transform="translate(394.296875 0)"/>
     <use xlink:href="#DejaVuSans-a9" transform="translate(455.578125 0)"/>
     <use xlink:href="#DejaVuSans-b7" transform="translate(510.5625 0)"/>
     <use xlink:href="#DejaVuSans-48" transform="translate(571.75 0)"/>
     <use xlink:href="#DejaVuSans-56" transform="translate(633.28125 0)"/>
    </g>
   </g>
  </g>
  <g id="axes_2">
   <g id="patch_7">
    <path d="M 789.362656 319.6 
L 1454.798438 319.6 
L 1454.798438 106.325156 
L 789.362656 106.325156 
z
" style="fill: #ffffff"/>
   </g>
   <g id="matplotlib.axis_3">
    <g id="xtick_9">
     <g id="line2d_30">
      <path d="M 819.576664 319.6 
L 819.576664 106.325156 
" clip-path="url(#pc73d41b5ca)" style="fill: none; stroke: #b0b0b0; stroke-opacity: 0.3; stroke-width: 0.8; stroke-linecap: square"/>
     </g>
     <g id="line2d_31">
      <g>
       <use xlink:href="#m4729b2a7c2" x="819.576664" y="319.6" style="stroke: #000000; stroke-width: 0.8"/>
      </g>
     </g>
     <g id="text_19">
      <!-- 0 -->
      <g transform="translate(814.804789 337.996484) scale(0.15 -0.15)">
       <use xlink:href="#DejaVuSans-13"/>
      </g>
     </g>
    </g>
    <g id="xtick_10">
     <g id="line2d_32">
      <path d="M 902.260077 319.6 
L 902.260077 106.325156 
" clip-path="url(#pc73d41b5ca)" style="fill: none; stroke: #b0b0b0; stroke-opacity: 0.3; stroke-width: 0.8; stroke-linecap: square"/>
     </g>
     <g id="line2d_33">
      <g>
       <use xlink:href="#m4729b2a7c2" x="902.260077" y="319.6" style="stroke: #000000; stroke-width: 0.8"/>
      </g>
     </g>
     <g id="text_20">
      <!-- 25000 -->
      <g transform="translate(878.400702 337.996484) scale(0.15 -0.15)">
       <use xlink:href="#DejaVuSans-15"/>
       <use xlink:href="#DejaVuSans-18" transform="translate(63.625 0)"/>
       <use xlink:href="#DejaVuSans-13" transform="translate(127.25 0)"/>
       <use xlink:href="#DejaVuSans-13" transform="translate(190.875 0)"/>
       <use xlink:href="#DejaVuSans-13" transform="translate(254.5 0)"/>
      </g>
     </g>
    </g>
    <g id="xtick_11">
     <g id="line2d_34">
      <path d="M 984.943491 319.6 
L 984.943491 106.325156 
" clip-path="url(#pc73d41b5ca)" style="fill: none; stroke: #b0b0b0; stroke-opacity: 0.3; stroke-width: 0.8; stroke-linecap: square"/>
     </g>
     <g id="line2d_35">
      <g>
       <use xlink:href="#m4729b2a7c2" x="984.943491" y="319.6" style="stroke: #000000; stroke-width: 0.8"/>
      </g>
     </g>
     <g id="text_21">
      <!-- 50000 -->
      <g transform="translate(961.084116 337.996484) scale(0.15 -0.15)">
       <use xlink:href="#DejaVuSans-18"/>
       <use xlink:href="#DejaVuSans-13" transform="translate(63.625 0)"/>
       <use xlink:href="#DejaVuSans-13" transform="translate(127.25 0)"/>
       <use xlink:href="#DejaVuSans-13" transform="translate(190.875 0)"/>
       <use xlink:href="#DejaVuSans-13" transform="translate(254.5 0)"/>
      </g>
     </g>
    </g>
    <g id="xtick_12">
     <g id="line2d_36">
      <path d="M 1067.626904 319.6 
L 1067.626904 106.325156 
" clip-path="url(#pc73d41b5ca)" style="fill: none; stroke: #b0b0b0; stroke-opacity: 0.3; stroke-width: 0.8; stroke-linecap: square"/>
     </g>
     <g id="line2d_37">
      <g>
       <use xlink:href="#m4729b2a7c2" x="1067.626904" y="319.6" style="stroke: #000000; stroke-width: 0.8"/>
      </g>
     </g>
     <g id="text_22">
      <!-- 75000 -->
      <g transform="translate(1043.767529 337.996484) scale(0.15 -0.15)">
       <use xlink:href="#DejaVuSans-1a"/>
       <use xlink:href="#DejaVuSans-18" transform="translate(63.625 0)"/>
       <use xlink:href="#DejaVuSans-13" transform="translate(127.25 0)"/>
       <use xlink:href="#DejaVuSans-13" transform="translate(190.875 0)"/>
       <use xlink:href="#DejaVuSans-13" transform="translate(254.5 0)"/>
      </g>
     </g>
    </g>
    <g id="xtick_13">
     <g id="line2d_38">
      <path d="M 1150.310318 319.6 
L 1150.310318 106.325156 
" clip-path="url(#pc73d41b5ca)" style="fill: none; stroke: #b0b0b0; stroke-opacity: 0.3; stroke-width: 0.8; stroke-linecap: square"/>
     </g>
     <g id="line2d_39">
      <g>
       <use xlink:href="#m4729b2a7c2" x="1150.310318" y="319.6" style="stroke: #000000; stroke-width: 0.8"/>
      </g>
     </g>
     <g id="text_23">
      <!-- 100000 -->
      <g transform="translate(1121.679068 337.996484) scale(0.15 -0.15)">
       <use xlink:href="#DejaVuSans-14"/>
       <use xlink:href="#DejaVuSans-13" transform="translate(63.625 0)"/>
       <use xlink:href="#DejaVuSans-13" transform="translate(127.25 0)"/>
       <use xlink:href="#DejaVuSans-13" transform="translate(190.875 0)"/>
       <use xlink:href="#DejaVuSans-13" transform="translate(254.5 0)"/>
       <use xlink:href="#DejaVuSans-13" transform="translate(318.125 0)"/>
      </g>
     </g>
    </g>
    <g id="xtick_14">
     <g id="line2d_40">
      <path d="M 1232.993731 319.6 
L 1232.993731 106.325156 
" clip-path="url(#pc73d41b5ca)" style="fill: none; stroke: #b0b0b0; stroke-opacity: 0.3; stroke-width: 0.8; stroke-linecap: square"/>
     </g>
     <g id="line2d_41">
      <g>
       <use xlink:href="#m4729b2a7c2" x="1232.993731" y="319.6" style="stroke: #000000; stroke-width: 0.8"/>
      </g>
     </g>
     <g id="text_24">
      <!-- 125000 -->
      <g transform="translate(1204.362481 337.996484) scale(0.15 -0.15)">
       <use xlink:href="#DejaVuSans-14"/>
       <use xlink:href="#DejaVuSans-15" transform="translate(63.625 0)"/>
       <use xlink:href="#DejaVuSans-18" transform="translate(127.25 0)"/>
       <use xlink:href="#DejaVuSans-13" transform="translate(190.875 0)"/>
       <use xlink:href="#DejaVuSans-13" transform="translate(254.5 0)"/>
       <use xlink:href="#DejaVuSans-13" transform="translate(318.125 0)"/>
      </g>
     </g>
    </g>
    <g id="xtick_15">
     <g id="line2d_42">
      <path d="M 1315.677145 319.6 
L 1315.677145 106.325156 
" clip-path="url(#pc73d41b5ca)" style="fill: none; stroke: #b0b0b0; stroke-opacity: 0.3; stroke-width: 0.8; stroke-linecap: square"/>
     </g>
     <g id="line2d_43">
      <g>
       <use xlink:href="#m4729b2a7c2" x="1315.677145" y="319.6" style="stroke: #000000; stroke-width: 0.8"/>
      </g>
     </g>
     <g id="text_25">
      <!-- 150000 -->
      <g transform="translate(1287.045895 337.996484) scale(0.15 -0.15)">
       <use xlink:href="#DejaVuSans-14"/>
       <use xlink:href="#DejaVuSans-18" transform="translate(63.625 0)"/>
       <use xlink:href="#DejaVuSans-13" transform="translate(127.25 0)"/>
       <use xlink:href="#DejaVuSans-13" transform="translate(190.875 0)"/>
       <use xlink:href="#DejaVuSans-13" transform="translate(254.5 0)"/>
       <use xlink:href="#DejaVuSans-13" transform="translate(318.125 0)"/>
      </g>
     </g>
    </g>
    <g id="xtick_16">
     <g id="line2d_44">
      <path d="M 1398.360558 319.6 
L 1398.360558 106.325156 
" clip-path="url(#pc73d41b5ca)" style="fill: none; stroke: #b0b0b0; stroke-opacity: 0.3; stroke-width: 0.8; stroke-linecap: square"/>
     </g>
     <g id="line2d_45">
      <g>
       <use xlink:href="#m4729b2a7c2" x="1398.360558" y="319.6" style="stroke: #000000; stroke-width: 0.8"/>
      </g>
     </g>
     <g id="text_26">
      <!-- 175000 -->
      <g transform="translate(1369.729308 337.996484) scale(0.15 -0.15)">
       <use xlink:href="#DejaVuSans-14"/>
       <use xlink:href="#DejaVuSans-1a" transform="translate(63.625 0)"/>
       <use xlink:href="#DejaVuSans-18" transform="translate(127.25 0)"/>
       <use xlink:href="#DejaVuSans-13" transform="translate(190.875 0)"/>
       <use xlink:href="#DejaVuSans-13" transform="translate(254.5 0)"/>
       <use xlink:href="#DejaVuSans-13" transform="translate(318.125 0)"/>
      </g>
     </g>
    </g>
    <g id="text_27">
     <!-- n -->
     <g transform="translate(1116.376797 359.275781) scale(0.18 -0.18)">
      <use xlink:href="#DejaVuSans-51"/>
     </g>
    </g>
   </g>
   <g id="matplotlib.axis_4">
    <g id="ytick_7">
     <g id="line2d_46">
      <path d="M 789.362656 319.6 
L 1454.798438 319.6 
" clip-path="url(#pc73d41b5ca)" style="fill: none; stroke: #b0b0b0; stroke-opacity: 0.3; stroke-width: 0.8; stroke-linecap: square"/>
     </g>
     <g id="line2d_47">
      <g>
       <use xlink:href="#ma0083ae601" x="789.362656" y="319.6" style="stroke: #000000; stroke-width: 0.8"/>
      </g>
     </g>
     <g id="text_28">
      <!-- 0.0 -->
      <g transform="translate(758.507969 325.298242) scale(0.15 -0.15)">
       <use xlink:href="#DejaVuSans-13"/>
       <use xlink:href="#DejaVuSans-11" transform="translate(63.625 0)"/>
       <use xlink:href="#DejaVuSans-13" transform="translate(95.40625 0)"/>
      </g>
     </g>
    </g>
    <g id="ytick_8">
     <g id="line2d_48">
      <path d="M 789.362656 276.945031 
L 1454.798438 276.945031 
" clip-path="url(#pc73d41b5ca)" style="fill: none; stroke: #b0b0b0; stroke-opacity: 0.3; stroke-width: 0.8; stroke-linecap: square"/>
     </g>
     <g id="line2d_49">
      <g>
       <use xlink:href="#ma0083ae601" x="789.362656" y="276.945031" style="stroke: #000000; stroke-width: 0.8"/>
      </g>
     </g>
     <g id="text_29">
      <!-- 0.2 -->
      <g transform="translate(758.507969 282.643273) scale(0.15 -0.15)">
       <use xlink:href="#DejaVuSans-13"/>
       <use xlink:href="#DejaVuSans-11" transform="translate(63.625 0)"/>
       <use xlink:href="#DejaVuSans-15" transform="translate(95.40625 0)"/>
      </g>
     </g>
    </g>
    <g id="ytick_9">
     <g id="line2d_50">
      <path d="M 789.362656 234.290062 
L 1454.798438 234.290062 
" clip-path="url(#pc73d41b5ca)" style="fill: none; stroke: #b0b0b0; stroke-opacity: 0.3; stroke-width: 0.8; stroke-linecap: square"/>
     </g>
     <g id="line2d_51">
      <g>
       <use xlink:href="#ma0083ae601" x="789.362656" y="234.290062" style="stroke: #000000; stroke-width: 0.8"/>
      </g>
     </g>
     <g id="text_30">
      <!-- 0.4 -->
      <g transform="translate(758.507969 239.988305) scale(0.15 -0.15)">
       <use xlink:href="#DejaVuSans-13"/>
       <use xlink:href="#DejaVuSans-11" transform="translate(63.625 0)"/>
       <use xlink:href="#DejaVuSans-17" transform="translate(95.40625 0)"/>
      </g>
     </g>
    </g>
    <g id="ytick_10">
     <g id="line2d_52">
      <path d="M 789.362656 191.635094 
L 1454.798438 191.635094 
" clip-path="url(#pc73d41b5ca)" style="fill: none; stroke: #b0b0b0; stroke-opacity: 0.3; stroke-width: 0.8; stroke-linecap: square"/>
     </g>
     <g id="line2d_53">
      <g>
       <use xlink:href="#ma0083ae601" x="789.362656" y="191.635094" style="stroke: #000000; stroke-width: 0.8"/>
      </g>
     </g>
     <g id="text_31">
      <!-- 0.6 -->
      <g transform="translate(758.507969 197.333336) scale(0.15 -0.15)">
       <use xlink:href="#DejaVuSans-13"/>
       <use xlink:href="#DejaVuSans-11" transform="translate(63.625 0)"/>
       <use xlink:href="#DejaVuSans-19" transform="translate(95.40625 0)"/>
      </g>
     </g>
    </g>
    <g id="ytick_11">
     <g id="line2d_54">
      <path d="M 789.362656 148.980125 
L 1454.798438 148.980125 
" clip-path="url(#pc73d41b5ca)" style="fill: none; stroke: #b0b0b0; stroke-opacity: 0.3; stroke-width: 0.8; stroke-linecap: square"/>
     </g>
     <g id="line2d_55">
      <g>
       <use xlink:href="#ma0083ae601" x="789.362656" y="148.980125" style="stroke: #000000; stroke-width: 0.8"/>
      </g>
     </g>
     <g id="text_32">
      <!-- 0.8 -->
      <g transform="translate(758.507969 154.678367) scale(0.15 -0.15)">
       <use xlink:href="#DejaVuSans-13"/>
       <use xlink:href="#DejaVuSans-11" transform="translate(63.625 0)"/>
       <use xlink:href="#DejaVuSans-1b" transform="translate(95.40625 0)"/>
      </g>
     </g>
    </g>
    <g id="ytick_12">
     <g id="line2d_56">
      <path d="M 789.362656 106.325156 
L 1454.798438 106.325156 
" clip-path="url(#pc73d41b5ca)" style="fill: none; stroke: #b0b0b0; stroke-opacity: 0.3; stroke-width: 0.8; stroke-linecap: square"/>
     </g>
     <g id="line2d_57">
      <g>
       <use xlink:href="#ma0083ae601" x="789.362656" y="106.325156" style="stroke: #000000; stroke-width: 0.8"/>
      </g>
     </g>
     <g id="text_33">
      <!-- 1.0 -->
      <g transform="translate(758.507969 112.023398) scale(0.15 -0.15)">
       <use xlink:href="#DejaVuSans-14"/>
       <use xlink:href="#DejaVuSans-11" transform="translate(63.625 0)"/>
       <use xlink:href="#DejaVuSans-13" transform="translate(95.40625 0)"/>
      </g>
     </g>
    </g>
    <g id="text_34">
     <!-- Tempo (ms) -->
     <g transform="translate(750.18375 265.793984) rotate(-90) scale(0.18 -0.18)">
      <defs>
       <path id="DejaVuSans-37" d="M -19 4666 
L 3928 4666 
L 3928 4134 
L 2272 4134 
L 2272 0 
L 1638 0 
L 1638 4134 
L -19 4134 
L -19 4666 
z
" transform="scale(0.015625)"/>
       <path id="DejaVuSans-3" transform="scale(0.015625)"/>
       <path id="DejaVuSans-b" d="M 1984 4856 
Q 1566 4138 1362 3434 
Q 1159 2731 1159 2009 
Q 1159 1288 1364 580 
Q 1569 -128 1984 -844 
L 1484 -844 
Q 1016 -109 783 600 
Q 550 1309 550 2009 
Q 550 2706 781 3412 
Q 1013 4119 1484 4856 
L 1984 4856 
z
" transform="scale(0.015625)"/>
       <path id="DejaVuSans-c" d="M 513 4856 
L 1013 4856 
Q 1481 4119 1714 3412 
Q 1947 2706 1947 2009 
Q 1947 1309 1714 600 
Q 1481 -109 1013 -844 
L 513 -844 
Q 928 -128 1133 580 
Q 1338 1288 1338 2009 
Q 1338 2731 1133 3434 
Q 928 4138 513 4856 
z
" transform="scale(0.015625)"/>
      </defs>
      <use xlink:href="#DejaVuSans-37"/>
      <use xlink:href="#DejaVuSans-48" transform="translate(44.09375 0)"/>
      <use xlink:href="#DejaVuSans-50" transform="translate(105.625 0)"/>
      <use xlink:href="#DejaVuSans-53" transform="translate(203.03125 0)"/>
      <use xlink:href="#DejaVuSans-52" transform="translate(266.515625 0)"/>
      <use xlink:href="#DejaVuSans-3" transform="translate(327.703125 0)"/>
      <use xlink:href="#DejaVuSans-b" transform="translate(359.484375 0)"/>
      <use xlink:href="#DejaVuSans-50" transform="translate(398.5 0)"/>
      <use xlink:href="#DejaVuSans-56" transform="translate(495.90625 0)"/>
      <use xlink:href="#DejaVuSans-c" transform="translate(548 0)"/>
     </g>
    </g>
    <g id="text_35">
     <!-- 1e3 -->
     <g transform="translate(789.362656 103.325156) scale(0.15 -0.15)">
      <use xlink:href="#DejaVuSans-14"/>
      <use xlink:href="#DejaVuSans-48" transform="translate(63.625 0)"/>
      <use xlink:href="#DejaVuSans-16" transform="translate(125.15625 0)"/>
     </g>
    </g>
   </g>
   <g id="line2d_58">
    <path d="M 819.609737 319.599864 
L 819.613045 319.59988 
L 819.616352 319.599902 
L 819.619659 319.599711 
L 819.622967 319.599939 
L 819.626274 319.599935 
L 819.632889 319.599934 
L 819.639503 319.599891 
L 819.646118 319.599942 
L 819.652733 319.599947 
L 819.659347 319.599943 
L 819.669269 319.599948 
L 819.679191 319.599885 
L 819.689113 319.599888 
L 819.699035 319.599937 
L 819.712265 319.599929 
L 819.725494 319.59994 
L 819.742031 319.5999 
L 819.758567 319.599908 
L 819.778411 319.599938 
L 819.798255 319.599933 
L 819.821407 319.59992 
L 819.844558 319.599932 
L 819.871017 319.599924 
L 819.900783 319.599927 
L 819.933856 319.599929 
L 819.970237 319.59991 
L 820.009925 319.599796 
L 820.05292 319.599926 
L 820.099223 319.599927 
L 820.15214 319.599908 
L 820.208365 319.599851 
L 820.271205 319.599927 
L 820.340659 319.599923 
L 820.416727 319.599923 
L 820.499411 319.599921 
L 820.592016 319.599924 
L 820.694544 319.59992 
L 820.806993 319.59991 
L 820.929364 319.599921 
L 821.064965 319.599916 
L 821.213795 319.599919 
L 821.379162 319.599918 
L 821.561066 319.599914 
L 821.759506 319.599914 
L 821.97779 319.599912 
L 822.219226 319.599893 
L 822.483813 319.599935 
L 822.774858 319.599957 
L 823.09567 319.599971 
L 823.446248 319.59997 
L 823.833206 319.599965 
L 824.259852 319.599953 
L 824.729494 319.599984 
L 825.245439 319.599983 
L 825.810993 319.599983 
L 826.43608 319.599984 
L 827.120698 319.599982 
L 827.874771 319.599981 
L 828.704913 319.599983 
L 829.617738 319.599982 
L 830.623168 319.599976 
L 831.727818 319.599983 
L 832.941611 319.599982 
L 834.277775 319.599981 
L 835.74954 319.599981 
L 837.366827 319.59998 
L 839.146174 319.599982 
L 841.104117 319.599981 
L 843.257193 319.599981 
L 845.625246 319.599981 
L 848.231428 319.59998 
L 851.095581 319.599973 
L 854.247473 319.599979 
L 857.713562 319.599977 
L 861.526921 319.59998 
L 865.720623 319.599977 
L 870.334358 319.599979 
L 875.411119 319.599967 
L 880.993903 319.599965 
L 887.135627 319.599976 
L 893.892516 319.599975 
L 901.324101 319.599972 
L 909.499837 319.599973 
L 918.492485 319.599974 
L 928.384729 319.599972 
L 939.265866 319.599971 
L 951.235117 319.599974 
L 964.401624 319.599973 
L 978.88445 319.599968 
L 994.81589 319.599972 
L 1012.341467 319.59997 
L 1031.616624 319.59997 
L 1052.819959 319.59997 
L 1076.143296 319.599968 
L 1101.801613 319.599966 
L 1130.023116 319.599965 
L 1161.069084 319.599965 
L 1195.217333 319.599957 
L 1232.782062 319.599963 
L 1274.103925 319.599962 
L 1319.556651 319.599963 
L 1369.553657 319.599958 
L 1424.551357 319.599958 
" clip-path="url(#pc73d41b5ca)" style="fill: none; stroke: #008000; stroke-width: 3; stroke-linecap: square"/>
    <g clip-path="url(#pc73d41b5ca)">
     <use xlink:href="#m7362e15c8d" x="819.609737" y="319.599864" style="fill: #008000; stroke: #008000"/>
     <use xlink:href="#m7362e15c8d" x="819.613045" y="319.59988" style="fill: #008000; stroke: #008000"/>
     <use xlink:href="#m7362e15c8d" x="819.616352" y="319.599902" style="fill: #008000; stroke: #008000"/>
     <use xlink:href="#m7362e15c8d" x="819.619659" y="319.599711" style="fill: #008000; stroke: #008000"/>
     <use xlink:href="#m7362e15c8d" x="819.622967" y="319.599939" style="fill: #008000; stroke: #008000"/>
     <use xlink:href="#m7362e15c8d" x="819.626274" y="319.599935" style="fill: #008000; stroke: #008000"/>
     <use xlink:href="#m7362e15c8d" x="819.632889" y="319.599934" style="fill: #008000; stroke: #008000"/>
     <use xlink:href="#m7362e15c8d" x="819.639503" y="319.599891" style="fill: #008000; stroke: #008000"/>
     <use xlink:href="#m7362e15c8d" x="819.646118" y="319.599942" style="fill: #008000; stroke: #008000"/>
     <use xlink:href="#m7362e15c8d" x="819.652733" y="319.599947" style="fill: #008000; stroke: #008000"/>
     <use xlink:href="#m7362e15c8d" x="819.659347" y="319.599943" style="fill: #008000; stroke: #008000"/>
     <use xlink:href="#m7362e15c8d" x="819.669269" y="319.599948" style="fill: #008000; stroke: #008000"/>
     <use xlink:href="#m7362e15c8d" x="819.679191" y="319.599885" style="fill: #008000; stroke: #008000"/>
     <use xlink:href="#m7362e15c8d" x="819.689113" y="319.599888" style="fill: #008000; stroke: #008000"/>
     <use xlink:href="#m7362e15c8d" x="819.699035" y="319.599937" style="fill: #008000; stroke: #008000"/>
     <use xlink:href="#m7362e15c8d" x="819.712265" y="319.599929" style="fill: #008000; stroke: #008000"/>
     <use xlink:href="#m7362e15c8d" x="819.725494" y="319.59994" style="fill: #008000; stroke: #008000"/>
     <use xlink:href="#m7362e15c8d" x="819.742031" y="319.5999" style="fill: #008000; stroke: #008000"/>
     <use xlink:href="#m7362e15c8d" x="819.758567" y="319.599908" style="fill: #008000; stroke: #008000"/>
     <use xlink:href="#m7362e15c8d" x="819.778411" y="319.599938" style="fill: #008000; stroke: #008000"/>
     <use xlink:href="#m7362e15c8d" x="819.798255" y="319.599933" style="fill: #008000; stroke: #008000"/>
     <use xlink:href="#m7362e15c8d" x="819.821407" y="319.59992" style="fill: #008000; stroke: #008000"/>
     <use xlink:href="#m7362e15c8d" x="819.844558" y="319.599932" style="fill: #008000; stroke: #008000"/>
     <use xlink:href="#m7362e15c8d" x="819.871017" y="319.599924" style="fill: #008000; stroke: #008000"/>
     <use xlink:href="#m7362e15c8d" x="819.900783" y="319.599927" style="fill: #008000; stroke: #008000"/>
     <use xlink:href="#m7362e15c8d" x="819.933856" y="319.599929" style="fill: #008000; stroke: #008000"/>
     <use xlink:href="#m7362e15c8d" x="819.970237" y="319.59991" style="fill: #008000; stroke: #008000"/>
     <use xlink:href="#m7362e15c8d" x="820.009925" y="319.599796" style="fill: #008000; stroke: #008000"/>
     <use xlink:href="#m7362e15c8d" x="820.05292" y="319.599926" style="fill: #008000; stroke: #008000"/>
     <use xlink:href="#m7362e15c8d" x="820.099223" y="319.599927" style="fill: #008000; stroke: #008000"/>
     <use xlink:href="#m7362e15c8d" x="820.15214" y="319.599908" style="fill: #008000; stroke: #008000"/>
     <use xlink:href="#m7362e15c8d" x="820.208365" y="319.599851" style="fill: #008000; stroke: #008000"/>
     <use xlink:href="#m7362e15c8d" x="820.271205" y="319.599927" style="fill: #008000; stroke: #008000"/>
     <use xlink:href="#m7362e15c8d" x="820.340659" y="319.599923" style="fill: #008000; stroke: #008000"/>
     <use xlink:href="#m7362e15c8d" x="820.416727" y="319.599923" style="fill: #008000; stroke: #008000"/>
     <use xlink:href="#m7362e15c8d" x="820.499411" y="319.599921" style="fill: #008000; stroke: #008000"/>
     <use xlink:href="#m7362e15c8d" x="820.592016" y="319.599924" style="fill: #008000; stroke: #008000"/>
     <use xlink:href="#m7362e15c8d" x="820.694544" y="319.59992" style="fill: #008000; stroke: #008000"/>
     <use xlink:href="#m7362e15c8d" x="820.806993" y="319.59991" style="fill: #008000; stroke: #008000"/>
     <use xlink:href="#m7362e15c8d" x="820.929364" y="319.599921" style="fill: #008000; stroke: #008000"/>
     <use xlink:href="#m7362e15c8d" x="821.064965" y="319.599916" style="fill: #008000; stroke: #008000"/>
     <use xlink:href="#m7362e15c8d" x="821.213795" y="319.599919" style="fill: #008000; stroke: #008000"/>
     <use xlink:href="#m7362e15c8d" x="821.379162" y="319.599918" style="fill: #008000; stroke: #008000"/>
     <use xlink:href="#m7362e15c8d" x="821.561066" y="319.599914" style="fill: #008000; stroke: #008000"/>
     <use xlink:href="#m7362e15c8d" x="821.759506" y="319.599914" style="fill: #008000; stroke: #008000"/>
     <use xlink:href="#m7362e15c8d" x="821.97779" y="319.599912" style="fill: #008000; stroke: #008000"/>
     <use xlink:href="#m7362e15c8d" x="822.219226" y="319.599893" style="fill: #008000; stroke: #008000"/>
     <use xlink:href="#m7362e15c8d" x="822.483813" y="319.599935" style="fill: #008000; stroke: #008000"/>
     <use xlink:href="#m7362e15c8d" x="822.774858" y="319.599957" style="fill: #008000; stroke: #008000"/>
     <use xlink:href="#m7362e15c8d" x="823.09567" y="319.599971" style="fill: #008000; stroke: #008000"/>
     <use xlink:href="#m7362e15c8d" x="823.446248" y="319.59997" style="fill: #008000; stroke: #008000"/>
     <use xlink:href="#m7362e15c8d" x="823.833206" y="319.599965" style="fill: #008000; stroke: #008000"/>
     <use xlink:href="#m7362e15c8d" x="824.259852" y="319.599953" style="fill: #008000; stroke: #008000"/>
     <use xlink:href="#m7362e15c8d" x="824.729494" y="319.599984" style="fill: #008000; stroke: #008000"/>
     <use xlink:href="#m7362e15c8d" x="825.245439" y="319.599983" style="fill: #008000; stroke: #008000"/>
     <use xlink:href="#m7362e15c8d" x="825.810993" y="319.599983" style="fill: #008000; stroke: #008000"/>
     <use xlink:href="#m7362e15c8d" x="826.43608" y="319.599984" style="fill: #008000; stroke: #008000"/>
     <use xlink:href="#m7362e15c8d" x="827.120698" y="319.599982" style="fill: #008000; stroke: #008000"/>
     <use xlink:href="#m7362e15c8d" x="827.874771" y="319.599981" style="fill: #008000; stroke: #008000"/>
     <use xlink:href="#m7362e15c8d" x="828.704913" y="319.599983" style="fill: #008000; stroke: #008000"/>
     <use xlink:href="#m7362e15c8d" x="829.617738" y="319.599982" style="fill: #008000; stroke: #008000"/>
     <use xlink:href="#m7362e15c8d" x="830.623168" y="319.599976" style="fill: #008000; stroke: #008000"/>
     <use xlink:href="#m7362e15c8d" x="831.727818" y="319.599983" style="fill: #008000; stroke: #008000"/>
     <use xlink:href="#m7362e15c8d" x="832.941611" y="319.599982" style="fill: #008000; stroke: #008000"/>
     <use xlink:href="#m7362e15c8d" x="834.277775" y="319.599981" style="fill: #008000; stroke: #008000"/>
     <use xlink:href="#m7362e15c8d" x="835.74954" y="319.599981" style="fill: #008000; stroke: #008000"/>
     <use xlink:href="#m7362e15c8d" x="837.366827" y="319.59998" style="fill: #008000; stroke: #008000"/>
     <use xlink:href="#m7362e15c8d" x="839.146174" y="319.599982" style="fill: #008000; stroke: #008000"/>
     <use xlink:href="#m7362e15c8d" x="841.104117" y="319.599981" style="fill: #008000; stroke: #008000"/>
     <use xlink:href="#m7362e15c8d" x="843.257193" y="319.599981" style="fill: #008000; stroke: #008000"/>
     <use xlink:href="#m7362e15c8d" x="845.625246" y="319.599981" style="fill: #008000; stroke: #008000"/>
     <use xlink:href="#m7362e15c8d" x="848.231428" y="319.59998" style="fill: #008000; stroke: #008000"/>
     <use xlink:href="#m7362e15c8d" x="851.095581" y="319.599973" style="fill: #008000; stroke: #008000"/>
     <use xlink:href="#m7362e15c8d" x="854.247473" y="319.599979" style="fill: #008000; stroke: #008000"/>
     <use xlink:href="#m7362e15c8d" x="857.713562" y="319.599977" style="fill: #008000; stroke: #008000"/>
     <use xlink:href="#m7362e15c8d" x="861.526921" y="319.59998" style="fill: #008000; stroke: #008000"/>
     <use xlink:href="#m7362e15c8d" x="865.720623" y="319.599977" style="fill: #008000; stroke: #008000"/>
     <use xlink:href="#m7362e15c8d" x="870.334358" y="319.599979" style="fill: #008000; stroke: #008000"/>
     <use xlink:href="#m7362e15c8d" x="875.411119" y="319.599967" style="fill: #008000; stroke: #008000"/>
     <use xlink:href="#m7362e15c8d" x="880.993903" y="319.599965" style="fill: #008000; stroke: #008000"/>
     <use xlink:href="#m7362e15c8d" x="887.135627" y="319.599976" style="fill: #008000; stroke: #008000"/>
     <use xlink:href="#m7362e15c8d" x="893.892516" y="319.599975" style="fill: #008000; stroke: #008000"/>
     <use xlink:href="#m7362e15c8d" x="901.324101" y="319.599972" style="fill: #008000; stroke: #008000"/>
     <use xlink:href="#m7362e15c8d" x="909.499837" y="319.599973" style="fill: #008000; stroke: #008000"/>
     <use xlink:href="#m7362e15c8d" x="918.492485" y="319.599974" style="fill: #008000; stroke: #008000"/>
     <use xlink:href="#m7362e15c8d" x="928.384729" y="319.599972" style="fill: #008000; stroke: #008000"/>
     <use xlink:href="#m7362e15c8d" x="939.265866" y="319.599971" style="fill: #008000; stroke: #008000"/>
     <use xlink:href="#m7362e15c8d" x="951.235117" y="319.599974" style="fill: #008000; stroke: #008000"/>
     <use xlink:href="#m7362e15c8d" x="964.401624" y="319.599973" style="fill: #008000; stroke: #008000"/>
     <use xlink:href="#m7362e15c8d" x="978.88445" y="319.599968" style="fill: #008000; stroke: #008000"/>
     <use xlink:href="#m7362e15c8d" x="994.81589" y="319.599972" style="fill: #008000; stroke: #008000"/>
     <use xlink:href="#m7362e15c8d" x="1012.341467" y="319.59997" style="fill: #008000; stroke: #008000"/>
     <use xlink:href="#m7362e15c8d" x="1031.616624" y="319.59997" style="fill: #008000; stroke: #008000"/>
     <use xlink:href="#m7362e15c8d" x="1052.819959" y="319.59997" style="fill: #008000; stroke: #008000"/>
     <use xlink:href="#m7362e15c8d" x="1076.143296" y="319.599968" style="fill: #008000; stroke: #008000"/>
     <use xlink:href="#m7362e15c8d" x="1101.801613" y="319.599966" style="fill: #008000; stroke: #008000"/>
     <use xlink:href="#m7362e15c8d" x="1130.023116" y="319.599965" style="fill: #008000; stroke: #008000"/>
     <use xlink:href="#m7362e15c8d" x="1161.069084" y="319.599965" style="fill: #008000; stroke: #008000"/>
     <use xlink:href="#m7362e15c8d" x="1195.217333" y="319.599957" style="fill: #008000; stroke: #008000"/>
     <use xlink:href="#m7362e15c8d" x="1232.782062" y="319.599963" style="fill: #008000; stroke: #008000"/>
     <use xlink:href="#m7362e15c8d" x="1274.103925" y="319.599962" style="fill: #008000; stroke: #008000"/>
     <use xlink:href="#m7362e15c8d" x="1319.556651" y="319.599963" style="fill: #008000; stroke: #008000"/>
     <use xlink:href="#m7362e15c8d" x="1369.553657" y="319.599958" style="fill: #008000; stroke: #008000"/>
     <use xlink:href="#m7362e15c8d" x="1424.551357" y="319.599958" style="fill: #008000; stroke: #008000"/>
    </g>
   </g>
   <g id="patch_8">
    <path d="M 789.362656 319.6 
L 789.362656 106.325156 
" style="fill: none; stroke: #000000; stroke-width: 0.8; stroke-linejoin: miter; stroke-linecap: square"/>
   </g>
   <g id="patch_9">
    <path d="M 1454.798438 319.6 
L 1454.798438 106.325156 
" style="fill: none; stroke: #000000; stroke-width: 0.8; stroke-linejoin: miter; stroke-linecap: square"/>
   </g>
   <g id="patch_10">
    <path d="M 789.362656 319.6 
L 1454.798438 319.6 
" style="fill: none; stroke: #000000; stroke-width: 0.8; stroke-linejoin: miter; stroke-linecap: square"/>
   </g>
   <g id="patch_11">
    <path d="M 789.362656 106.325156 
L 1454.798438 106.325156 
" style="fill: none; stroke: #000000; stroke-width: 0.8; stroke-linejoin: miter; stroke-linecap: square"/>
   </g>
   <g id="text_36">
    <!-- Tempo (ms) -->
    <g transform="translate(1069.249141 100.325156) scale(0.18 -0.18)">
     <use xlink:href="#DejaVuSans-37"/>
     <use xlink:href="#DejaVuSans-48" transform="translate(44.09375 0)"/>
     <use xlink:href="#DejaVuSans-50" transform="translate(105.625 0)"/>
     <use xlink:href="#DejaVuSans-53" transform="translate(203.03125 0)"/>
     <use xlink:href="#DejaVuSans-52" transform="translate(266.515625 0)"/>
     <use xlink:href="#DejaVuSans-3" transform="translate(327.703125 0)"/>
     <use xlink:href="#DejaVuSans-b" transform="translate(359.484375 0)"/>
     <use xlink:href="#DejaVuSans-50" transform="translate(398.5 0)"/>
     <use xlink:href="#DejaVuSans-56" transform="translate(495.90625 0)"/>
     <use xlink:href="#DejaVuSans-c" transform="translate(548 0)"/>
    </g>
   </g>
  </g>
  <g id="text_37">
   <!-- Busca Binária -->
   <g transform="translate(646.635937 24.796562) scale(0.22 -0.22)">
    <defs>
     <path id="DejaVuSans-Bold-25" d="M 2456 2859 
Q 2741 2859 2887 2984 
Q 3034 3109 3034 3353 
Q 3034 3594 2887 3720 
Q 2741 3847 2456 3847 
L 1791 3847 
L 1791 2859 
L 2456 2859 
z
M 2497 819 
Q 2859 819 3042 972 
Q 3225 1125 3225 1434 
Q 3225 1738 3044 1889 
Q 2863 2041 2497 2041 
L 1791 2041 
L 1791 819 
L 2497 819 
z
M 3616 2497 
Q 4003 2384 4215 2081 
Q 4428 1778 4428 1338 
Q 4428 663 3972 331 
Q 3516 0 2584 0 
L 588 0 
L 588 4666 
L 2394 4666 
Q 3366 4666 3802 4372 
Q 4238 4078 4238 3431 
Q 4238 3091 4078 2852 
Q 3919 2613 3616 2497 
z
" transform="scale(0.015625)"/>
     <path id="DejaVuSans-Bold-58" d="M 500 1363 
L 500 3500 
L 1625 3500 
L 1625 3150 
Q 1625 2866 1622 2436 
Q 1619 2006 1619 1863 
Q 1619 1441 1641 1255 
Q 1663 1069 1716 984 
Q 1784 875 1895 815 
Q 2006 756 2150 756 
Q 2500 756 2700 1025 
Q 2900 1294 2900 1772 
L 2900 3500 
L 4019 3500 
L 4019 0 
L 2900 0 
L 2900 506 
Q 2647 200 2364 54 
Q 2081 -91 1741 -91 
Q 1134 -91 817 281 
Q 500 653 500 1363 
z
" transform="scale(0.015625)"/>
     <path id="DejaVuSans-Bold-56" d="M 3272 3391 
L 3272 2541 
Q 2913 2691 2578 2766 
Q 2244 2841 1947 2841 
Q 1628 2841 1473 2761 
Q 1319 2681 1319 2516 
Q 1319 2381 1436 2309 
Q 1553 2238 1856 2203 
L 2053 2175 
Q 2913 2066 3209 1816 
Q 3506 1566 3506 1031 
Q 3506 472 3093 190 
Q 2681 -91 1863 -91 
Q 1516 -91 1145 -36 
Q 775 19 384 128 
L 384 978 
Q 719 816 1070 734 
Q 1422 653 1784 653 
Q 2113 653 2278 743 
Q 2444 834 2444 1013 
Q 2444 1163 2330 1236 
Q 2216 1309 1875 1350 
L 1678 1375 
Q 931 1469 631 1722 
Q 331 1975 331 2491 
Q 331 3047 712 3315 
Q 1094 3584 1881 3584 
Q 2191 3584 2531 3537 
Q 2872 3491 3272 3391 
z
" transform="scale(0.015625)"/>
     <path id="DejaVuSans-Bold-46" d="M 3366 3391 
L 3366 2478 
Q 3138 2634 2908 2709 
Q 2678 2784 2431 2784 
Q 1963 2784 1702 2511 
Q 1441 2238 1441 1747 
Q 1441 1256 1702 982 
Q 1963 709 2431 709 
Q 2694 709 2930 787 
Q 3166 866 3366 1019 
L 3366 103 
Q 3103 6 2833 -42 
Q 2563 -91 2291 -91 
Q 1344 -91 809 395 
Q 275 881 275 1747 
Q 275 2613 809 3098 
Q 1344 3584 2291 3584 
Q 2566 3584 2833 3536 
Q 3100 3488 3366 3391 
z
" transform="scale(0.015625)"/>
     <path id="DejaVuSans-Bold-44" d="M 2106 1575 
Q 1756 1575 1579 1456 
Q 1403 1338 1403 1106 
Q 1403 894 1545 773 
Q 1688 653 1941 653 
Q 2256 653 2472 879 
Q 2688 1106 2688 1447 
L 2688 1575 
L 2106 1575 
z
M 3816 1997 
L 3816 0 
L 2688 0 
L 2688 519 
Q 2463 200 2181 54 
Q 1900 -91 1497 -91 
Q 953 -91 614 226 
Q 275 544 275 1050 
Q 275 1666 698 1953 
Q 1122 2241 2028 2241 
L 2688 2241 
L 2688 2328 
Q 2688 2594 2478 2717 
Q 2269 2841 1825 2841 
Q 1466 2841 1156 2769 
Q 847 2697 581 2553 
L 581 3406 
Q 941 3494 1303 3539 
Q 1666 3584 2028 3584 
Q 2975 3584 3395 3211 
Q 3816 2838 3816 1997 
z
" transform="scale(0.015625)"/>
     <path id="DejaVuSans-Bold-3" transform="scale(0.015625)"/>
     <path id="DejaVuSans-Bold-4c" d="M 538 3500 
L 1656 3500 
L 1656 0 
L 538 0 
L 538 3500 
z
M 538 4863 
L 1656 4863 
L 1656 3950 
L 538 3950 
L 538 4863 
z
" transform="scale(0.015625)"/>
     <path id="DejaVuSans-Bold-51" d="M 4056 2131 
L 4056 0 
L 2931 0 
L 2931 347 
L 2931 1631 
Q 2931 2084 2911 2256 
Q 2891 2428 2841 2509 
Q 2775 2619 2662 2680 
Q 2550 2741 2406 2741 
Q 2056 2741 1856 2470 
Q 1656 2200 1656 1722 
L 1656 0 
L 538 0 
L 538 3500 
L 1656 3500 
L 1656 2988 
Q 1909 3294 2193 3439 
Q 2478 3584 2822 3584 
Q 3428 3584 3742 3212 
Q 4056 2841 4056 2131 
z
" transform="scale(0.015625)"/>
     <path id="DejaVuSans-Bold-a3" d="M 2106 1575 
Q 1756 1575 1579 1456 
Q 1403 1338 1403 1106 
Q 1403 894 1545 773 
Q 1688 653 1941 653 
Q 2256 653 2472 879 
Q 2688 1106 2688 1447 
L 2688 1575 
L 2106 1575 
z
M 3816 1997 
L 3816 0 
L 2688 0 
L 2688 519 
Q 2463 200 2181 54 
Q 1900 -91 1497 -91 
Q 953 -91 614 226 
Q 275 544 275 1050 
Q 275 1666 698 1953 
Q 1122 2241 2028 2241 
L 2688 2241 
L 2688 2328 
Q 2688 2594 2478 2717 
Q 2269 2841 1825 2841 
Q 1466 2841 1156 2769 
Q 847 2697 581 2553 
L 581 3406 
Q 941 3494 1303 3539 
Q 1666 3584 2028 3584 
Q 2975 3584 3395 3211 
Q 3816 2838 3816 1997 
z
M 2603 5119 
L 3487 5119 
L 2334 3944 
L 1722 3944 
L 2603 5119 
z
" transform="scale(0.015625)"/>
     <path id="DejaVuSans-Bold-55" d="M 3138 2547 
Q 2991 2616 2845 2648 
Q 2700 2681 2553 2681 
Q 2122 2681 1889 2404 
Q 1656 2128 1656 1613 
L 1656 0 
L 538 0 
L 538 3500 
L 1656 3500 
L 1656 2925 
Q 1872 3269 2151 3426 
Q 2431 3584 2822 3584 
Q 2878 3584 2943 3579 
Q 3009 3575 3134 3559 
L 3138 2547 
z
" transform="scale(0.015625)"/>
    </defs>
    <use xlink:href="#DejaVuSans-Bold-25"/>
    <use xlink:href="#DejaVuSans-Bold-58" transform="translate(76.21875 0)"/>
    <use xlink:href="#DejaVuSans-Bold-56" transform="translate(147.40625 0)"/>
    <use xlink:href="#DejaVuSans-Bold-46" transform="translate(206.921875 0)"/>
    <use xlink:href="#DejaVuSans-Bold-44" transform="translate(266.203125 0)"/>
    <use xlink:href="#DejaVuSans-Bold-3" transform="translate(333.6875 0)"/>
    <use xlink:href="#DejaVuSans-Bold-25" transform="translate(368.5 0)"/>
    <use xlink:href="#DejaVuSans-Bold-4c" transform="translate(444.71875 0)"/>
    <use xlink:href="#DejaVuSans-Bold-51" transform="translate(479 0)"/>
    <use xlink:href="#DejaVuSans-Bold-a3" transform="translate(550.1875 0)"/>
    <use xlink:href="#DejaVuSans-Bold-55" transform="translate(617.671875 0)"/>
    <use xlink:href="#DejaVuSans-Bold-4c" transform="translate(666.984375 0)"/>
    <use xlink:href="#DejaVuSans-Bold-44" transform="translate(701.265625 0)"/>
   </g>
  </g>
  <g id="legend_1">
   <g id="patch_12">
    <path d="M 650.893359 420.76 
L 811.105078 420.76 
Q 814.505078 420.76 814.505078 417.36 
L 814.505078 379.958672 
Q 814.505078 376.558672 811.105078 376.558672 
L 650.893359 376.558672 
Q 647.493359 376.558672 647.493359 379.958672 
L 647.493359 417.36 
Q 647.493359 420.76 650.893359 420.76 
z
" style="fill: #ffffff; opacity: 0.95; stroke: #808080; stroke-linejoin: miter"/>
   </g>
   <g id="line2d_59">
    <path d="M 661.093359 397.126016 
L 682.343359 397.126016 
L 703.593359 397.126016 
" style="fill: none; stroke: #008000; stroke-width: 3; stroke-linecap: square"/>
    <defs>
     <path id="m1747e8a2f7" d="M 0 4.2 
C 1.113853 4.2 2.182235 3.757462 2.969848 2.969848 
C 3.757462 2.182235 4.2 1.113853 4.2 0 
C 4.2 -1.113853 3.757462 -2.182235 2.969848 -2.969848 
C 2.182235 -3.757462 1.113853 -4.2 0 -4.2 
C -1.113853 -4.2 -2.182235 -3.757462 -2.969848 -2.969848 
C -3.757462 -2.182235 -4.2 -1.113853 -4.2 0 
C -4.2 1.113853 -3.757462 2.182235 -2.969848 2.969848 
C -2.182235 3.757462 -1.113853 4.2 0 4.2 
z
" style="stroke: #008000"/>
    </defs>
    <g>
     <use xlink:href="#m1747e8a2f7" x="682.343359" y="397.126016" style="fill: #008000; stroke: #008000"/>
    </g>
   </g>
   <g id="text_38">
    <!-- Ordenado -->
    <g transform="translate(717.193359 403.076016) scale(0.17 -0.17)">
     <defs>
      <path id="DejaVuSans-32" d="M 2522 4238 
Q 1834 4238 1429 3725 
Q 1025 3213 1025 2328 
Q 1025 1447 1429 934 
Q 1834 422 2522 422 
Q 3209 422 3611 934 
Q 4013 1447 4013 2328 
Q 4013 3213 3611 3725 
Q 3209 4238 2522 4238 
z
M 2522 4750 
Q 3503 4750 4090 4092 
Q 4678 3434 4678 2328 
Q 4678 1225 4090 567 
Q 3503 -91 2522 -91 
Q 1538 -91 948 565 
Q 359 1222 359 2328 
Q 359 3434 948 4092 
Q 1538 4750 2522 4750 
z
" transform="scale(0.015625)"/>
      <path id="DejaVuSans-47" d="M 2906 2969 
L 2906 4863 
L 3481 4863 
L 3481 0 
L 2906 0 
L 2906 525 
Q 2725 213 2448 61 
Q 2172 -91 1784 -91 
Q 1150 -91 751 415 
Q 353 922 353 1747 
Q 353 2572 751 3078 
Q 1150 3584 1784 3584 
Q 2172 3584 2448 3432 
Q 2725 3281 2906 2969 
z
M 947 1747 
Q 947 1113 1208 752 
Q 1469 391 1925 391 
Q 2381 391 2643 752 
Q 2906 1113 2906 1747 
Q 2906 2381 2643 2742 
Q 2381 3103 1925 3103 
Q 1469 3103 1208 2742 
Q 947 2381 947 1747 
z
" transform="scale(0.015625)"/>
     </defs>
     <use xlink:href="#DejaVuSans-32"/>
     <use xlink:href="#DejaVuSans-55" transform="translate(78.71875 0)"/>
     <use xlink:href="#DejaVuSans-47" transform="translate(118.078125 0)"/>
     <use xlink:href="#DejaVuSans-48" transform="translate(181.5625 0)"/>
     <use xlink:href="#DejaVuSans-51" transform="translate(243.09375 0)"/>
     <use xlink:href="#DejaVuSans-44" transform="translate(306.46875 0)"/>
     <use xlink:href="#DejaVuSans-47" transform="translate(367.75 0)"/>
     <use xlink:href="#DejaVuSans-52" transform="translate(431.234375 0)"/>
    </g>
   </g>
  </g>
 </g>
 <defs>
  <clipPath id="pc267884fcd">
   <rect x="60.362656" y="106.325156" width="665.435781" height="213.274844"/>
  </clipPath>
  <clipPath id="pc73d41b5ca">
   <rect x="789.362656" y="106.325156" width="665.435781" height="213.274844"/>
  </clipPath>
 </defs>
</svg>
